<?xml version="1.0" encoding="utf-8"?>
<!-- Generator: Adobe Illustrator 16.0.0, SVG Export Plug-In . SVG Version: 6.00 Build 0)  -->
<!DOCTYPE svg PUBLIC "-//W3C//DTD SVG 1.1//EN" "http://www.w3.org/Graphics/SVG/1.1/DTD/svg11.dtd">
<svg version="1.1" id="Layer_1" xmlns="http://www.w3.org/2000/svg" xmlns:xlink="http://www.w3.org/1999/xlink" x="0px" y="0px"
	 width="200px" height="200px" viewBox="0 0 200 200" enable-background="new 0 0 200 200" xml:space="preserve">
<g opacity="0.97">
	<path d="M93.318,126.956h-7.141v-5.145h7.141v-7.044h5.163v7.044h7.141v5.145h-7.141v6.929h-5.163V126.956z"/>
</g>
<g>
	
		<path fill="#4C4C4D" stroke="#4C4C4D" stroke-width="0.405" stroke-linecap="round" stroke-linejoin="round" stroke-miterlimit="10" d="
		M192.662,138.447c0,0.447-0.363,0.81-0.811,0.81h-81.584c-0.447,0-0.81-0.362-0.81-0.81v-55.35c0-0.447,0.362-0.81,0.81-0.81
		h81.584c0.447,0,0.811,0.363,0.811,0.81V138.447z"/>
	<g>
		<rect x="112.989" y="85.392" fill="#FFFFFF" width="76.142" height="43.335"/>
		<path fill="#333333" d="M188.727,85.797v42.525h-75.333V85.797H188.727 M189.536,84.987h-76.952v44.145h76.952V84.987
			L189.536,84.987z"/>
	</g>
	<linearGradient id="SVGID_1_" gradientUnits="userSpaceOnUse" x1="163.7617" y1="63.7886" x2="204.9115" y2="132.0599">
		<stop  offset="0" style="stop-color:#FFFFFF"/>
		<stop  offset="1" style="stop-color:#FFFFFF;stop-opacity:0"/>
	</linearGradient>
	<path opacity="0.8" fill="url(#SVGID_1_)" d="M160.072,82.287h31.779c0.447,0,0.811,0.363,0.811,0.81v55.35
		c0,0.447-0.363,0.81-0.811,0.81L160.072,82.287z"/>
	<g>
		
			<linearGradient id="SVGID_2_" gradientUnits="userSpaceOnUse" x1="127.2129" y1="140.749" x2="150.477" y2="155.8569" gradientTransform="matrix(-1 0 0 1 290.373 0)">
			<stop  offset="0.0675" style="stop-color:#020202"/>
			<stop  offset="1" style="stop-color:#F1F2F2"/>
		</linearGradient>
		<path fill="url(#SVGID_2_)" d="M138.329,152.764c-0.759-0.151-0.709-1.396-0.709-1.396c5.568-4.606,7.341-11.312,7.341-11.312
			l12.1,0.203c0,0,1.872,6.986,7.441,11.594c0,0,0.051,0.759-0.709,0.91H138.329z"/>
		
			<linearGradient id="SVGID_3_" gradientUnits="userSpaceOnUse" x1="139.2988" y1="136.0273" x2="139.2988" y2="152.4154" gradientTransform="matrix(-1 0 0 1 290.373 0)">
			<stop  offset="0.1835" style="stop-color:#020202"/>
			<stop  offset="1" style="stop-color:#FFFFFF"/>
		</linearGradient>
		<path fill="url(#SVGID_3_)" d="M138.329,152.206c-0.759-0.15-0.681-0.91-0.681-0.91c5.569-4.607,4.191-12.402,4.191-12.402h18.443
			c0,0-1.351,7.795,4.219,12.402c0,0,0.051,0.76-0.709,0.91C163.033,152.359,139.088,152.359,138.329,152.206z"/>
	</g>
	<g>
		<g>
			<path fill="#757576" d="M152.613,121.039c0,0,1.436,2.54,3.096,2.263c1.656-0.278,1.052,2.062,3.377,0.457
				c1.213-0.838-4.665-3.404-4.665-3.404L152.613,121.039z"/>
			<path fill="#757576" d="M154.808,113.568l8.947,0.882c0,0-0.764,0.863-1.545,1.107c-0.782,0.241-5.149,0.743-5.747,0.016
				C155.865,114.847,154.808,113.568,154.808,113.568z"/>
			<polygon fill="#565655" points="154.568,110.455 165.01,111.479 164.779,104.702 157.979,104.394 153.815,109.608 			"/>
			<path fill="#757576" d="M154.116,110.827c0,0,3.665,0.623,4.942-2.951c0,0,2.77,1.123,4.088-0.831
				c1.318-1.956,0.082-0.751,0.082-0.751s-3.229-0.295-3.828-1.607C158.802,103.374,154.116,110.827,154.116,110.827z"/>
			<path fill="#D3D2D1" d="M149.576,109.78c0,0,3.925-7.431,4.369-9.816c0.445-2.385,2.08-1.828,2.08-1.828l13.494,0.505
				c0,0,2.507-0.165,4.408,4.497c1.9,4.663,7.133,11.367,6.805,12.654s-6.393,13.157-6.393,13.157s-5.282-0.211-10.928-3.093
				c-5.648-2.881-9.33-3.9-10.354-4.303c-1.025-0.404-2.631-2.975-3.404-4.73c0,0-3.471-3.679-1.303-5.49
				c0,0,2.37-2.086,5.715,0.941l2.982,3.617c0,0,5.025,0.043,5.773-0.617l0.933-0.824c0,0-0.877-7.958-0.526-8.156
				c0.351-0.2-3.074,0.439-3.871-0.713c-0.794-1.152-1.123,0.248-1.123,0.248s-4.67,4.191-5.472,4.148
				C151.216,109.892,150.102,110.877,149.576,109.78z"/>
			<path fill="#A09E9E" d="M152.131,118.624c1.041,1.301,15.905,3.812,17.858,1.756c1.952-2.055,1.74-3.423-0.457-4.029
				c-2.197-0.607-5.777-1.9-5.777-1.9l10.95,1.309c0,0-0.836-5.32-2.757-9.973c-1.923-4.652-9.038-7.393-9.038-7.393
				s2.275,0.016,4.836,0.073c1.582,0.214,3.232-0.07,4.625,1.507c0.748,0.926,1.325,2.234,2.615,4.613
				c2.461,4.537,5.884,9.981,5.732,10.753c-0.152,0.772-6.379,13.609-6.379,13.609s-4.96-0.46-7.504-1.628
				c-1.996-0.785-11.447-5.021-13.777-5.768c-1.327-0.746-3.445-4.15-4.615-6.35C147.146,113.441,151.094,117.325,152.131,118.624z"
				/>
			<polygon fill="#7F7F7F" points="172.984,129.595 177.006,122.054 188.058,127.919 184.403,135.467 			"/>
			<polygon fill="#4C4C4D" points="180.865,114.753 177.006,122.054 188.058,127.919 191.968,119.923 			"/>
		</g>
		<g>
			<path fill="#93928F" d="M140.66,108.401l35.251,4.587c0,0,0.935,0.296,1.079,1.571c-0.429,1.209-1.408,1.285-1.408,1.285
				l-35.372-3.521"/>
			<g>
				<g>
					<polygon fill="#C7CACC" points="140.165,112.273 135.993,109.807 140.616,108.351 					"/>
				</g>
				<polyline fill="#1E2021" points="136.873,110.327 135.993,109.807 136.969,109.501 				"/>
			</g>
			<polygon fill="#4C4C4D" points="140.834,108.425 156.209,110.423 140.666,108.968 			"/>
			<polygon fill="#4C4C4D" points="176.095,112.942 160.726,111.013 176.122,113.511 176.631,113.549 			"/>
			<polygon fill="#4C4C4D" points="175.842,115.854 160.427,114.337 175.994,115.307 176.498,115.38 			"/>
			<polygon fill="#4C4C4D" points="140.3,112.382 155.732,113.876 140.258,111.813 			"/>
			<polygon fill="#4C4C4D" points="140.285,110.733 155.719,112.226 140.244,110.165 			"/>
			<polygon fill="#4C4C4D" points="176.689,114.204 161.271,112.712 176.732,114.772 			"/>
			<path fill="none" stroke="#FFFFFF" stroke-width="0.4984" stroke-linecap="round" stroke-miterlimit="10" d="M140.21,112.323
				c0,0,0.042-0.567,0.226-1.959c0.184-1.395,0.225-1.963,0.225-1.963"/>
		</g>
		<g>
			<path fill="#D3D2D1" d="M156.58,115.666l-2.68-3.882c-3.346-3.027-5.715-0.942-5.715-0.942c-2.168,1.812,0.686,4.253,0.686,4.253
				l3.229,0.314L156.58,115.666z"/>
			<path fill="#A09E9E" d="M163.189,108.192c-0.043-1.449-0.078-1.906,0.039-1.898c0,0-3.51,0.824-4.619-1.117
				c-1.313,1.941-3.035,5.029-5.605,5.136c-3.602,0.15-3.428-0.532-3.428-0.532s7.275-4.968,7.986-7.047
				c0.715-2.078,3.752,0.39,3.822,0.578c0.07,0.189,2.137,0.246,3.209,0.408c1.074,0.161,0.645,7.078,0.645,7.078l-0.03,0.797
				l-1.828-0.238L163.189,108.192z"/>
			<path fill="#E7AB98" d="M163.66,114.544"/>
			<g>
				<path fill="#BCBBBB" d="M148.267,114.632c-1.18-1.785-0.705-2.994-0.53-3.325c0.159-0.299,0.341-0.434,0.419-0.434
					c0.708,0.274,1.398,1.858,1.188,2.693c-0.006-0.046-0.062-0.056-0.117-0.056C148.712,113.511,148.36,114.374,148.267,114.632z"
					/>
				<path fill="#787878" d="M148.155,110.91h0.003c0.66,0.26,1.316,1.735,1.165,2.573c-0.032-0.007-0.065-0.01-0.098-0.01
					c-0.497,0-0.843,0.756-0.968,1.077c-1.118-1.735-0.66-2.904-0.488-3.227C147.924,111.031,148.098,110.91,148.155,110.91
					 M148.155,110.837c-0.326,0-1.469,1.527,0.122,3.877c0,0,0.377-1.167,0.948-1.167c0.05,0,0.101,0.009,0.153,0.028
					c0.207-0.822-0.453-2.442-1.193-2.733C148.177,110.838,148.166,110.837,148.155,110.837L148.155,110.837z"/>
			</g>
			<path fill="#956E86" d="M184.236,134.977"/>
		</g>
	</g>
</g>
<g>
	
		<polyline fill="#4C4C4D" stroke="#171617" stroke-width="0.405" stroke-linecap="round" stroke-linejoin="round" stroke-miterlimit="10" points="
		85.86,71.882 88.185,71.82 93.62,80.545 93.292,84.147 	"/>
	<path fill="#4C4C4D" stroke="#4C4C4D" stroke-width="0.405" stroke-miterlimit="10" d="M28.312,146.283l4.657,3.207
		c0,0,0.506,0.135,1.316,0c0.81-0.134,47.116-11.252,47.116-11.252v-0.988l-9.883-4.484l-21.54-22.121l-20.417,16.302l-3.781,16.335
		L28.312,146.283z"/>
	<linearGradient id="SVGID_4_" gradientUnits="userSpaceOnUse" x1="28.8184" y1="138.2383" x2="80.8857" y2="138.2383">
		<stop  offset="0.1835" style="stop-color:#020202"/>
		<stop  offset="1" style="stop-color:#FFFFFF"/>
	</linearGradient>
	<path fill="url(#SVGID_4_)" d="M28.818,145.79l3.635,2.476c0,0,0.642,0.135,1.992,0s46.44-11.023,46.44-11.023l-9.653-4.486
		l-26.796-2.467l-11.982-2.139L28.818,145.79z"/>
	<polygon fill="#CECBCD" points="57.17,110.645 71.748,116.314 49.979,119.812 42.858,117.09 41.373,113.884 	"/>
	<path fill="#F4F4F6" stroke="#444544" stroke-width="0.405" stroke-miterlimit="10" d="M49.821,141.133"/>
	<polygon fill="#9A9A9D" points="49.821,141.133 49.979,119.812 41.373,116.314 38.268,134.114 	"/>
	<polygon fill="#E3E4E5" points="49.821,141.133 49.979,119.812 71.748,116.314 71.479,135.652 	"/>
	<path fill="none" stroke="#FFFFFF" stroke-width="0.405" stroke-miterlimit="10" d="M54.086,123.469
		c-0.081,0.015-0.169-0.098-0.196-0.249l0,0c-0.028-0.152,0.016-0.288,0.096-0.303l14.386-2.602c0.081-0.014,0.169,0.097,0.197,0.25
		l0,0c0.028,0.151-0.016,0.286-0.097,0.3"/>
	
		<line fill="none" stroke="#4C4C4D" stroke-width="0.2025" stroke-miterlimit="10" x1="68.826" y1="120.598" x2="71.748" y2="120.064"/>
	<path fill="none" stroke="#0F0D0D" stroke-width="0.1012" stroke-miterlimit="10" d="M71.479,135.924l-20.37,4.922
		c0,0-0.971,0.181-1.298,0.181c-0.328,0-1.248-0.509-1.248-0.509l-8.708-5.067"/>
	<path fill="#0F0D0D" d="M68.569,120.639c0.028,0.15-0.016,0.285-0.097,0.301l-14.385,2.602c-0.081,0.014-0.169-0.097-0.196-0.248
		l0,0c-0.028-0.152,0.016-0.288,0.096-0.302l14.386-2.602C68.453,120.375,68.541,120.486,68.569,120.639L68.569,120.639z"/>
	<path fill="#F5F6F8" d="M54.932,123.272c0,0,1.427,2.784,1.427,3.595c0,0,4.138-0.879,4.667-0.879s8.562-1.619,8.562-1.619
		l-1.753-3.43L54.932,123.272z"/>
	
		<line fill="none" stroke="#FFFFFF" stroke-width="0.405" stroke-miterlimit="10" x1="49.979" y1="119.812" x2="49.979" y2="140.783"/>
	<path fill="none" stroke="#4C4C4D" stroke-width="0.2025" stroke-miterlimit="10" d="M40.513,119.801l9.435,4.183
		c0,0,2.789-0.539,3.7-0.69"/>
	
		<ellipse fill="none" stroke="#9A9A9D" stroke-width="0.1738" stroke-miterlimit="10" cx="51.658" cy="132.766" rx="1.081" ry="1.263"/>
	<ellipse fill="#FFFFFF" cx="51.696" cy="132.766" rx="1.08" ry="1.263"/>
	
		<ellipse fill="none" stroke="#899596" stroke-width="0.1012" stroke-miterlimit="10" cx="51.598" cy="136.76" rx="1.118" ry="1.288"/>
	
		<ellipse fill="none" stroke="#9A9A9D" stroke-width="0.2025" stroke-miterlimit="10" cx="51.8" cy="136.721" rx="0.461" ry="0.531"/>
	
		<ellipse fill="none" stroke="#C4C6C6" stroke-width="0.1668" stroke-miterlimit="10" cx="51.846" cy="136.721" rx="0.461" ry="0.531"/>
	
		<ellipse fill="none" stroke="#C4C6C6" stroke-width="0.2025" stroke-miterlimit="10" cx="51.719" cy="136.721" rx="1.119" ry="1.291"/>
	<polygon opacity="0.2" fill="#4C4C4D" stroke="#4C4C4D" stroke-width="0.405" stroke-miterlimit="10" points="43.716,117.267 
		60.085,111.779 57.826,110.392 41.778,115.229 41.778,116.871 	"/>
	<path fill="#4C4C4D" stroke="#4C4C4D" stroke-width="0.405" stroke-miterlimit="10" d="M19.3,99.507c0,0,12.353,4.961,15.086,5.569
		c2.734,0.607,3.081,0,3.081,0l40.199-0.203l0.562,2.511c0,0-11.632,1.282-22.087,3.97c-8.559,2.199-16.33,4.668-16.285,13.213
		v19.128l-3.979,0.786v-36.873c-0.775-0.305-19.614-7.696-19.614-7.696L19.3,99.507z"/>
	<g>
		
			<polygon fill="#4C4C4D" stroke="#FFFFFF" stroke-width="0.405" stroke-linecap="round" stroke-linejoin="round" stroke-miterlimit="10" points="
			53.427,87.476 56.4,87.218 54.907,84.432 51.957,84.685 		"/>
		
			<polygon fill="#4C4C4D" stroke="#FFFFFF" stroke-width="0.405" stroke-linecap="round" stroke-linejoin="round" stroke-miterlimit="10" points="
			54.907,84.432 53.625,82.038 50.674,82.247 51.957,84.685 		"/>
		
			<polygon fill="#4C4C4D" stroke="#FFFFFF" stroke-width="0.405" stroke-linecap="round" stroke-linejoin="round" stroke-miterlimit="10" points="
			48.788,84.957 51.957,84.685 50.674,82.247 47.438,82.477 		"/>
		
			<polygon fill="#4C4C4D" stroke="#FFFFFF" stroke-width="0.405" stroke-linecap="round" stroke-linejoin="round" stroke-miterlimit="10" points="
			44.578,82.667 47.438,82.477 45.925,79.84 43.321,80.068 		"/>
		
			<polygon fill="#4C4C4D" stroke="#FFFFFF" stroke-width="0.405" stroke-linecap="round" stroke-linejoin="round" stroke-miterlimit="10" points="
			48.788,84.957 50.304,87.747 53.427,87.476 51.957,84.685 		"/>
		
			<polygon fill="#4C4C4D" stroke="#FFFFFF" stroke-width="0.405" stroke-linecap="round" stroke-linejoin="round" stroke-miterlimit="10" points="
			50.574,82.247 49.232,79.448 45.925,79.652 47.438,82.477 		"/>
		
			<polygon fill="#4C4C4D" stroke="#FFFFFF" stroke-width="0.405" stroke-linecap="round" stroke-linejoin="round" stroke-miterlimit="10" points="
			52.107,73.832 57.486,73.578 54.76,68.731 49.463,68.963 		"/>
		
			<polygon fill="#4C4C4D" stroke="#FFFFFF" stroke-width="0.405" stroke-linecap="round" stroke-linejoin="round" stroke-miterlimit="10" points="
			45.819,85.235 47.219,88.13 50.304,87.747 48.788,84.957 		"/>
		
			<polygon fill="#4C4C4D" stroke="#FFFFFF" stroke-width="0.405" stroke-linecap="round" stroke-linejoin="round" stroke-miterlimit="10" points="
			54.76,68.731 52.104,63.888 46.828,63.991 49.463,68.963 		"/>
		
			<polygon fill="#4C4C4D" stroke="#FFFFFF" stroke-width="0.405" stroke-linecap="round" stroke-linejoin="round" stroke-miterlimit="10" points="
			47.438,82.477 44.578,82.667 45.819,85.235 48.788,84.957 		"/>
		
			<polygon fill="#4C4C4D" stroke="#FFFFFF" stroke-width="0.405" stroke-linecap="round" stroke-linejoin="round" stroke-miterlimit="10" points="
			40.31,69.366 49.463,68.963 46.828,63.991 40.737,64.232 43.202,69.062 40.737,64.232 28.578,64.488 31.271,70.102 40.31,69.366 
					"/>
		
			<polygon fill="#4C4C4D" stroke="#FFFFFF" stroke-width="0.405" stroke-linecap="round" stroke-linejoin="round" stroke-miterlimit="10" points="
			50.919,82.39 53.871,82.181 52.474,79.574 53.871,82.181 56.646,81.984 53.871,82.181 55.152,84.575 57.978,84.332 55.212,79.239 
			49.46,79.618 		"/>
		
			<polyline fill="#49C4D9" stroke="#FFFFFF" stroke-width="0.405" stroke-linecap="round" stroke-linejoin="round" stroke-miterlimit="10" points="
			52.107,73.832 49.463,68.963 40.31,69.366 45.276,79.692 54.966,79.095 52.107,73.832 		"/>
		
			<polygon fill="#4C4C4D" stroke="#FFFFFF" stroke-width="0.405" stroke-linecap="round" stroke-linejoin="round" stroke-miterlimit="10" points="
			52.107,73.832 54.966,79.095 60.39,78.738 57.486,73.578 		"/>
		
			<polygon fill="#4C4C4D" stroke="#FFFFFF" stroke-width="0.405" stroke-linecap="round" stroke-linejoin="round" stroke-miterlimit="10" points="
			56.4,87.218 56.4,87.218 56.4,87.218 57.733,89.707 61.05,89.345 57.733,84.189 54.907,84.432 		"/>
		
			<polygon fill="#ED2578" stroke="#FFFFFF" stroke-width="0.405" stroke-linecap="round" stroke-linejoin="round" stroke-miterlimit="10" points="
			45.545,85.189 38.912,86 41.765,91.929 48.377,91.101 		"/>
		
			<polygon fill="#4C4C4D" stroke="#FFFFFF" stroke-width="0.405" stroke-linecap="round" stroke-linejoin="round" stroke-miterlimit="10" points="
			45.317,79.692 40.31,69.366 31.271,70.102 36.227,80.545 		"/>
		
			<polygon fill="#4C4C4D" stroke="#FFFFFF" stroke-width="0.405" stroke-linecap="round" stroke-linejoin="round" stroke-miterlimit="10" points="
			42.998,79.954 36.307,80.545 38.891,86 45.625,85.189 		"/>
		
			<polygon fill="#4C4C4D" stroke="#FFFFFF" stroke-width="0.405" stroke-linecap="round" stroke-linejoin="round" stroke-miterlimit="10" points="
			53.427,87.476 54.907,89.97 57.733,89.648 56.4,87.218 		"/>
		
			<polygon fill="#4C4C4D" stroke="#FFFFFF" stroke-width="0.405" stroke-linecap="round" stroke-linejoin="round" stroke-miterlimit="10" points="
			50.304,87.747 50.304,87.747 50.304,87.747 47.397,88.042 48.71,90.795 54.907,90.104 53.427,87.476 		"/>
	</g>
	<g>
		
			<polygon fill="#4C4C4D" stroke="#FFFFFF" stroke-width="0.405" stroke-linecap="round" stroke-linejoin="round" stroke-miterlimit="10" points="
			80.489,92.107 83.461,91.85 81.97,89.063 79.019,89.316 		"/>
		
			<polygon fill="#4C4C4D" stroke="#FFFFFF" stroke-width="0.405" stroke-linecap="round" stroke-linejoin="round" stroke-miterlimit="10" points="
			81.97,89.063 80.687,86.669 77.736,86.879 79.019,89.316 		"/>
		
			<polygon fill="#4C4C4D" stroke="#FFFFFF" stroke-width="0.405" stroke-linecap="round" stroke-linejoin="round" stroke-miterlimit="10" points="
			75.849,89.588 79.019,89.316 77.736,86.879 74.5,87.108 		"/>
		
			<polygon fill="#4C4C4D" stroke="#FFFFFF" stroke-width="0.405" stroke-linecap="round" stroke-linejoin="round" stroke-miterlimit="10" points="
			71.797,87.299 74.5,87.108 72.987,84.324 70.296,84.5 		"/>
		
			<polygon fill="#4C4C4D" stroke="#FFFFFF" stroke-width="0.405" stroke-linecap="round" stroke-linejoin="round" stroke-miterlimit="10" points="
			75.849,89.588 77.366,92.378 80.489,92.107 79.019,89.316 		"/>
		
			<polygon fill="#4C4C4D" stroke="#FFFFFF" stroke-width="0.405" stroke-linecap="round" stroke-linejoin="round" stroke-miterlimit="10" points="
			77.736,86.879 76.276,84.106 72.987,84.324 74.5,87.108 		"/>
		
			<polygon fill="#4C4C4D" stroke="#FFFFFF" stroke-width="0.405" stroke-linecap="round" stroke-linejoin="round" stroke-miterlimit="10" points="
			79.169,78.463 85.237,78.209 82.269,73.362 76.525,73.595 		"/>
		
			<polygon fill="#4C4C4D" stroke="#FFFFFF" stroke-width="0.405" stroke-linecap="round" stroke-linejoin="round" stroke-miterlimit="10" points="
			73.15,89.82 74.648,92.614 77.366,92.378 75.849,89.588 		"/>
		
			<polygon fill="#4C4C4D" stroke="#FFFFFF" stroke-width="0.405" stroke-linecap="round" stroke-linejoin="round" stroke-miterlimit="10" points="
			82.269,73.362 79.165,68.357 73.89,68.42 76.525,73.595 		"/>
		
			<polygon fill="#4C4C4D" stroke="#FFFFFF" stroke-width="0.405" stroke-linecap="round" stroke-linejoin="round" stroke-miterlimit="10" points="
			74.5,87.108 71.797,87.299 73.15,89.82 75.849,89.588 		"/>
		
			<polyline fill="#4C4C4D" stroke="#FFFFFF" stroke-width="0.405" stroke-linecap="round" stroke-linejoin="round" stroke-miterlimit="10" points="
			58.067,74.391 67.372,73.997 64.876,68.792 67.372,73.997 76.525,73.595 73.89,68.46 67.799,68.743 70.264,73.694 67.799,68.743 
			54.89,68.963 		"/>
		
			<polygon fill="#4C4C4D" stroke="#FFFFFF" stroke-width="0.405" stroke-linecap="round" stroke-linejoin="round" stroke-miterlimit="10" points="
			77.736,86.879 80.687,86.669 79.29,84.062 80.687,86.669 83.461,86.473 80.687,86.669 81.97,89.063 84.795,88.82 82.028,83.728 
			76.276,84.106 		"/>
		
			<polygon fill="#4C4C4D" stroke="#FFFFFF" stroke-width="0.405" stroke-linecap="round" stroke-linejoin="round" stroke-miterlimit="10" points="
			79.056,78.469 79.169,78.463 76.525,73.595 67.372,73.997 72.987,84.324 76.276,84.106 76.252,84.062 76.276,84.106 
			82.028,83.728 79.169,78.463 		"/>
		
			<polygon fill="#4C4C4D" stroke="#FFFFFF" stroke-width="0.405" stroke-linecap="round" stroke-linejoin="round" stroke-miterlimit="10" points="
			79.193,78.463 82.028,83.728 88.343,83.371 85.237,78.209 		"/>
		
			<polygon fill="#4C4C4D" stroke="#FFFFFF" stroke-width="0.405" stroke-linecap="round" stroke-linejoin="round" stroke-miterlimit="10" points="
			83.461,91.85 83.461,91.85 83.461,91.85 84.936,94.601 87.763,94.287 84.795,88.82 81.97,89.063 		"/>
		
			<polygon fill="#36479D" stroke="#FFFFFF" stroke-width="0.405" stroke-linecap="round" stroke-linejoin="round" stroke-miterlimit="10" points="
			74.648,92.614 74.648,92.614 73.15,89.82 66.586,90.383 69.61,96.312 76.236,95.572 74.648,92.614 		"/>
		
			<polyline fill="#45B649" stroke="#FFFFFF" stroke-width="0.405" stroke-linecap="round" stroke-linejoin="round" stroke-miterlimit="10" points="
			70.296,84.5 72.987,84.324 67.372,73.997 57.986,74.391 63.805,84.929 70.296,84.5 		"/>
		
			<polygon fill="#4C4C4D" stroke="#FFFFFF" stroke-width="0.405" stroke-linecap="round" stroke-linejoin="round" stroke-miterlimit="10" points="
			71.797,87.299 71.797,87.299 71.797,87.299 70.296,84.5 63.805,84.929 66.586,90.383 73.15,89.82 		"/>
		
			<polygon fill="#4C4C4D" stroke="#FFFFFF" stroke-width="0.405" stroke-linecap="round" stroke-linejoin="round" stroke-miterlimit="10" points="
			80.489,92.107 81.976,94.932 84.936,94.601 83.461,91.85 		"/>
		
			<polygon fill="#4C4C4D" stroke="#FFFFFF" stroke-width="0.405" stroke-linecap="round" stroke-linejoin="round" stroke-miterlimit="10" points="
			77.366,92.378 77.366,92.378 77.366,92.378 74.648,92.614 76.236,95.572 81.976,94.932 80.489,92.107 		"/>
	</g>
	<path fill="#13100F" d="M78.227,59.513L19.908,60.83l21.482,45.891l60.648-7.807L78.227,59.513z M26.894,63.56l49.431-1.212
		l20.221,32.925l-52.216,6.267L26.894,63.56z"/>
	<g>
		<path fill="#4C4C4D" d="M20.223,61.025l57.894-1.307l24.475,39.115l-61.08,7.749L20.223,61.025z M25.726,62.089
			c-0.068,0.001-0.131,0.037-0.167,0.095s-0.041,0.13-0.013,0.192l17.972,39.375c0.033,0.073,0.105,0.118,0.184,0.118
			c0.008,0,54.092-6.484,54.092-6.484c0.068-0.008,0.128-0.051,0.158-0.113c0.03-0.062,0.026-0.136-0.011-0.195L76.923,61.214
			c-0.037-0.06-0.102-0.096-0.172-0.096C76.75,61.118,25.726,62.089,25.726,62.089z"/>
		<path fill="#4C4C4D" d="M78.006,59.923l24.246,38.749l-60.62,7.691L20.538,61.221L78.006,59.923 M43.702,102.072
			c0.016,0,0.032-0.001,0.048-0.003l54.067-6.483c0.138-0.017,0.257-0.102,0.317-0.227c0.06-0.125,0.052-0.271-0.021-0.389
			L77.096,61.107c-0.074-0.119-0.204-0.191-0.344-0.191c-0.002,0-0.005,0-0.008,0l-51.021,0.971
			c-0.136,0.002-0.262,0.074-0.335,0.189c-0.073,0.116-0.083,0.26-0.026,0.384l17.972,39.375
			C43.4,101.98,43.545,102.072,43.702,102.072 M78.227,59.513L19.908,60.83l21.482,45.972l61.541-7.808L78.227,59.513L78.227,59.513
			z M43.702,101.667L25.73,62.292l51.021-0.971L97.77,95.184L43.702,101.667L43.702,101.667z"/>
	</g>
	<path fill="#93928F" d="M19.908,60.83l-1.721,2.734l21.161,45.562c0,0,0.141,0.81,1.761,0.911s15.074-2.511,17.865-2.105
		c2.791,0.404,2.447,0.992,2.447,0.992l15.289-2.122c0,0,3.442-0.815,4.758-0.612c1.316,0.203-0.425-3.076,19.622-4.524l2.125-2.671
		l-61.842,7.195L19.908,60.83z"/>
	<polygon fill="#93928F" stroke="#B7B6B6" stroke-width="0.405" stroke-linejoin="round" stroke-miterlimit="10" points="
		28.312,109.024 8.771,100.418 15.656,99.507 35.877,107.607 	"/>
	<polygon fill="#93928F" stroke="#B7B6B6" stroke-width="0.405" stroke-linejoin="round" stroke-miterlimit="10" points="
		28.312,146.283 8.771,132.109 8.771,100.418 28.312,109.024 	"/>
	<polygon fill="#93928F" stroke="#B7B6B6" stroke-width="0.405" stroke-linejoin="round" stroke-miterlimit="10" points="
		35.877,144.48 28.312,146.283 28.312,109.024 35.877,107.607 	"/>
	
		<polygon fill="#4C4C4D" stroke="#FFFFFF" stroke-width="0.405" stroke-linecap="round" stroke-linejoin="round" stroke-miterlimit="10" points="
		53.474,63.991 55.651,68.357 78.312,67.613 75.914,63.259 	"/>
	
		<polygon fill="#4C4C4D" stroke="#FFFFFF" stroke-width="0.405" stroke-linecap="round" stroke-linejoin="round" stroke-miterlimit="10" points="
		42.448,93.391 66.706,90.619 69.559,96.312 45.529,99.81 	"/>
	<polygon stroke="#FFFFFF" stroke-width="0.1012" stroke-miterlimit="10" points="85.982,71.882 87.805,71.82 93.271,80.646 
		91.652,80.853 	"/>
	<polygon fill="#171617" points="93.023,83.157 93.271,80.646 91.652,80.853 	"/>
</g>
</svg>
