<?xml version="1.0" encoding="utf-8"?>
<!-- Generator: Adobe Illustrator 16.0.0, SVG Export Plug-In . SVG Version: 6.00 Build 0)  -->
<!DOCTYPE svg PUBLIC "-//W3C//DTD SVG 1.1//EN" "http://www.w3.org/Graphics/SVG/1.1/DTD/svg11.dtd">
<svg version="1.1" id="Layer_1" xmlns="http://www.w3.org/2000/svg" xmlns:xlink="http://www.w3.org/1999/xlink" x="0px" y="0px"
	 width="200px" height="200px" viewBox="0 0 200 200" enable-background="new 0 0 200 200" xml:space="preserve">
<g>
	
		<polyline fill="#4C4C4D" stroke="#171617" stroke-width="0.81" stroke-linecap="round" stroke-linejoin="round" stroke-miterlimit="10" points="
		159.832,34.293 164.479,34.169 175.35,51.621 174.695,58.823 	"/>
	<path fill="#4C4C4D" stroke="#4C4C4D" stroke-width="0.81" stroke-miterlimit="10" d="M44.736,183.099l9.315,6.411
		c0,0,1.013,0.271,2.633,0c1.62-0.269,94.23-22.504,94.23-22.504v-1.975l-19.765-8.971l-43.081-44.243L47.234,144.42l-7.561,32.672
		L44.736,183.099z"/>
	<linearGradient id="SVGID_1_" gradientUnits="userSpaceOnUse" x1="45.748" y1="167.0068" x2="149.8828" y2="167.0068">
		<stop  offset="0.1835" style="stop-color:#020202"/>
		<stop  offset="1" style="stop-color:#FFFFFF"/>
	</linearGradient>
	<path fill="url(#SVGID_1_)" d="M45.748,182.109l7.271,4.951c0,0,1.283,0.271,3.982,0c2.7-0.269,92.881-22.048,92.881-22.048
		l-19.307-8.972l-53.594-4.935l-23.963-4.274L45.748,182.109z"/>
	<polygon fill="#CECBCD" points="102.452,111.817 131.607,123.158 88.068,130.155 73.827,124.709 70.858,118.299 	"/>
	<path fill="#F4F4F6" stroke="#444544" stroke-width="0.81" stroke-miterlimit="10" d="M87.753,172.795"/>
	<polygon fill="#9A9A9D" points="87.753,172.795 88.068,130.155 70.858,123.158 64.648,158.756 	"/>
	<polygon fill="#E3E4E5" points="87.753,172.795 88.068,130.155 131.607,123.158 131.068,161.836 	"/>
	<path fill="none" stroke="#FFFFFF" stroke-width="0.81" stroke-miterlimit="10" d="M96.285,137.466
		c-0.163,0.028-0.339-0.194-0.394-0.499l0,0c-0.055-0.303,0.033-0.573,0.195-0.602l28.77-5.203c0.162-0.029,0.34,0.193,0.394,0.498
		l0,0c0.056,0.302-0.031,0.572-0.194,0.602"/>
	
		<line fill="none" stroke="#4C4C4D" stroke-width="0.405" stroke-miterlimit="10" x1="125.764" y1="131.725" x2="131.607" y2="130.656"/>
	<path fill="none" stroke="#0F0D0D" stroke-width="0.2025" stroke-miterlimit="10" d="M131.068,162.376l-40.74,9.843
		c0,0-1.941,0.363-2.596,0.363s-2.496-1.018-2.496-1.018L67.824,161.43"/>
	<path fill="#0F0D0D" d="M125.249,131.806c0.056,0.302-0.031,0.573-0.194,0.603l-28.77,5.203c-0.163,0.028-0.339-0.193-0.394-0.497
		l0,0c-0.055-0.304,0.033-0.573,0.195-0.604l28.77-5.203C125.018,131.278,125.195,131.502,125.249,131.806L125.249,131.806z"/>
	<path fill="#F5F6F8" d="M97.975,137.074c0,0,2.852,5.568,2.852,7.188c0,0,8.278-1.754,9.335-1.754c1.061,0,17.125-3.24,17.125-3.24
		l-3.506-6.861L97.975,137.074z"/>
	
		<line fill="none" stroke="#FFFFFF" stroke-width="0.81" stroke-miterlimit="10" x1="88.068" y1="130.155" x2="88.068" y2="172.097"/>
	<path fill="none" stroke="#4C4C4D" stroke-width="0.405" stroke-miterlimit="10" d="M69.135,130.131l18.872,8.365
		c0,0,5.578-1.078,7.4-1.382"/>
	
		<ellipse fill="none" stroke="#9A9A9D" stroke-width="0.3475" stroke-miterlimit="10" cx="91.427" cy="156.061" rx="2.162" ry="2.526"/>
	<ellipse fill="#FFFFFF" cx="91.503" cy="156.061" rx="2.162" ry="2.526"/>
	
		<ellipse fill="none" stroke="#899596" stroke-width="0.2025" stroke-miterlimit="10" cx="91.307" cy="164.051" rx="2.238" ry="2.58"/>
	
		<ellipse fill="none" stroke="#9A9A9D" stroke-width="0.405" stroke-miterlimit="10" cx="91.71" cy="163.971" rx="0.922" ry="1.062"/>
	
		<ellipse fill="none" stroke="#C4C6C6" stroke-width="0.3336" stroke-miterlimit="10" cx="91.803" cy="163.971" rx="0.922" ry="1.062"/>
	
		<ellipse fill="none" stroke="#C4C6C6" stroke-width="0.405" stroke-miterlimit="10" cx="91.549" cy="163.971" rx="2.238" ry="2.581"/>
	<polygon opacity="0.2" fill="#4C4C4D" stroke="#4C4C4D" stroke-width="0.81" stroke-miterlimit="10" points="75.542,125.062 
		108.283,114.086 103.764,111.312 71.668,120.986 71.668,124.271 	"/>
	<path fill="#4C4C4D" stroke="#4C4C4D" stroke-width="0.81" stroke-miterlimit="10" d="M26.713,89.543
		c0,0,24.705,9.922,30.172,11.138c5.468,1.215,6.161,0,6.161,0l80.398-0.405l1.124,5.022c0,0-23.265,2.562-44.175,7.938
		c-17.119,4.4-32.66,9.336-32.569,26.425v38.257l-7.959,1.572v-73.748c-1.549-0.605-39.227-15.389-39.227-15.389L26.713,89.543z"/>
	<g>
		
			<polygon fill="#4C4C4D" stroke="#FFFFFF" stroke-width="0.81" stroke-linecap="round" stroke-linejoin="round" stroke-miterlimit="10" points="
			94.965,65.481 100.912,64.965 97.926,59.393 92.026,59.899 		"/>
		
			<polygon fill="#4C4C4D" stroke="#FFFFFF" stroke-width="0.81" stroke-linecap="round" stroke-linejoin="round" stroke-miterlimit="10" points="
			97.926,59.393 95.362,54.606 89.458,55.024 92.026,59.899 		"/>
		
			<polygon fill="#4C4C4D" stroke="#FFFFFF" stroke-width="0.81" stroke-linecap="round" stroke-linejoin="round" stroke-miterlimit="10" points="
			85.686,60.443 92.026,59.899 89.458,55.024 82.989,55.482 		"/>
		
			<polygon fill="#4C4C4D" stroke="#FFFFFF" stroke-width="0.81" stroke-linecap="round" stroke-linejoin="round" stroke-miterlimit="10" points="
			77.266,55.865 82.989,55.482 79.96,50.209 74.753,50.667 		"/>
		
			<polygon fill="#4C4C4D" stroke="#FFFFFF" stroke-width="0.81" stroke-linecap="round" stroke-linejoin="round" stroke-miterlimit="10" points="
			85.686,60.443 88.72,66.022 94.965,65.481 92.026,59.899 		"/>
		
			<polygon fill="#4C4C4D" stroke="#FFFFFF" stroke-width="0.81" stroke-linecap="round" stroke-linejoin="round" stroke-miterlimit="10" points="
			89.261,55.024 86.577,49.426 79.96,49.833 82.989,55.482 		"/>
		
			<polygon fill="#4C4C4D" stroke="#FFFFFF" stroke-width="0.81" stroke-linecap="round" stroke-linejoin="round" stroke-miterlimit="10" points="
			92.326,38.193 103.084,37.685 97.63,27.991 87.037,28.456 		"/>
		
			<polygon fill="#4C4C4D" stroke="#FFFFFF" stroke-width="0.81" stroke-linecap="round" stroke-linejoin="round" stroke-miterlimit="10" points="
			79.75,61.001 82.55,66.79 88.72,66.022 85.686,60.443 		"/>
		
			<polygon fill="#4C4C4D" stroke="#FFFFFF" stroke-width="0.81" stroke-linecap="round" stroke-linejoin="round" stroke-miterlimit="10" points="
			97.63,27.991 92.319,18.305 81.767,18.512 87.037,28.456 		"/>
		
			<polygon fill="#4C4C4D" stroke="#FFFFFF" stroke-width="0.81" stroke-linecap="round" stroke-linejoin="round" stroke-miterlimit="10" points="
			82.989,55.482 77.266,55.865 79.75,61.001 85.686,60.443 		"/>
		
			<polygon fill="#4C4C4D" stroke="#FFFFFF" stroke-width="0.81" stroke-linecap="round" stroke-linejoin="round" stroke-miterlimit="10" points="
			68.732,29.261 87.037,28.456 81.767,18.512 69.586,18.995 74.514,28.655 69.586,18.995 45.266,19.505 50.654,30.733 
			68.732,29.261 		"/>
		
			<polygon fill="#4C4C4D" stroke="#FFFFFF" stroke-width="0.81" stroke-linecap="round" stroke-linejoin="round" stroke-miterlimit="10" points="
			89.95,55.31 95.853,54.892 93.059,49.675 95.853,54.892 101.402,54.499 95.853,54.892 98.417,59.679 104.068,59.194 
			98.535,49.007 87.031,49.766 		"/>
		
			<polyline fill="#49C4D9" stroke="#FFFFFF" stroke-width="0.81" stroke-linecap="round" stroke-linejoin="round" stroke-miterlimit="10" points="
			92.326,38.193 87.037,28.456 68.732,29.261 78.663,49.913 98.044,48.721 92.326,38.193 		"/>
		
			<polygon fill="#4C4C4D" stroke="#FFFFFF" stroke-width="0.81" stroke-linecap="round" stroke-linejoin="round" stroke-miterlimit="10" points="
			92.326,38.193 98.044,48.721 108.891,48.006 103.084,37.685 		"/>
		
			<polygon fill="#4C4C4D" stroke="#FFFFFF" stroke-width="0.81" stroke-linecap="round" stroke-linejoin="round" stroke-miterlimit="10" points="
			100.912,64.965 100.912,64.965 100.912,64.965 103.577,69.942 110.212,69.219 103.577,58.908 97.926,59.393 		"/>
		
			<polygon fill="#ED2578" stroke="#FFFFFF" stroke-width="0.81" stroke-linecap="round" stroke-linejoin="round" stroke-miterlimit="10" points="
			79.201,60.907 65.934,62.529 71.642,74.387 84.864,72.731 		"/>
		
			<polygon fill="#4C4C4D" stroke="#FFFFFF" stroke-width="0.81" stroke-linecap="round" stroke-linejoin="round" stroke-miterlimit="10" points="
			78.745,49.913 68.732,29.261 50.654,30.733 60.564,51.621 		"/>
		
			<polygon fill="#4C4C4D" stroke="#FFFFFF" stroke-width="0.81" stroke-linecap="round" stroke-linejoin="round" stroke-miterlimit="10" points="
			74.106,50.437 60.726,51.621 65.894,62.529 79.363,60.907 		"/>
		
			<polygon fill="#4C4C4D" stroke="#FFFFFF" stroke-width="0.81" stroke-linecap="round" stroke-linejoin="round" stroke-miterlimit="10" points="
			94.965,65.481 97.926,70.469 103.577,69.826 100.912,64.965 		"/>
		
			<polygon fill="#4C4C4D" stroke="#FFFFFF" stroke-width="0.81" stroke-linecap="round" stroke-linejoin="round" stroke-miterlimit="10" points="
			88.72,66.022 88.72,66.022 88.72,66.022 82.907,66.611 85.533,72.12 97.926,70.737 94.965,65.481 		"/>
	</g>
	<g>
		
			<polygon fill="#4C4C4D" stroke="#FFFFFF" stroke-width="0.81" stroke-linecap="round" stroke-linejoin="round" stroke-miterlimit="10" points="
			149.088,74.744 155.035,74.228 152.05,68.655 146.149,69.162 		"/>
		
			<polygon fill="#4C4C4D" stroke="#FFFFFF" stroke-width="0.81" stroke-linecap="round" stroke-linejoin="round" stroke-miterlimit="10" points="
			152.05,68.655 149.484,63.869 143.582,64.287 146.149,69.162 		"/>
		
			<polygon fill="#4C4C4D" stroke="#FFFFFF" stroke-width="0.81" stroke-linecap="round" stroke-linejoin="round" stroke-miterlimit="10" points="
			139.811,69.706 146.149,69.162 143.582,64.287 137.111,64.745 		"/>
		
			<polygon fill="#4C4C4D" stroke="#FFFFFF" stroke-width="0.81" stroke-linecap="round" stroke-linejoin="round" stroke-miterlimit="10" points="
			131.705,65.127 137.111,64.745 134.085,59.176 128.703,59.531 		"/>
		
			<polygon fill="#4C4C4D" stroke="#FFFFFF" stroke-width="0.81" stroke-linecap="round" stroke-linejoin="round" stroke-miterlimit="10" points="
			139.811,69.706 142.844,75.286 149.088,74.744 146.149,69.162 		"/>
		
			<polygon fill="#4C4C4D" stroke="#FFFFFF" stroke-width="0.81" stroke-linecap="round" stroke-linejoin="round" stroke-miterlimit="10" points="
			143.582,64.287 140.662,58.742 134.085,59.176 137.111,64.745 		"/>
		
			<polygon fill="#4C4C4D" stroke="#FFFFFF" stroke-width="0.81" stroke-linecap="round" stroke-linejoin="round" stroke-miterlimit="10" points="
			146.449,47.456 158.586,46.947 152.647,37.253 141.16,37.719 		"/>
		
			<polygon fill="#4C4C4D" stroke="#FFFFFF" stroke-width="0.81" stroke-linecap="round" stroke-linejoin="round" stroke-miterlimit="10" points="
			134.411,70.169 137.408,75.756 142.844,75.286 139.811,69.706 		"/>
		
			<polygon fill="#4C4C4D" stroke="#FFFFFF" stroke-width="0.81" stroke-linecap="round" stroke-linejoin="round" stroke-miterlimit="10" points="
			152.647,37.253 146.442,27.243 135.891,27.369 141.16,37.719 		"/>
		
			<polygon fill="#4C4C4D" stroke="#FFFFFF" stroke-width="0.81" stroke-linecap="round" stroke-linejoin="round" stroke-miterlimit="10" points="
			137.111,64.745 131.705,65.127 134.411,70.169 139.811,69.706 		"/>
		
			<polyline fill="#4C4C4D" stroke="#FFFFFF" stroke-width="0.81" stroke-linecap="round" stroke-linejoin="round" stroke-miterlimit="10" points="
			104.246,39.31 122.855,38.523 117.863,28.115 122.855,38.523 141.16,37.719 135.891,27.451 123.711,28.014 128.639,37.917 
			123.711,28.014 97.892,28.456 		"/>
		
			<polygon fill="#4C4C4D" stroke="#FFFFFF" stroke-width="0.81" stroke-linecap="round" stroke-linejoin="round" stroke-miterlimit="10" points="
			143.582,64.287 149.484,63.869 146.689,58.652 149.484,63.869 155.035,63.476 149.484,63.869 152.05,68.655 157.701,68.171 
			152.168,57.984 140.662,58.742 		"/>
		
			<polygon fill="#4C4C4D" stroke="#FFFFFF" stroke-width="0.81" stroke-linecap="round" stroke-linejoin="round" stroke-miterlimit="10" points="
			146.222,47.467 146.449,47.456 141.16,37.719 122.855,38.523 134.085,59.176 140.662,58.742 140.615,58.652 140.662,58.742 
			152.168,57.984 146.449,47.456 		"/>
		
			<polygon fill="#4C4C4D" stroke="#FFFFFF" stroke-width="0.81" stroke-linecap="round" stroke-linejoin="round" stroke-miterlimit="10" points="
			146.496,47.456 152.168,57.984 164.795,57.269 158.586,46.947 		"/>
		
			<polygon fill="#4C4C4D" stroke="#FFFFFF" stroke-width="0.81" stroke-linecap="round" stroke-linejoin="round" stroke-miterlimit="10" points="
			155.035,74.228 155.035,74.228 155.035,74.228 157.983,79.732 163.639,79.101 157.701,68.171 152.05,68.655 		"/>
		
			<polygon fill="#36479D" stroke="#FFFFFF" stroke-width="0.81" stroke-linecap="round" stroke-linejoin="round" stroke-miterlimit="10" points="
			137.408,75.756 137.408,75.756 134.411,70.169 121.285,71.295 127.332,83.153 140.584,81.674 137.408,75.756 		"/>
		
			<polyline fill="#45B649" stroke="#FFFFFF" stroke-width="0.81" stroke-linecap="round" stroke-linejoin="round" stroke-miterlimit="10" points="
			128.703,59.531 134.085,59.176 122.855,38.523 104.084,39.31 115.721,60.387 128.703,59.531 		"/>
		
			<polygon fill="#4C4C4D" stroke="#FFFFFF" stroke-width="0.81" stroke-linecap="round" stroke-linejoin="round" stroke-miterlimit="10" points="
			131.705,65.127 131.705,65.127 131.705,65.127 128.703,59.531 115.721,60.387 121.285,71.295 134.411,70.169 		"/>
		
			<polygon fill="#4C4C4D" stroke="#FFFFFF" stroke-width="0.81" stroke-linecap="round" stroke-linejoin="round" stroke-miterlimit="10" points="
			149.088,74.744 152.062,80.393 157.983,79.732 155.035,74.228 		"/>
		
			<polygon fill="#4C4C4D" stroke="#FFFFFF" stroke-width="0.81" stroke-linecap="round" stroke-linejoin="round" stroke-miterlimit="10" points="
			142.844,75.286 142.844,75.286 142.844,75.286 137.408,75.756 140.584,81.674 152.062,80.393 149.088,74.744 		"/>
	</g>
	<path fill="#13100F" d="M144.566,9.554L27.928,12.188l42.963,91.781l121.298-15.614L144.566,9.554z M41.901,17.65l98.861-2.425
		l40.439,65.851L76.77,93.609L41.901,17.65z"/>
	<g>
		<path fill="#4C4C4D" d="M28.558,12.579l115.788-2.615l48.953,78.232L71.133,103.694L28.558,12.579z M39.564,14.709
			c-0.136,0.002-0.262,0.074-0.335,0.189c-0.073,0.116-0.083,0.26-0.026,0.384l35.944,78.75c0.066,0.146,0.211,0.237,0.369,0.237
			c0.016,0,0.032,0,0.048-0.002l108.134-12.967c0.138-0.017,0.257-0.102,0.317-0.227c0.06-0.125,0.052-0.271-0.021-0.389
			l-42.035-67.727c-0.073-0.119-0.204-0.191-0.344-0.191C141.612,12.766,39.564,14.709,39.564,14.709z"/>
		<path fill="#4C4C4D" d="M144.124,10.375l48.496,77.5l-121.245,15.38L29.188,12.97L144.124,10.375 M75.516,94.674
			c0.032,0,0.064-0.002,0.097-0.006l108.135-12.967c0.274-0.033,0.514-0.204,0.634-0.453c0.119-0.25,0.104-0.543-0.042-0.778
			l-42.035-67.727c-0.148-0.238-0.408-0.383-0.688-0.383c-0.005,0-0.011,0-0.016,0L39.557,14.304
			c-0.272,0.005-0.524,0.147-0.67,0.378s-0.165,0.52-0.051,0.768L74.779,94.2C74.912,94.491,75.202,94.674,75.516,94.674
			 M144.566,9.554L27.928,12.188l42.963,91.944l123.087-15.614L144.566,9.554L144.566,9.554z M75.516,93.864l-35.944-78.75
			l102.043-1.943l42.035,67.727L75.516,93.864L75.516,93.864z"/>
	</g>
	<path fill="#93928F" d="M27.928,12.188l-3.442,5.467l42.323,91.125c0,0,0.281,1.62,3.521,1.823
		c3.24,0.201,30.146-5.021,35.729-4.213c5.584,0.811,4.895,1.985,4.895,1.985l30.578-4.243c0,0,6.885-1.63,9.517-1.225
		c2.634,0.405-0.853-6.152,39.243-9.05l4.252-5.339l-123.685,14.39L27.928,12.188z"/>
	<polygon fill="#93928F" stroke="#B7B6B6" stroke-width="0.81" stroke-linejoin="round" stroke-miterlimit="10" points="
		44.736,108.578 5.653,91.365 19.423,89.543 59.865,105.742 	"/>
	<polygon fill="#93928F" stroke="#B7B6B6" stroke-width="0.81" stroke-linejoin="round" stroke-miterlimit="10" points="
		44.736,183.099 5.653,154.748 5.653,91.365 44.736,108.578 	"/>
	<polygon fill="#93928F" stroke="#B7B6B6" stroke-width="0.81" stroke-linejoin="round" stroke-miterlimit="10" points="
		59.865,179.49 44.736,183.099 44.736,108.578 59.865,105.742 	"/>
	
		<polygon fill="#4C4C4D" stroke="#FFFFFF" stroke-width="0.81" stroke-linecap="round" stroke-linejoin="round" stroke-miterlimit="10" points="
		95.06,18.512 99.413,27.243 144.735,25.755 139.939,17.048 	"/>
	
		<polygon fill="#4C4C4D" stroke="#FFFFFF" stroke-width="0.81" stroke-linecap="round" stroke-linejoin="round" stroke-miterlimit="10" points="
		73.007,77.311 121.524,71.767 127.229,83.153 79.168,90.149 	"/>
	<polygon stroke="#FFFFFF" stroke-width="0.2025" stroke-miterlimit="10" points="160.074,34.293 163.72,34.169 174.655,51.822 
		171.414,52.236 	"/>
	<polygon fill="#171617" points="174.158,56.843 174.655,51.822 171.414,52.236 	"/>
</g>
</svg>
