<?xml version="1.0" encoding="utf-8"?>
<!-- Generator: Adobe Illustrator 16.0.0, SVG Export Plug-In . SVG Version: 6.00 Build 0)  -->
<!DOCTYPE svg PUBLIC "-//W3C//DTD SVG 1.1//EN" "http://www.w3.org/Graphics/SVG/1.1/DTD/svg11.dtd">
<svg version="1.1" id="Layer_1" xmlns="http://www.w3.org/2000/svg" xmlns:xlink="http://www.w3.org/1999/xlink" x="0px" y="0px"
	 width="200px" height="200px" viewBox="0 0 200 200" enable-background="new 0 0 200 200" xml:space="preserve">
<g>
	<polygon fill="#363638" points="136.969,109.564 154.99,132.074 154.99,120.42 142.105,101.264 138.203,102.722 	"/>
	<polygon fill="#393939" stroke="#393939" stroke-width="0.405" stroke-linejoin="round" stroke-miterlimit="10" points="
		89.787,141.074 93.651,162.221 72.247,126.946 	"/>
	<path fill="#9B9EA7" d="M119.41,64.061c0,0,13.306,9.784,14.318,11.809c1.012,2.025,0.712,5.873,0.712,5.873L119.41,64.061z"/>
	<polygon fill="#585859" points="146.724,102.722 158.435,115.561 161.27,135.607 154.99,128.355 154.99,120.42 156.611,119.609 	
		"/>
	<path fill="none" stroke="#09080A" stroke-width="3.24" stroke-linejoin="round" stroke-miterlimit="10" d="M40.616,55.011
		c0,0-3.644,13.569,7.681,14.225"/>
	
		<path fill="#4C4C4D" stroke="#4C4C4D" stroke-width="0.81" stroke-linecap="round" stroke-linejoin="round" stroke-miterlimit="10" d="
		M24.495,43.905c0,0-12.473,31.149-10.988,45.79c0,0,5.67,21.66,14.31,25.98c0,0,10.525,1.081,11-4.05s-3.17-16.2-0.875-25.649
		c0,0,5.129-12.814,9.854-15.123c0,0-11.646-1.617-7.983-16.332L24.495,43.905z"/>
	<path fill="#5A5A59" stroke="#2D2D2D" stroke-width="0.81" stroke-linejoin="round" stroke-miterlimit="10" d="M41.453,55.905
		c0,0-1.496,12.675,7.154,12.675c6.198,0,6.957-8.335,6.957-8.335"/>
	<path fill="#757576" d="M43.772,52.601c0,0-1.218,14.505,5.831,14.505c5.051,0,5.669-9.54,5.669-9.54"/>
	
		<path fill="#4C4C4D" stroke="#4C4C4D" stroke-width="0.81" stroke-linecap="round" stroke-linejoin="round" stroke-miterlimit="10" d="
		M53.386,61.195c0,0-40.393-17.149-39.177-34.583C15.424,9.178,37.861,5.945,45.799,5.473c7.938-0.472,15.124,0.119,21.87,4.366
		s27.137,16.772,27.137,16.772s1.081,2.623,0.376,5.091c-0.499,1.748-2.604,7.399-7.965,11.34
		C74.987,52.035,53.386,61.195,53.386,61.195z"/>
	<path fill="#09080A" d="M84.12,27.298c0,0,4.46,4.137-0.788,8.313c-1.979,1.575-14.704,12.22-27.768,20.209
		c0,0-1.102,1.046-0.722,2.396c0.379,1.35,4.566,0.228,4.566,0.228s17.224-9.266,21.942-12.907c4.719-3.642,9.319-9.439,9.319-9.439
		s4.833-5.478,2.487-8.122C91.003,25.55,84.12,27.298,84.12,27.298z"/>
	<path fill="#8B8B8A" stroke="#757576" stroke-width="0.81" stroke-miterlimit="10" d="M55.564,55.905
		c0,0,22.345-12.995,28.414-19.725c7.665-8.503,0.142-8.881,0.142-8.881s-7.715,0.892-16.146,6.428
		C59.542,39.263,55.564,55.905,55.564,55.905z"/>
	<path fill="#8B8B8A" d="M56.871,51.876c0,0,23.057-12.561,25.082-17.245c2.025-4.683,0-6.31,0-6.31s-8.788,1.894-13.979,5.405
		C62.782,37.238,56.871,51.876,56.871,51.876z"/>
	<path fill="none" stroke="#2D2D2D" stroke-width="0.81" stroke-linejoin="round" stroke-miterlimit="10" d="M16.362,34.631
		c0,0,0.791-1.662,6.866,0c6.075,1.662,24.839,9.896,24.839,9.896s5.94-21.137,17.01-24.406s17.211-1.291,17.211-1.291"/>
	<path fill="none" stroke="#2D2D2D" stroke-width="0.81" stroke-linejoin="round" stroke-miterlimit="10" d="M89.226,23.098
		c0,0-39.08-1.729-35.839,38.097"/>
	<path fill="none" stroke="#2D2D2D" stroke-width="0.81" stroke-linejoin="round" stroke-miterlimit="10" d="M27.9,9.531
		c0,0-4.134,2.586-1.974,7.182c2.161,4.596,26.406,17.014,26.406,17.014"/>
	<path fill="none" stroke="#2D2D2D" stroke-width="0.81" stroke-linejoin="round" stroke-miterlimit="10" d="M20.662,34.064
		c0,0,9.374,17.368,25.679,23.771"/>
	<path fill="none" stroke="#2D2D2D" stroke-width="0.81" stroke-linejoin="round" stroke-miterlimit="10" d="M21.542,51.876
		c0,0,3.98,6.83,3.035,12.769c-0.945,5.94-12.15,18.36-6.21,34.83c5.94,16.47,9.45,16.2,9.45,16.2"/>
	<g>
		<defs>
			<path id="SVGID_1_" d="M56.871,51.876c0,0,23.057-12.561,25.082-17.245c2.025-4.683,0-6.31,0-6.31s-8.788,1.894-13.979,5.405
				C62.782,37.238,56.871,51.876,56.871,51.876z"/>
		</defs>
		<clipPath id="SVGID_2_">
			<use xlink:href="#SVGID_1_"  overflow="visible"/>
		</clipPath>
		
			<line clip-path="url(#SVGID_2_)" fill="none" stroke="#BABABA" stroke-width="0.405" stroke-miterlimit="10" x1="55.497" y1="52.501" x2="55.497" y2="12.24"/>
		
			<line clip-path="url(#SVGID_2_)" fill="none" stroke="#BABABA" stroke-width="0.405" stroke-miterlimit="10" x1="56.278" y1="52.501" x2="56.278" y2="12.24"/>
		
			<line clip-path="url(#SVGID_2_)" fill="none" stroke="#BABABA" stroke-width="0.405" stroke-miterlimit="10" x1="57.06" y1="52.501" x2="57.06" y2="12.24"/>
		
			<line clip-path="url(#SVGID_2_)" fill="none" stroke="#BABABA" stroke-width="0.405" stroke-miterlimit="10" x1="57.841" y1="52.501" x2="57.841" y2="12.24"/>
		
			<line clip-path="url(#SVGID_2_)" fill="none" stroke="#BABABA" stroke-width="0.405" stroke-miterlimit="10" x1="58.623" y1="52.501" x2="58.623" y2="12.24"/>
		
			<line clip-path="url(#SVGID_2_)" fill="none" stroke="#BABABA" stroke-width="0.405" stroke-miterlimit="10" x1="59.404" y1="52.501" x2="59.404" y2="12.24"/>
		
			<line clip-path="url(#SVGID_2_)" fill="none" stroke="#BABABA" stroke-width="0.405" stroke-miterlimit="10" x1="60.186" y1="52.501" x2="60.186" y2="12.24"/>
		
			<line clip-path="url(#SVGID_2_)" fill="none" stroke="#BABABA" stroke-width="0.405" stroke-miterlimit="10" x1="60.967" y1="52.501" x2="60.967" y2="12.24"/>
		
			<line clip-path="url(#SVGID_2_)" fill="none" stroke="#BABABA" stroke-width="0.405" stroke-miterlimit="10" x1="61.749" y1="52.501" x2="61.749" y2="12.24"/>
		
			<line clip-path="url(#SVGID_2_)" fill="none" stroke="#BABABA" stroke-width="0.405" stroke-miterlimit="10" x1="62.53" y1="52.501" x2="62.53" y2="12.24"/>
		
			<line clip-path="url(#SVGID_2_)" fill="none" stroke="#BABABA" stroke-width="0.405" stroke-miterlimit="10" x1="63.312" y1="52.501" x2="63.312" y2="12.24"/>
		
			<line clip-path="url(#SVGID_2_)" fill="none" stroke="#BABABA" stroke-width="0.405" stroke-miterlimit="10" x1="64.093" y1="52.501" x2="64.093" y2="12.24"/>
		
			<line clip-path="url(#SVGID_2_)" fill="none" stroke="#BABABA" stroke-width="0.405" stroke-miterlimit="10" x1="64.875" y1="52.501" x2="64.875" y2="12.24"/>
		
			<line clip-path="url(#SVGID_2_)" fill="none" stroke="#BABABA" stroke-width="0.405" stroke-miterlimit="10" x1="65.657" y1="52.501" x2="65.657" y2="12.24"/>
		
			<line clip-path="url(#SVGID_2_)" fill="none" stroke="#BABABA" stroke-width="0.405" stroke-miterlimit="10" x1="66.438" y1="52.501" x2="66.438" y2="12.24"/>
		
			<line clip-path="url(#SVGID_2_)" fill="none" stroke="#BABABA" stroke-width="0.405" stroke-miterlimit="10" x1="67.22" y1="52.501" x2="67.22" y2="12.24"/>
		
			<line clip-path="url(#SVGID_2_)" fill="none" stroke="#BABABA" stroke-width="0.405" stroke-miterlimit="10" x1="68.001" y1="52.501" x2="68.001" y2="12.24"/>
		
			<line clip-path="url(#SVGID_2_)" fill="none" stroke="#BABABA" stroke-width="0.405" stroke-miterlimit="10" x1="68.782" y1="52.501" x2="68.782" y2="12.24"/>
		
			<line clip-path="url(#SVGID_2_)" fill="none" stroke="#BABABA" stroke-width="0.405" stroke-miterlimit="10" x1="69.564" y1="52.501" x2="69.564" y2="12.24"/>
		
			<line clip-path="url(#SVGID_2_)" fill="none" stroke="#BABABA" stroke-width="0.405" stroke-miterlimit="10" x1="70.346" y1="52.501" x2="70.346" y2="12.24"/>
		
			<line clip-path="url(#SVGID_2_)" fill="none" stroke="#BABABA" stroke-width="0.405" stroke-miterlimit="10" x1="71.127" y1="52.501" x2="71.127" y2="12.24"/>
		
			<line clip-path="url(#SVGID_2_)" fill="none" stroke="#BABABA" stroke-width="0.405" stroke-miterlimit="10" x1="71.909" y1="52.501" x2="71.909" y2="12.24"/>
		
			<line clip-path="url(#SVGID_2_)" fill="none" stroke="#BABABA" stroke-width="0.405" stroke-miterlimit="10" x1="72.69" y1="52.501" x2="72.69" y2="12.24"/>
		
			<line clip-path="url(#SVGID_2_)" fill="none" stroke="#BABABA" stroke-width="0.405" stroke-miterlimit="10" x1="73.472" y1="52.501" x2="73.472" y2="12.24"/>
		
			<line clip-path="url(#SVGID_2_)" fill="none" stroke="#BABABA" stroke-width="0.405" stroke-miterlimit="10" x1="74.253" y1="52.501" x2="74.253" y2="12.24"/>
		
			<line clip-path="url(#SVGID_2_)" fill="none" stroke="#BABABA" stroke-width="0.405" stroke-miterlimit="10" x1="75.035" y1="52.501" x2="75.035" y2="12.24"/>
		
			<line clip-path="url(#SVGID_2_)" fill="none" stroke="#BABABA" stroke-width="0.405" stroke-miterlimit="10" x1="75.816" y1="52.501" x2="75.816" y2="12.24"/>
		
			<line clip-path="url(#SVGID_2_)" fill="none" stroke="#BABABA" stroke-width="0.405" stroke-miterlimit="10" x1="76.598" y1="52.501" x2="76.598" y2="12.24"/>
		
			<line clip-path="url(#SVGID_2_)" fill="none" stroke="#BABABA" stroke-width="0.405" stroke-miterlimit="10" x1="77.379" y1="52.501" x2="77.379" y2="12.24"/>
		
			<line clip-path="url(#SVGID_2_)" fill="none" stroke="#BABABA" stroke-width="0.405" stroke-miterlimit="10" x1="78.161" y1="52.501" x2="78.161" y2="12.24"/>
		
			<line clip-path="url(#SVGID_2_)" fill="none" stroke="#BABABA" stroke-width="0.405" stroke-miterlimit="10" x1="78.942" y1="52.501" x2="78.942" y2="12.24"/>
		
			<line clip-path="url(#SVGID_2_)" fill="none" stroke="#BABABA" stroke-width="0.405" stroke-miterlimit="10" x1="79.724" y1="52.501" x2="79.724" y2="12.24"/>
		
			<line clip-path="url(#SVGID_2_)" fill="none" stroke="#BABABA" stroke-width="0.405" stroke-miterlimit="10" x1="80.505" y1="52.501" x2="80.505" y2="12.24"/>
		
			<line clip-path="url(#SVGID_2_)" fill="none" stroke="#BABABA" stroke-width="0.405" stroke-miterlimit="10" x1="81.287" y1="52.501" x2="81.287" y2="12.24"/>
		
			<line clip-path="url(#SVGID_2_)" fill="none" stroke="#BABABA" stroke-width="0.405" stroke-miterlimit="10" x1="82.068" y1="52.501" x2="82.068" y2="12.24"/>
		
			<line clip-path="url(#SVGID_2_)" fill="none" stroke="#BABABA" stroke-width="0.405" stroke-miterlimit="10" x1="82.85" y1="52.501" x2="82.85" y2="12.24"/>
		<use xlink:href="#SVGID_1_"  overflow="visible" fill="none" stroke="#757576" stroke-width="0.2025" stroke-miterlimit="10"/>
	</g>
	<path fill="none" stroke="#2D2D2D" stroke-width="0.81" stroke-linejoin="round" stroke-miterlimit="10" d="M59.409,58.445
		c0,0-3.845,1.204-4.566-0.146c-0.563-1.056,5.104-22.119,17.929-27.597c12.825-5.478,19.841-3.579,20.385-2.643
		c0.544,0.936,0.474,1.506,0,3.864c-0.675,3.359-7.796,11.189-11.806,13.859C79.724,46.72,59.409,58.445,59.409,58.445z"/>
	<polygon fill="#0F0E13" points="56.779,81.742 56.779,95.715 61.437,101.79 73.06,102.722 	"/>
	<polygon fill="#212120" points="56.779,95.715 56.779,101.385 72.247,126.946 97.887,138.645 73.06,102.722 61.437,101.79 	"/>
	<path fill="#93928F" d="M56.779,97.74c0,0-3.442,1.62-3.645,3.847c-0.203,2.228,0,16.403,0,16.403l40.517,44.23l-36.872-60.836
		V97.74z"/>
	<polygon fill="#2C2C2C" points="97.887,138.645 98.899,141.074 89.787,141.074 72.179,126.946 	"/>
	<path fill="#232323" stroke="#232323" stroke-width="0.405" stroke-linejoin="round" stroke-miterlimit="10" d="M93.651,162.221
		c0,0,7.677,0.927,12.538,0.319l-2.632-21.869l-4.658,0.403h-9.112L93.651,162.221z"/>
	<polyline fill="#0F0E13" points="154.99,120.42 132.109,86.399 82.091,103.814 105.473,140.692 103.889,140.785 98.899,141.074 
		73.06,102.722 133.729,80.527 156.611,119.609 156.411,129.98 155.004,128.37 154.99,120.42 140.006,109.08 	"/>
	<polygon fill="#2C2C2C" points="90.521,117.914 136.969,100.575 131.136,86.739 82.091,103.814 	"/>
	<polygon fill="#1E1E1E" points="91.803,120.059 142.105,101.264 132.109,86.399 131.136,86.739 136.969,100.575 90.521,117.914 	
		"/>
	<polygon fill="#191718" points="106.188,162.54 119.752,158.49 105.473,140.288 103.557,140.671 	"/>
	<polygon fill="#0A080A" points="94.583,124.71 136.969,109.564 138.203,102.722 91.803,120.059 	"/>
	<path fill="#282B37" d="M56.779,81.742c0,0,12.96-6.075,26.325-10.935s33.818-9.315,33.818-9.315l6.277,6.48l10.529,12.555
		L73.06,102.722L56.779,81.742z"/>
	<polygon fill="#0A090A" points="140.006,112.762 140.006,109.08 144.834,105.32 142.105,101.264 138.042,102.722 136.969,109.564 	
		"/>
	<g>
		<line fill="none" stroke="#FFFFFF" stroke-width="0.81" stroke-miterlimit="10" x1="79.273" y1="94.633" x2="73.44" y2="92.9"/>
		
			<line fill="none" stroke="#FFFFFF" stroke-width="0.81" stroke-miterlimit="10" x1="75.456" y1="96.684" x2="77.188" y2="90.851"/>
	</g>
	<path fill="none" stroke="#FFFFFF" stroke-width="0.81" stroke-miterlimit="10" d="M67.701,83.749l3.709,2.519
		c0,0-1.857-3.667,0.34-5.74"/>
	
		<line fill="none" stroke="#7D7D7D" stroke-width="0.2025" stroke-miterlimit="10" x1="53.134" y1="101.587" x2="93.225" y2="161.506"/>
	<path fill="#7B7B7B" d="M94.498,124.71l42.305-15.228c0,0,10.61,9.52,24.381,26.125c13.77,16.604,26.123,39.285,26.123,39.285
		l-47.791,19.643c0,0-11.878-27.115-24.599-42.032C102.195,137.587,94.498,124.71,94.498,124.71z"/>
	<g>
		<path fill="#FFFFFF" d="M152.172,166.022c-7.661,4.263-17.881,0.511-22.826-8.378c-4.947-8.888-2.745-19.549,4.917-23.812
			c7.659-4.265,17.88-0.513,22.825,8.376C162.034,151.097,159.834,161.76,152.172,166.022z"/>
		<g>
			<path fill="#7B7B7B" d="M150.823,149.266c-0.642-1.152-1.458-1.94-2.446-2.367c-0.99-0.43-2.09-0.447-3.302-0.056l3.178,5.711
				l-2.149,1.196l-3.296-5.925l-0.444,0.21l-0.574,0.318l-0.388,0.254l2.8,5.028l-2.174,1.21l-2.664-4.788
				c-1.711,1.582-1.855,3.649-0.438,6.197c0.751,1.353,1.707,2.522,2.865,3.513l-3.127,1.738c-1.09-0.828-2.101-2.078-3.031-3.75
				c-1.287-2.315-1.805-4.52-1.553-6.613c0.253-2.098,1.229-3.871,2.927-5.322l-1.081-1.941l2.172-1.209l0.932,1.672
				c0.166-0.143,0.408-0.301,0.727-0.477l0.662-0.334l-0.915-1.644l2.149-1.195l1.05,1.884c2.163-0.746,4.245-0.671,6.24,0.222
				c1.995,0.894,3.632,2.489,4.909,4.783c0.988,1.776,1.578,3.624,1.773,5.546l-3.606,0.188c-0.11-0.792-0.251-1.512-0.425-2.156
				C151.422,150.512,151.164,149.881,150.823,149.266z"/>
		</g>
	</g>
	<polyline fill="none" stroke="#0F0E13" stroke-width="0.2025" stroke-miterlimit="10" points="56.779,95.715 61.437,101.79 
		97.262,138.645 	"/>
</g>
</svg>
