<?xml version="1.0" encoding="utf-8"?>
<!-- Generator: Adobe Illustrator 16.0.0, SVG Export Plug-In . SVG Version: 6.00 Build 0)  -->
<!DOCTYPE svg PUBLIC "-//W3C//DTD SVG 1.1//EN" "http://www.w3.org/Graphics/SVG/1.1/DTD/svg11.dtd">
<svg version="1.1" id="Layer_1" xmlns="http://www.w3.org/2000/svg" xmlns:xlink="http://www.w3.org/1999/xlink" x="0px" y="0px"
	 width="200px" height="200px" viewBox="0 0 200 200" enable-background="new 0 0 200 200" xml:space="preserve">
<g>
	<path opacity="0.5" fill="#E81F29" d="M101.078,62.815c31.672,0,57.35,25.677,57.35,57.349s-25.678,57.349-57.35,57.349
		c-31.672,0-57.348-25.677-57.348-57.349c0-25.664,16.859-47.392,40.106-54.711l17.242,54.711V62.815"/>
	<g>
		<path fill="#A09E9E" d="M119.293,88.128c0,0,0.332-2.653-1.238-4.466c-1.568-1.812-5.836,3.582-5.836,3.582l3.539,0.441
			c5.281-2.034,5.615,5.371,5.615,5.371l-5.615-5.371"/>
		<path fill="#26201C" d="M80.383,92.647l32.773-5.015l10.854,12.146c0,0-9.02,3.5-13.057,3.971
			c-4.035,0.47-9.627-1.688-15.029,4.697l-5.835,1.462L80.383,92.647z"/>
		<path fill="#9890B2" d="M84.654,95.127l28.694-3.965l8.445,8.599c0,0-7.67,2.456-11.119,2.743
			c-3.447,0.289-8.268-1.391-12.797,3.253l-4.975,0.996L84.654,95.127z"/>
		<path fill="none" stroke="#333333" stroke-width="0.7129" stroke-miterlimit="10" d="M60.474,114.734c0,0,1.282-3.079,0.695-5.574
			s-0.602-5.439-0.602-5.439"/>
		<path fill="#8B8781" d="M106.713,134.783c0,0,4.934,8.948,4.041,13.526l3.453-0.468c0,0-3.039-9.906-5.533-12.728
			S106.713,134.783,106.713,134.783z"/>
		<path fill="#989088" d="M112.307,86.537c0,0,1.75-0.477,3.451,1.148c1.699,1.627,10.488,10.807,10.488,10.807l-4.258,0.521
			L112.307,86.537z"/>
		<path fill="none" stroke="#FFFFFF" stroke-width="1.4258" stroke-miterlimit="10" d="M110.641,147.397
			c0,0,1.391-2.811-3.488-11.623c-4.879-8.812-24.4-39.09-24.4-39.09s-3.416-3.574-0.973-5.155"/>
		<path fill="#1E1E1E" d="M85.995,118.823l21.218,27.249c0,0,0.023-3.051-2.697-7.162S86.67,113.514,86.67,113.514L85.995,118.823z"
			/>
		<path fill="none" stroke="#443D33" stroke-width="2.1388" stroke-miterlimit="10" d="M93.932,111.456L81.885,92.835
			c0,0-0.371-0.62,1.043-1.163c1.234-0.472,22.574-3.485,28.029-4.25c0.805-0.113,1.271,0.327,1.271,0.327l1.072,0.814
			l10.041,13.186"/>
		<path fill="#989088" d="M141.816,126.91c0,0,1.561,1.402,1.971,4.597c0.408,3.194-0.031,6.014-0.031,6.014l-0.109,0.885
			l1.125,2.492c0,0,5.99-7.38-2.369-18.288"/>
		<path fill="#ADA7A7" d="M143.756,137.521l-30.639,7.312c0,0-0.523-2.346-1.807-5.181c-0.77-1.702-1.812-3.578-3.182-5.23
			c-3.877-4.683-10.958-21.215-10.958-21.215l-1.231-3.449l31.371-5.273l14.506,22.426
			C141.816,126.91,145.666,132.999,143.756,137.521z"/>
		<path fill="#BB3D37" d="M110.258,132.188l6.66-1.363c0,0,1.432-0.449,2.033,0.254c0.602,0.701,1.643,2.607,1.643,2.607
			s-0.02,0.939-0.943,1.242s-7.762,1.331-7.762,1.331s-1.098-0.124-1.467-0.706c-0.369-0.581-1.033-1.54-1.107-2.123
			C109.24,132.847,110.258,132.188,110.258,132.188z"/>
		<path fill="#CE4438" d="M110.73,132.034l6.068-1.129c0,0,1.305-0.376,1.857,0.232c0.553,0.607,1.514,2.254,1.514,2.254
			s-0.01,0.808-0.852,1.062c-0.838,0.254-7.07,1.094-7.07,1.094s-1.004-0.114-1.346-0.617c-0.34-0.505-0.951-1.331-1.023-1.834
			C109.809,132.593,110.73,132.034,110.73,132.034z"/>
		<path fill="#EFEB66" d="M121.445,129.633l6.66-1.363c0,0,1.432-0.448,2.033,0.254c0.602,0.701,1.641,2.609,1.641,2.609
			s-0.018,0.938-0.941,1.24c-0.922,0.304-7.76,1.331-7.76,1.331s-1.098-0.124-1.469-0.706c-0.369-0.582-1.031-1.539-1.105-2.122
			C120.428,130.291,121.445,129.633,121.445,129.633z"/>
		<path fill="#EDDF16" d="M121.918,129.479l6.068-1.129c0,0,1.305-0.376,1.855,0.231c0.555,0.608,1.516,2.255,1.516,2.255
			s-0.01,0.807-0.85,1.062s-7.072,1.094-7.072,1.094s-1.004-0.115-1.346-0.617c-0.34-0.504-0.951-1.331-1.023-1.834
			C120.996,130.037,121.918,129.479,121.918,129.479z"/>
		<path fill="#B2D99D" d="M132.172,127.173l6.291-1.298c0,0,1.354-0.425,1.92,0.239c0.568,0.667,1.549,2.476,1.549,2.476
			s-0.018,0.891-0.889,1.178c-0.873,0.288-7.332,1.268-7.332,1.268s-1.037-0.115-1.387-0.669c-0.35-0.553-0.975-1.461-1.043-2.015
			C131.211,127.798,132.172,127.173,132.172,127.173z"/>
		<path fill="#76BF69" d="M132.619,127.025l5.73-1.074c0,0,1.232-0.357,1.754,0.219c0.521,0.577,1.43,2.139,1.43,2.139
			s-0.01,0.766-0.805,1.008c-0.793,0.241-6.68,1.04-6.68,1.04s-0.947-0.106-1.27-0.583c-0.322-0.479-0.898-1.263-0.967-1.74
			C131.746,127.557,132.619,127.025,132.619,127.025z"/>
		<path fill="#ECE9EC" d="M106.338,126.55l6.66-1.363c0,0,1.434-0.447,2.033,0.254c0.602,0.702,1.643,2.61,1.643,2.61
			s-0.018,0.937-0.941,1.239c-0.924,0.304-7.762,1.332-7.762,1.332s-1.1-0.123-1.469-0.706c-0.369-0.582-1.031-1.54-1.105-2.123
			C105.32,127.209,106.338,126.55,106.338,126.55z"/>
		<path fill="#4C3F35" d="M106.811,126.396l6.068-1.128c0,0,1.305-0.376,1.857,0.231s1.516,2.255,1.516,2.255
			s-0.012,0.807-0.852,1.061c-0.842,0.255-7.072,1.094-7.072,1.094s-1.004-0.114-1.346-0.616c-0.342-0.504-0.949-1.332-1.021-1.834
			C105.887,126.954,106.811,126.396,106.811,126.396z"/>
		<path fill="#ECE9EC" d="M117.525,123.996l6.66-1.364c0,0,1.434-0.447,2.035,0.253c0.6,0.703,1.641,2.609,1.641,2.609
			s-0.02,0.938-0.941,1.241c-0.924,0.304-7.762,1.331-7.762,1.331s-1.1-0.123-1.469-0.705c-0.369-0.583-1.031-1.54-1.105-2.125
			C116.508,124.652,117.525,123.996,117.525,123.996z"/>
		<path fill="#4C3F35" d="M118,123.841l6.068-1.129c0,0,1.303-0.376,1.855,0.231c0.555,0.607,1.516,2.255,1.516,2.255
			s-0.012,0.807-0.852,1.062c-0.84,0.254-7.072,1.093-7.072,1.093s-1.004-0.113-1.344-0.617c-0.342-0.503-0.951-1.331-1.023-1.834
			C117.076,124.399,118,123.841,118,123.841z"/>
		<path fill="#ECE9EC" d="M128.252,121.535l6.293-1.299c0,0,1.352-0.425,1.918,0.24c0.568,0.666,1.549,2.475,1.549,2.475
			s-0.018,0.891-0.889,1.179c-0.873,0.289-7.332,1.267-7.332,1.267s-1.037-0.116-1.387-0.668c-0.348-0.553-0.973-1.461-1.043-2.015
			C127.291,122.159,128.252,121.535,128.252,121.535z"/>
		<path fill="#4C3F35" d="M128.699,121.388l5.73-1.073c0,0,1.232-0.358,1.754,0.219c0.521,0.575,1.43,2.138,1.43,2.138
			s-0.01,0.766-0.805,1.007c-0.793,0.242-6.68,1.042-6.68,1.042s-0.947-0.107-1.27-0.584c-0.322-0.479-0.896-1.263-0.965-1.74
			C127.828,121.918,128.699,121.388,128.699,121.388z"/>
		<path fill="#ECE9EC" d="M103.484,121.705l6.66-1.364c0,0,1.434-0.448,2.033,0.254s1.641,2.608,1.641,2.608
			s-0.018,0.938-0.939,1.24c-0.924,0.305-7.762,1.332-7.762,1.332s-1.1-0.123-1.471-0.706c-0.369-0.582-1.031-1.539-1.105-2.123
			C102.467,122.361,103.484,121.705,103.484,121.705z"/>
		<path fill="#4C3F35" d="M103.957,121.55l6.068-1.129c0,0,1.305-0.376,1.857,0.231c0.551,0.608,1.514,2.255,1.514,2.255
			s-0.01,0.807-0.852,1.061c-0.838,0.255-7.07,1.094-7.07,1.094s-1.004-0.113-1.346-0.617c-0.342-0.503-0.951-1.33-1.023-1.833
			C103.033,122.107,103.957,121.55,103.957,121.55z"/>
		<path fill="#ECE9EC" d="M114.67,119.148l6.662-1.363c0,0,1.434-0.448,2.033,0.254c0.602,0.701,1.641,2.608,1.641,2.608
			s-0.018,0.938-0.941,1.241c-0.922,0.303-7.76,1.331-7.76,1.331s-1.1-0.123-1.469-0.706c-0.371-0.581-1.033-1.539-1.107-2.123
			S114.67,119.148,114.67,119.148z"/>
		<path fill="#4C3F35" d="M115.145,118.994l6.068-1.129c0,0,1.305-0.375,1.857,0.232s1.514,2.254,1.514,2.254
			s-0.01,0.808-0.85,1.062c-0.84,0.255-7.072,1.093-7.072,1.093s-1.004-0.112-1.346-0.616c-0.34-0.504-0.949-1.331-1.021-1.834
			S115.145,118.994,115.145,118.994z"/>
		<path fill="#ECE9EC" d="M125.396,116.689l6.293-1.299c0,0,1.352-0.426,1.92,0.239c0.568,0.667,1.549,2.476,1.549,2.476
			s-0.02,0.891-0.891,1.177c-0.871,0.289-7.33,1.269-7.33,1.269s-1.037-0.116-1.387-0.67c-0.35-0.552-0.973-1.46-1.045-2.014
			C124.438,117.312,125.396,116.689,125.396,116.689z"/>
		<path fill="#4C3F35" d="M125.846,116.542l5.73-1.075c0,0,1.232-0.357,1.754,0.219s1.43,2.139,1.43,2.139s-0.012,0.766-0.805,1.007
			c-0.793,0.242-6.68,1.042-6.68,1.042s-0.947-0.106-1.27-0.585c-0.322-0.477-0.896-1.262-0.965-1.738
			S125.846,116.542,125.846,116.542z"/>
		<path fill="#ECE9EC" d="M100.324,117.161l6.661-1.365c0,0,1.434-0.446,2.035,0.254c0.598,0.703,1.639,2.61,1.639,2.61
			s-0.018,0.938-0.939,1.24c-0.924,0.305-7.762,1.332-7.762,1.332s-1.099-0.124-1.469-0.707c-0.37-0.581-1.032-1.539-1.106-2.123
			C99.306,117.818,100.324,117.161,100.324,117.161z"/>
		<path fill="#4C3F35" d="M100.796,117.006l6.069-1.128c0,0,1.305-0.377,1.857,0.231c0.553,0.607,1.514,2.255,1.514,2.255
			s-0.01,0.806-0.852,1.061c-0.84,0.255-7.07,1.093-7.07,1.093s-1.006-0.112-1.345-0.616c-0.342-0.504-0.951-1.332-1.023-1.834
			C99.874,117.564,100.796,117.006,100.796,117.006z"/>
		<path fill="#ECE9EC" d="M111.51,114.605l6.662-1.364c0,0,1.434-0.447,2.033,0.254c0.602,0.702,1.641,2.608,1.641,2.608
			s-0.018,0.938-0.939,1.241c-0.924,0.304-7.762,1.332-7.762,1.332s-1.1-0.123-1.471-0.706c-0.369-0.582-1.031-1.54-1.105-2.123
			C110.494,115.263,111.51,114.605,111.51,114.605z"/>
		<path fill="#4C3F35" d="M111.984,114.451l6.068-1.13c0,0,1.305-0.376,1.857,0.231c0.553,0.608,1.514,2.255,1.514,2.255
			s-0.01,0.807-0.85,1.062c-0.84,0.254-7.072,1.093-7.072,1.093s-1.004-0.112-1.346-0.616c-0.34-0.503-0.949-1.331-1.021-1.834
			C111.062,115.01,111.984,114.451,111.984,114.451z"/>
		<path fill="#ECE9EC" d="M122.238,112.146l6.291-1.299c0,0,1.352-0.426,1.92,0.24s1.549,2.474,1.549,2.474
			s-0.018,0.891-0.889,1.179c-0.873,0.289-7.332,1.268-7.332,1.268s-1.037-0.116-1.387-0.669c-0.35-0.552-0.973-1.46-1.043-2.014
			C121.277,112.769,122.238,112.146,122.238,112.146z"/>
		<path fill="#4C3F35" d="M122.686,111.997l5.73-1.073c0,0,1.232-0.357,1.754,0.219c0.521,0.575,1.43,2.139,1.43,2.139
			s-0.01,0.765-0.805,1.007c-0.793,0.242-6.68,1.042-6.68,1.042s-0.947-0.108-1.27-0.585c-0.322-0.479-0.898-1.263-0.965-1.74
			C121.812,112.529,122.686,111.997,122.686,111.997z"/>
		<path fill="#ECE9EC" d="M97.221,112.504l6.662-1.363c0,0,1.432-0.449,2.033,0.253c0.6,0.702,1.643,2.608,1.643,2.608
			s-0.02,0.938-0.943,1.241c-0.922,0.304-7.761,1.331-7.761,1.331s-1.098-0.123-1.468-0.705c-0.37-0.583-1.032-1.54-1.106-2.124
			C96.206,113.162,97.221,112.504,97.221,112.504z"/>
		<path fill="#4C3F35" d="M97.694,112.35l6.07-1.13c0,0,1.303-0.376,1.855,0.231c0.553,0.608,1.516,2.255,1.516,2.255
			s-0.012,0.808-0.852,1.062c-0.84,0.255-7.071,1.093-7.071,1.093s-1.005-0.112-1.345-0.617c-0.342-0.502-0.951-1.33-1.024-1.833
			C96.771,112.907,97.694,112.35,97.694,112.35z"/>
		<path fill="#ECE9EC" d="M108.41,109.948l6.66-1.364c0,0,1.432-0.448,2.033,0.254s1.641,2.608,1.641,2.608
			s-0.018,0.938-0.939,1.241c-0.924,0.305-7.762,1.332-7.762,1.332s-1.1-0.124-1.471-0.706c-0.369-0.582-1.029-1.54-1.105-2.124
			C107.393,110.606,108.41,109.948,108.41,109.948z"/>
		<path fill="#4C3F35" d="M108.883,109.793l6.068-1.129c0,0,1.303-0.375,1.857,0.232c0.551,0.607,1.514,2.254,1.514,2.254
			s-0.012,0.808-0.852,1.062c-0.84,0.255-7.072,1.094-7.072,1.094s-1.002-0.113-1.344-0.616c-0.342-0.505-0.951-1.331-1.021-1.835
			C107.961,110.352,108.883,109.793,108.883,109.793z"/>
		<path fill="#ECE9EC" d="M119.137,107.488l6.291-1.299c0,0,1.352-0.425,1.92,0.24c0.566,0.666,1.549,2.475,1.549,2.475
			s-0.018,0.892-0.891,1.179s-7.33,1.267-7.33,1.267s-1.037-0.116-1.387-0.669c-0.35-0.552-0.973-1.46-1.045-2.014
			C118.176,108.112,119.137,107.488,119.137,107.488z"/>
		<path fill="#4C3F35" d="M119.582,107.341l5.732-1.075c0,0,1.232-0.356,1.754,0.22s1.43,2.138,1.43,2.138s-0.012,0.766-0.805,1.008
			s-6.68,1.041-6.68,1.041s-0.947-0.106-1.27-0.585c-0.322-0.476-0.898-1.261-0.965-1.738
			C118.711,107.872,119.582,107.341,119.582,107.341z"/>
		<path fill="#201D1E" d="M104.406,110.038c0,0,21.27-4.68,22.994-4.105c1.723,0.574,14.416,20.978,14.416,20.978l1.516-1.598
			l-1.568-4.562c0,0-10.738-20.832-12.508-21.771s-5.539-0.242-5.539-0.242l-22.792,3.889c-2.112,1.097-8.706,8.167-8.706,8.167
			l15.557,25.021c0,0,0.66,0.338,0.773-0.441c0.477-3.255,1.018-12.933-0.115-17.789c-1.404-6.021-7.842-11.044-8.287-13.524
			L104.406,110.038z"/>
		<path fill="#8F8B8B" d="M143.844,138.78l-29.906,7.532c0,0-3.666,2.234-4.957-5.05c0,0-5.672-12.831-16.895-29.409
			C80.864,95.276,78.187,92.967,81.78,91.529c0,0-3.623,0.197-4.002,1.117c-0.376,0.919-3.192,7.595-3.192,7.595l12.661,14.084
			l18.835,27.433c0,0,1.188,2.435,1.131,4.314c0,0,1.969,2.221,4.291,3.049c2.32,0.829,5.395-0.045,5.395-0.045l27.873-8.179
			L143.844,138.78z"/>
		<polygon fill="#0F0E0E" points="113.117,144.833 143.756,137.521 143.844,138.78 113.365,146.241 		"/>
		<path fill="#D3D2D1" d="M43.181,90.664c0,0,13.707,3.865,15.276,2.805c1.569-1.062,3.292-10.546,19.32-0.822
			c0,0-1.744,3.913-1.723,6.609l0.554,2.764l2.188,1.171c0,0,8.49,2.497,7.873,10.323c0,0-0.221,4.642-1.126,4.709l13.4,17.836
			c0,0-5.992-2.363-6.235-3.292s-6.545-3.69-6.722-5.149c0,0-8.998-2.739-9.308-4.573l-16.206-8.31l-19.409,0.093L43.181,90.664z"/>
		<path fill="#A09E9E" d="M85.544,118.223c-3.691,3.67-7.34-1.635-7.34-1.635s-4.047-2.122-5.219-4.243
			c-1.172-2.122-6.766-3.359-9.972-5.016c-3.205-1.658-4.95-13.725-4.95-13.725s4.826,8.479,8.989,8.71
			c4.162,0.229,8.006,7.808,8.006,7.808l6.593,5.096L85.544,118.223z"/>
		<path fill="#A09E9E" d="M57.339,114.906c0,0,4.188-4.366,3.97-4.745s1.126,5.579,1.126,5.579l-1.841-1.322L57.339,114.906z"/>
		<path fill="none" stroke="#7B7B7B" stroke-width="0.3565" stroke-miterlimit="10" d="M78.205,116.588c0,0,1.997-2.492,3.929-1
			s3.411,2.635,3.411,2.635l-4.254,0.979L78.205,116.588z"/>
	</g>
	
		<circle fill="none" stroke="#383838" stroke-width="14.1531" stroke-linecap="round" stroke-linejoin="round" stroke-miterlimit="10" cx="99.729" cy="120.164" r="61.684"/>
	
		<circle fill="none" stroke="#4C4C4D" stroke-width="12.7506" stroke-linecap="round" stroke-linejoin="round" stroke-miterlimit="10" cx="98.945" cy="120.164" r="61.685"/>
	
		<line fill="none" stroke="#4C4C4D" stroke-width="3.9846" stroke-linecap="round" stroke-linejoin="round" stroke-miterlimit="10" x1="98.943" y1="58.479" x2="98.943" y2="72.668"/>
	
		<line fill="none" stroke="#4C4C4D" stroke-width="3.9846" stroke-linecap="round" stroke-linejoin="round" stroke-miterlimit="10" x1="144.146" y1="74.962" x2="132.529" y2="86.579"/>
	
		<line fill="none" stroke="#4C4C4D" stroke-width="3.9846" stroke-linecap="round" stroke-linejoin="round" stroke-miterlimit="10" x1="162.869" y1="120.164" x2="146.439" y2="120.164"/>
	
		<line fill="none" stroke="#4C4C4D" stroke-width="3.9846" stroke-linecap="round" stroke-linejoin="round" stroke-miterlimit="10" x1="144.146" y1="165.365" x2="132.529" y2="153.748"/>
	
		<line fill="none" stroke="#4C4C4D" stroke-width="3.9846" stroke-linecap="round" stroke-linejoin="round" stroke-miterlimit="10" x1="98.945" y1="184.089" x2="98.943" y2="167.661"/>
	
		<line fill="none" stroke="#4C4C4D" stroke-width="3.9846" stroke-linecap="round" stroke-linejoin="round" stroke-miterlimit="10" x1="53.744" y1="165.366" x2="65.359" y2="153.748"/>
	
		<line fill="none" stroke="#4C4C4D" stroke-width="3.9846" stroke-linecap="round" stroke-linejoin="round" stroke-miterlimit="10" x1="35.021" y1="120.166" x2="51.449" y2="120.164"/>
	
		<line fill="none" stroke="#4C4C4D" stroke-width="3.9846" stroke-linecap="round" stroke-linejoin="round" stroke-miterlimit="10" x1="53.742" y1="74.964" x2="65.36" y2="86.579"/>
	<path fill="#4C4C4D" stroke="#333333" stroke-width="0.8325" stroke-miterlimit="10" d="M116.275,56.24
		c0,0-4.002,2.238-17.113,2.238c-13.11,0-17.549-2.238-17.549-2.238V39.655h34.662V56.24z"/>
	<path fill="#4C4C4D" stroke="#333333" stroke-width="0.8325" stroke-miterlimit="10" d="M128.27,28.289
		c0,9.819-6.481,17.779-14.475,17.779c0,0-3.277,2.156-14.089,2.156s-15.612-2.156-15.612-2.156c-7.996,0-14.476-7.96-14.476-17.779
		l0,0c0-9.82,6.479-17.78,14.476-17.78h29.701C121.788,10.509,128.27,18.469,128.27,28.289L128.27,28.289z"/>
</g>
</svg>
