<?xml version="1.0" encoding="utf-8"?>
<!-- Generator: Adobe Illustrator 16.0.0, SVG Export Plug-In . SVG Version: 6.00 Build 0)  -->
<!DOCTYPE svg PUBLIC "-//W3C//DTD SVG 1.1//EN" "http://www.w3.org/Graphics/SVG/1.1/DTD/svg11.dtd">
<svg version="1.1" id="Layer_1" xmlns="http://www.w3.org/2000/svg" xmlns:xlink="http://www.w3.org/1999/xlink" x="0px" y="0px"
	 width="200px" height="200px" viewBox="0 0 200 200" enable-background="new 0 0 200 200" xml:space="preserve">
<g>
	<g>
		<path fill="#767472" stroke="#767472" stroke-width="3" stroke-miterlimit="10" d="M150.184,167.199
			c0,6.268-5.082,11.348-11.348,11.348H71.504c-6.269,0-11.35-5.08-11.35-11.348V34.05c0-6.267,5.081-11.347,11.35-11.347h67.332
			c6.266,0,11.348,5.081,11.348,11.347V167.199z"/>
		<path fill="none" stroke="#000000" stroke-miterlimit="10" d="M144.539,22.546v142.004c0,0-0.376,5.297-1.891,5.297"/>
	</g>
	<path fill="#93928F" d="M144.594,164.629v16.188c0,6.268-5.082,11.35-11.347,11.35H59.62c-6.269,0-11.35-5.082-11.35-11.35V164.93"
		/>
	<path fill="#4C4C4D" stroke="#4C4C4D" stroke-linecap="round" stroke-linejoin="round" stroke-miterlimit="10" d="M143.593,169.09
		c0,6.268-5.079,11.348-11.347,11.348H59.619c-6.269,0-11.349-5.08-11.349-11.348V18.919c0-6.268,5.08-11.349,11.349-11.349h72.627
		c6.268,0,11.347,5.081,11.347,11.349V169.09z"/>
	<path fill="#93928F" stroke="#B7B6B6" stroke-linejoin="round" stroke-miterlimit="10" d="M136.219,14.759v137.688
		c0,6.268-5.081,11.348-11.35,11.348H66.995c-6.269,0-11.349-5.08-11.349-11.348V14.759H136.219z"/>
	<path fill="none" stroke="#767472" stroke-width="0.5" stroke-miterlimit="10" d="M131.165,7.371c6.267,0,5.054,6.43,5.054,6.43
		H55.646c0,0-1.105-6.53,5.161-6.53"/>
	<path fill="#FFFFFF" stroke="#000000" stroke-miterlimit="10" d="M126.771,144.885c0,3.131-2.54,5.674-5.673,5.674H70.787
		c-3.133,0-5.674-2.543-5.674-5.674V37.076c0-3.133,2.542-5.674,5.674-5.674h50.312c3.133,0,5.673,2.541,5.673,5.674V144.885z"/>
	<path fill="none" stroke="#767472" stroke-width="0.8898" stroke-miterlimit="10" d="M65.793,37.873
		c-0.681-2.838,1.433-5.674,4.496-5.674h51.217c3.064,0,4.601,2.539,4.601,5.674"/>
	<line fill="none" stroke="#767472" stroke-width="2" stroke-miterlimit="10" x1="65.765" y1="69.986" x2="126.099" y2="69.986"/>
	<line fill="none" stroke="#767472" stroke-width="2" stroke-miterlimit="10" x1="126.099" y1="78.686" x2="65.765" y2="78.686"/>
	<rect x="68.508" y="72.171" fill="#767472" width="24.966" height="4.173"/>
	<rect x="97.915" y="72.171" fill="#767472" width="24.966" height="4.173"/>
	<g>
		<path d="M103.781,52.612c-1.414,0-2.297,0.893-2.646,2.68h3.391v0.857h-3.483l-0.014,0.379v0.425l0.014,0.299h3.078v0.857h-2.972
			c0.164,0.798,0.471,1.416,0.92,1.852c0.451,0.437,1.053,0.655,1.807,0.655c0.691,0,1.375-0.146,2.054-0.438v0.997
			c-0.647,0.288-1.35,0.432-2.107,0.432c-1.051,0-1.896-0.298-2.536-0.894c-0.641-0.596-1.063-1.464-1.268-2.604h-1.104v-0.857
			h1.011l-0.013-0.279v-0.292l0.013-0.532h-1.011v-0.857h1.09c0.173-1.157,0.583-2.059,1.23-2.707
			c0.647-0.647,1.496-0.971,2.547-0.971c0.891,0,1.702,0.215,2.434,0.645l-0.473,0.924
			C105.007,52.802,104.354,52.612,103.781,52.612z"/>
		<path d="M111.282,61.475h-1.077v-6.929c0-0.576,0.018-1.121,0.053-1.635c-0.094,0.093-0.197,0.19-0.312,0.292
			s-0.643,0.534-1.583,1.296l-0.585-0.758l2.573-1.988h0.932V61.475z"/>
		<path d="M116.209,61.475l4.029-8.704h-5.3v-1.018h6.47v0.884l-3.977,8.837H116.209z"/>
	</g>
	
		<line fill="none" stroke="#767472" stroke-width="0.8898" stroke-miterlimit="10" x1="68.508" y1="35.035" x2="77.397" y2="35.035"/>
	
		<line fill="none" stroke="#767472" stroke-width="0.8898" stroke-miterlimit="10" x1="112.434" y1="35.035" x2="121.513" y2="35.035"/>
	
		<line fill="none" stroke="#767472" stroke-width="0.8898" stroke-miterlimit="10" x1="114.42" y1="36.367" x2="120.518" y2="36.367"/>
	
		<line fill="none" stroke="#767472" stroke-width="0.8898" stroke-miterlimit="10" x1="116.121" y1="33.671" x2="120.518" y2="33.671"/>
	
		<line fill="none" stroke="#767472" stroke-width="0.8898" stroke-miterlimit="10" x1="89.737" y1="35.035" x2="103.922" y2="35.035"/>
	
		<line fill="none" stroke="#767472" stroke-width="0.8898" stroke-miterlimit="10" x1="94.135" y1="36.367" x2="100.094" y2="36.367"/>
	
		<line fill="none" stroke="#767472" stroke-width="0.8898" stroke-miterlimit="10" x1="102.361" y1="36.367" x2="103.922" y2="36.367"/>
	<g>
		
			<line fill="#FFFFFF" stroke="#767472" stroke-width="2" stroke-miterlimit="10" x1="65.765" y1="85.416" x2="126.106" y2="85.416"/>
		<path fill="none" stroke="#767472" stroke-miterlimit="10" d="M84.782,97.899c0,1.253-0.994,2.27-2.222,2.27H71.177
			c-1.227,0-2.221-1.016-2.221-2.27V91.09c0-1.252,0.994-2.27,2.221-2.27h11.384c1.228,0,2.222,1.018,2.222,2.27V97.899z"/>
		<path fill="none" stroke="#767472" stroke-miterlimit="10" d="M103.849,97.899c0,1.253-0.996,2.27-2.223,2.27H90.244
			c-1.227,0-2.224-1.016-2.224-2.27V91.09c0-1.252,0.997-2.27,2.224-2.27h11.382c1.227,0,2.223,1.018,2.223,2.27V97.899z"/>
		<path fill="none" stroke="#767472" stroke-miterlimit="10" d="M122.913,97.899c0,1.253-0.994,2.27-2.221,2.27H109.31
			c-1.228,0-2.223-1.016-2.223-2.27V91.09c0-1.252,0.995-2.27,2.223-2.27h11.383c1.227,0,2.221,1.018,2.221,2.27V97.899z"/>
		<path fill="none" stroke="#767472" stroke-miterlimit="10" d="M84.782,112.65c0,1.254-0.994,2.271-2.222,2.271H71.177
			c-1.227,0-2.221-1.018-2.221-2.271v-6.809c0-1.252,0.994-2.27,2.221-2.27h11.384c1.228,0,2.222,1.018,2.222,2.27V112.65z"/>
		<path fill="none" stroke="#767472" stroke-miterlimit="10" d="M103.849,112.65c0,1.254-0.996,2.271-2.223,2.271H90.244
			c-1.227,0-2.224-1.018-2.224-2.271v-6.809c0-1.252,0.997-2.27,2.224-2.27h11.382c1.227,0,2.223,1.018,2.223,2.27V112.65z"/>
		<path fill="none" stroke="#767472" stroke-miterlimit="10" d="M122.913,112.65c0,1.254-0.994,2.271-2.221,2.271H109.31
			c-1.228,0-2.223-1.018-2.223-2.271v-6.809c0-1.252,0.995-2.27,2.223-2.27h11.383c1.227,0,2.221,1.018,2.221,2.27V112.65z"/>
		<path fill="none" stroke="#767472" stroke-miterlimit="10" d="M84.782,127.404c0,1.254-0.994,2.27-2.222,2.27H71.177
			c-1.227,0-2.221-1.016-2.221-2.27v-6.811c0-1.252,0.994-2.27,2.221-2.27h11.384c1.228,0,2.222,1.018,2.222,2.27V127.404z"/>
		<path fill="none" stroke="#767472" stroke-miterlimit="10" d="M103.849,127.404c0,1.254-0.996,2.27-2.223,2.27H90.244
			c-1.227,0-2.224-1.016-2.224-2.27v-6.811c0-1.252,0.997-2.27,2.224-2.27h11.382c1.227,0,2.223,1.018,2.223,2.27V127.404z"/>
		<path fill="none" stroke="#767472" stroke-miterlimit="10" d="M122.913,127.404c0,1.254-0.994,2.27-2.221,2.27H109.31
			c-1.228,0-2.223-1.016-2.223-2.27v-6.811c0-1.252,0.995-2.27,2.223-2.27h11.383c1.227,0,2.221,1.018,2.221,2.27V127.404z"/>
		<path fill="#ED1D38" d="M84.782,142.162c0,1.252-0.994,2.27-2.222,2.27H71.177c-1.227,0-2.221-1.018-2.221-2.27v-6.814
			c0-1.252,0.994-2.27,2.221-2.27h11.384c1.228,0,2.222,1.018,2.222,2.27V142.162z"/>
		<path fill="none" stroke="#767472" stroke-miterlimit="10" d="M103.849,142.162c0,1.252-0.996,2.27-2.223,2.27H90.244
			c-1.227,0-2.224-1.018-2.224-2.27v-6.814c0-1.252,0.997-2.27,2.224-2.27h11.382c1.227,0,2.223,1.018,2.223,2.27V142.162z"/>
		<path fill="#EADE15" d="M122.913,142.162c0,1.252-0.994,2.27-2.221,2.27H109.31c-1.228,0-2.223-1.018-2.223-2.27v-6.814
			c0-1.252,0.995-2.27,2.223-2.27h11.383c1.227,0,2.221,1.018,2.221,2.27V142.162z"/>
	</g>
	<g>
		<path fill="none" stroke="#767472" stroke-width="0.8898" stroke-miterlimit="10" d="M75.174,173.801
			c0,1.252-1.016,2.27-2.269,2.27H64.11c-1.254,0-2.27-1.018-2.27-2.27v-3.404c0-1.254,1.016-2.271,2.27-2.271h8.795
			c1.253,0,2.269,1.018,2.269,2.271V173.801z"/>
		<path fill="#FFFFFF" d="M133.528,173.801c0,1.252-1.018,2.27-2.271,2.27h-8.794c-1.254,0-2.271-1.018-2.271-2.27v-3.404
			c0-1.254,1.017-2.271,2.271-2.271h8.794c1.253,0,2.271,1.018,2.271,2.271V173.801z"/>
		<path fill="#FFFFFF" d="M75.174,173.801c0,1.252-1.016,2.27-2.269,2.27H64.11c-1.254,0-2.27-1.018-2.27-2.27v-3.404
			c0-1.254,1.016-2.271,2.27-2.271h8.795c1.253,0,2.269,1.018,2.269,2.271V173.801z"/>
		<g>
			<path fill="#FFFFFF" d="M94.625,173.801c0,1.252-1.016,2.27-2.269,2.27h-8.795c-1.254,0-2.27-1.018-2.27-2.27v-3.404
				c0-1.254,1.016-2.271,2.27-2.271h8.795c1.252,0,2.269,1.018,2.269,2.271V173.801z"/>
		</g>
		<g>
			<path fill="#FFFFFF" d="M113.562,173.801c0,1.252-1.016,2.27-2.27,2.27h-8.795c-1.253,0-2.27-1.018-2.27-2.27v-3.404
				c0-1.254,1.017-2.271,2.27-2.271h8.795c1.254,0,2.27,1.018,2.27,2.271V173.801z"/>
		</g>
	</g>
	
		<line fill="#4C4C4D" stroke="#4C4C4D" stroke-width="4" stroke-miterlimit="10" x1="68.863" y1="185.451" x2="129.598" y2="185.451"/>
	
		<line fill="#FFFFFF" stroke="#767472" stroke-width="1.0123" stroke-miterlimit="10" x1="65.793" y1="37.873" x2="126.099" y2="37.873"/>
</g>
</svg>
