<?xml version="1.0" encoding="utf-8"?>
<!-- Generator: Adobe Illustrator 16.0.0, SVG Export Plug-In . SVG Version: 6.00 Build 0)  -->
<!DOCTYPE svg PUBLIC "-//W3C//DTD SVG 1.1//EN" "http://www.w3.org/Graphics/SVG/1.1/DTD/svg11.dtd">
<svg version="1.1" id="Layer_1" xmlns="http://www.w3.org/2000/svg" xmlns:xlink="http://www.w3.org/1999/xlink" x="0px" y="0px"
	 width="200px" height="200px" viewBox="0 0 200 200" enable-background="new 0 0 200 200" xml:space="preserve">
<path fill="#4C4C4D" stroke="#4C4C4D" stroke-width="0.9" stroke-linecap="round" stroke-linejoin="round" stroke-miterlimit="10" d="
	M191.969,146.931c0,0.994-0.805,1.8-1.8,1.8H8.874c-0.993,0-1.8-0.806-1.8-1.8v-123c0-0.994,0.807-1.8,1.8-1.8h181.295
	c0.995,0,1.8,0.806,1.8,1.8V146.931z"/>
<g>
	<rect x="14.921" y="29.029" fill="#FFFFFF" width="169.201" height="96.299"/>
	<path fill="#333333" d="M183.223,29.929v94.5H15.821v-94.5H183.223 M185.022,28.129H14.021v98.1h171.001V28.129L185.022,28.129z"/>
</g>
<linearGradient id="SVGID_1_" gradientUnits="userSpaceOnUse" x1="127.7471" y1="-18.9761" x2="219.1912" y2="132.7382">
	<stop  offset="0" style="stop-color:#FFFFFF"/>
	<stop  offset="1" style="stop-color:#FFFFFF;stop-opacity:0"/>
</linearGradient>
<path opacity="0.8" fill="url(#SVGID_1_)" d="M119.547,22.13h70.622c0.995,0,1.8,0.806,1.8,1.8v123c0,0.994-0.805,1.8-1.8,1.8
	L119.547,22.13z"/>
<g>
	
		<linearGradient id="SVGID_2_" gradientUnits="userSpaceOnUse" x1="163.9629" y1="152.0439" x2="215.6629" y2="185.6183" gradientTransform="matrix(-1 0 0 1 290.373 0)">
		<stop  offset="0.0675" style="stop-color:#020202"/>
		<stop  offset="1" style="stop-color:#F1F2F2"/>
	</linearGradient>
	<path fill="url(#SVGID_2_)" d="M71.229,178.746c-1.688-0.338-1.575-3.102-1.575-3.102c12.375-10.237,16.312-25.137,16.312-25.137
		l26.888,0.45c0,0,4.16,15.524,16.535,25.763c0,0,0.113,1.688-1.574,2.025H71.229z"/>
	
		<linearGradient id="SVGID_3_" gradientUnits="userSpaceOnUse" x1="190.8223" y1="141.5508" x2="190.8223" y2="177.9715" gradientTransform="matrix(-1 0 0 1 290.373 0)">
		<stop  offset="0.1835" style="stop-color:#020202"/>
		<stop  offset="1" style="stop-color:#FFFFFF"/>
	</linearGradient>
	<path fill="url(#SVGID_3_)" d="M71.229,177.508c-1.688-0.338-1.514-2.025-1.514-2.025c12.375-10.236,9.315-27.562,9.315-27.562
		h40.985c0,0-3.001,17.326,9.374,27.562c0,0,0.113,1.688-1.574,2.025S72.916,177.846,71.229,177.508z"/>
</g>
<g>
	<g>
		<path fill="#757576" d="M102.971,108.248c0,0,3.189,5.643,6.881,5.025c3.679-0.617,2.336,4.584,7.506,1.016
			c2.691-1.857-10.369-7.562-10.369-7.562L102.971,108.248z"/>
		<path fill="#757576" d="M107.848,91.643l19.884,1.962c0,0-1.696,1.917-3.434,2.458c-1.737,0.539-11.445,1.653-12.771,0.039
			C110.197,94.486,107.848,91.643,107.848,91.643z"/>
		<polygon fill="#565655" points="107.317,84.728 130.521,87.002 130.006,71.943 114.892,71.256 105.645,82.843 		"/>
		<path fill="#757576" d="M106.311,85.552c0,0,8.145,1.387,10.984-6.554c0,0,6.152,2.493,9.083-1.849
			c2.933-4.345,0.183-1.67,0.183-1.67s-7.174-0.654-8.506-3.571C116.723,68.989,106.311,85.552,106.311,85.552z"/>
		<path fill="#D3D2D1" d="M96.222,83.227c0,0,8.72-16.512,9.708-21.813c0.99-5.301,4.623-4.062,4.623-4.062l29.988,1.119
			c0,0,5.571-0.366,9.796,9.996c4.224,10.361,15.851,25.259,15.122,28.119c-0.729,2.861-14.204,29.239-14.204,29.239
			s-11.741-0.468-24.288-6.871c-12.551-6.402-20.729-8.666-23.01-9.562c-2.274-0.898-5.842-6.612-7.562-10.512
			c0,0-7.711-8.174-2.894-12.201c0,0,5.265-4.635,12.701,2.094l6.623,8.036c0,0,11.168,0.097,12.83-1.368l2.075-1.833
			c0,0-1.95-17.686-1.171-18.126c0.779-0.443-6.83,0.977-8.599-1.583c-1.771-2.56-2.501,0.548-2.501,0.548
			s-10.375,9.318-12.156,9.22C99.867,83.475,97.389,85.662,96.222,83.227z"/>
		<path fill="#A09E9E" d="M101.901,102.881c2.312,2.891,35.345,8.473,39.684,3.902c4.337-4.568,3.867-7.608-1.015-8.957
			c-4.885-1.348-12.839-4.221-12.839-4.221l24.335,2.906c0,0-1.859-11.822-6.129-22.162c-4.271-10.339-20.082-16.426-20.082-16.426
			s5.053,0.035,10.744,0.161c3.516,0.477,7.185-0.155,10.278,3.349c1.663,2.061,2.944,4.966,5.81,10.255
			c5.471,10.081,13.077,22.179,12.74,23.894c-0.339,1.714-14.173,30.243-14.173,30.243s-11.024-1.021-16.679-3.617
			c-4.435-1.745-25.438-11.162-30.619-12.816c-2.945-1.659-7.651-9.222-10.252-14.11C90.823,91.364,99.598,99.991,101.901,102.881z"
			/>
		<polygon fill="#7F7F7F" points="148.24,127.256 157.176,110.5 181.738,123.534 173.617,140.309 		"/>
		<polygon fill="#4C4C4D" points="165.754,94.276 157.176,110.5 181.738,123.534 190.427,105.765 		"/>
	</g>
	<g>
		<path fill="#93928F" d="M76.41,80.164l78.334,10.191c0,0,2.079,0.658,2.398,3.491c-0.953,2.688-3.127,2.857-3.127,2.857
			l-78.606-7.826"/>
		<g>
			<g>
				<polygon fill="#C7CACC" points="75.309,88.767 66.039,83.287 76.311,80.051 				"/>
			</g>
			<polyline fill="#1E2021" points="67.995,84.44 66.039,83.287 68.205,82.604 			"/>
		</g>
		<polygon fill="#4C4C4D" points="76.795,80.213 110.966,84.657 76.42,81.421 		"/>
		<polygon fill="#4C4C4D" points="155.152,90.252 120.999,85.965 155.213,91.516 156.343,91.6 		"/>
		<polygon fill="#4C4C4D" points="154.591,96.723 120.336,93.351 154.929,95.506 156.047,95.672 		"/>
		<polygon fill="#4C4C4D" points="75.608,89.009 109.904,92.326 75.515,87.745 		"/>
		<polygon fill="#4C4C4D" points="75.577,85.343 109.872,88.662 75.482,84.081 		"/>
		<polygon fill="#4C4C4D" points="156.476,93.059 122.214,89.74 156.569,94.321 		"/>
		<path fill="none" stroke="#FFFFFF" stroke-width="1.1075" stroke-linecap="round" stroke-miterlimit="10" d="M75.409,88.878
			c0,0,0.093-1.263,0.5-4.357c0.409-3.096,0.5-4.357,0.5-4.357"/>
	</g>
	<g>
		<path fill="#D3D2D1" d="M111.787,96.306l-5.957-8.625c-7.433-6.729-12.699-2.094-12.699-2.094
			c-4.817,4.028,1.523,9.451,1.523,9.451l7.176,0.697L111.787,96.306z"/>
		<path fill="#A09E9E" d="M126.477,79.698c-0.1-3.222-0.178-4.238,0.084-4.22c0,0-7.797,1.833-10.266-2.483
			c-2.92,4.315-6.742,11.177-12.457,11.414c-8.003,0.334-7.616-1.183-7.616-1.183s16.166-11.039,17.75-15.659
			c1.584-4.621,8.336,0.866,8.49,1.284c0.155,0.419,4.752,0.547,7.134,0.906c2.386,0.358,1.431,15.73,1.431,15.73l-0.07,1.771
			l-4.059-0.528L126.477,79.698z"/>
		<path fill="#E7AB98" d="M127.521,93.812"/>
		<g>
			<path fill="#BCBBBB" d="M93.31,94.009c-2.622-3.968-1.566-6.656-1.176-7.391c0.352-0.664,0.755-0.962,0.929-0.962
				c1.552,0.603,3.062,4.026,2.66,5.899c-0.093-0.026-0.187-0.039-0.28-0.039C94.302,91.517,93.519,93.435,93.31,94.009z"/>
			<path fill="#787878" d="M93.063,85.737l0.007,0c1.466,0.578,2.926,3.858,2.589,5.718c-0.072-0.014-0.145-0.021-0.217-0.021
				c-1.104,0-1.875,1.681-2.152,2.395c-2.485-3.857-1.465-6.456-1.084-7.173C92.551,86.007,92.935,85.737,93.063,85.737
				 M93.063,85.574c-0.725,0-3.263,3.396,0.27,8.616c0,0,0.841-2.592,2.109-2.592c0.11,0,0.224,0.02,0.34,0.062
				c0.462-1.83-1.008-5.427-2.652-6.074C93.111,85.578,93.088,85.574,93.063,85.574L93.063,85.574z"/>
		</g>
		<path fill="#956E86" d="M173.246,139.219"/>
	</g>
</g>
</svg>
