<?xml version="1.0" encoding="utf-8"?>
<!-- Generator: Adobe Illustrator 16.0.0, SVG Export Plug-In . SVG Version: 6.00 Build 0)  -->
<!DOCTYPE svg PUBLIC "-//W3C//DTD SVG 1.1//EN" "http://www.w3.org/Graphics/SVG/1.1/DTD/svg11.dtd">
<svg version="1.1" id="Layer_1" xmlns="http://www.w3.org/2000/svg" xmlns:xlink="http://www.w3.org/1999/xlink" x="0px" y="0px"
	 width="200px" height="200px" viewBox="0 0 200 200" enable-background="new 0 0 200 200" xml:space="preserve">
<g>
	<path opacity="0.5" fill="#E81F29" d="M162.482,120.073H97.658V59.314c0,0,25.584-3.595,48.395,16.981
		C165.379,93.729,162.482,120.073,162.482,120.073z"/>
	<g>
		<path fill="#A09E9E" d="M113.887,88.128c0,0,0.332-2.653-1.238-4.466c-1.57-1.812-5.836,3.582-5.836,3.582l3.537,0.441
			c5.283-2.034,5.617,5.371,5.617,5.371l-5.617-5.371"/>
		<path fill="#26201C" d="M74.977,92.647l32.773-5.015l10.854,12.146c0,0-9.021,3.5-13.057,3.971
			c-4.035,0.47-9.627-1.688-15.03,4.697l-5.835,1.462L74.977,92.647z"/>
		<path fill="#9890B2" d="M79.248,95.127l28.694-3.965l8.445,8.599c0,0-7.67,2.456-11.119,2.743
			c-3.447,0.289-8.267-1.391-12.798,3.253l-4.974,0.996L79.248,95.127z"/>
		<path fill="none" stroke="#333333" stroke-width="0.7129" stroke-miterlimit="10" d="M55.067,114.734c0,0,1.283-3.079,0.695-5.574
			c-0.586-2.495-0.6-5.439-0.6-5.439"/>
		<path fill="#8B8781" d="M101.307,134.783c0,0,4.934,8.948,4.041,13.526l3.453-0.468c0,0-3.039-9.906-5.535-12.728
			C100.773,132.293,101.307,134.783,101.307,134.783z"/>
		<path fill="#989088" d="M106.9,86.537c0,0,1.75-0.477,3.449,1.148c1.701,1.627,10.49,10.807,10.49,10.807l-4.258,0.521
			L106.9,86.537z"/>
		<path fill="none" stroke="#FFFFFF" stroke-width="1.4258" stroke-miterlimit="10" d="M105.234,147.397
			c0,0,1.391-2.811-3.488-11.623c-4.879-8.812-24.4-39.09-24.4-39.09s-3.416-3.574-0.973-5.155"/>
		<path fill="#1E1E1E" d="M80.588,118.823l21.218,27.249c0,0,0.023-3.051-2.697-7.162c-2.721-4.111-17.846-25.396-17.846-25.396
			L80.588,118.823z"/>
		<path fill="none" stroke="#443D33" stroke-width="2.1388" stroke-miterlimit="10" d="M88.526,111.456L76.479,92.835
			c0,0-0.371-0.62,1.043-1.163c1.234-0.472,22.573-3.485,28.029-4.25c0.805-0.113,1.271,0.327,1.271,0.327l1.072,0.814
			l10.041,13.186"/>
		<path fill="#989088" d="M136.41,126.91c0,0,1.561,1.402,1.971,4.597c0.408,3.194-0.033,6.014-0.033,6.014l-0.107,0.885
			l1.123,2.492c0,0,5.99-7.38-2.367-18.288"/>
		<path fill="#ADA7A7" d="M138.348,137.521l-30.639,7.312c0,0-0.521-2.346-1.805-5.181c-0.77-1.702-1.812-3.578-3.182-5.23
			c-3.878-4.683-10.958-21.215-10.958-21.215l-1.232-3.449l31.372-5.273l14.506,22.426
			C136.41,126.91,140.26,132.999,138.348,137.521z"/>
		<path fill="#BB3D37" d="M104.852,132.188l6.66-1.363c0,0,1.432-0.449,2.033,0.254c0.602,0.701,1.641,2.607,1.641,2.607
			s-0.018,0.939-0.941,1.242s-7.762,1.331-7.762,1.331s-1.098-0.124-1.469-0.706c-0.369-0.581-1.031-1.54-1.105-2.123
			C103.834,132.847,104.852,132.188,104.852,132.188z"/>
		<path fill="#CE4438" d="M105.324,132.034l6.068-1.129c0,0,1.305-0.376,1.855,0.232c0.555,0.607,1.516,2.254,1.516,2.254
			s-0.01,0.808-0.852,1.062c-0.838,0.254-7.072,1.094-7.072,1.094s-1.002-0.114-1.344-0.617c-0.342-0.505-0.951-1.331-1.023-1.834
			C104.402,132.593,105.324,132.034,105.324,132.034z"/>
		<path fill="#EFEB66" d="M116.039,129.633l6.66-1.363c0,0,1.432-0.448,2.033,0.254c0.602,0.701,1.641,2.609,1.641,2.609
			s-0.018,0.938-0.941,1.24c-0.922,0.304-7.76,1.331-7.76,1.331s-1.098-0.124-1.469-0.706c-0.369-0.582-1.031-1.539-1.105-2.122
			C115.021,130.291,116.039,129.633,116.039,129.633z"/>
		<path fill="#EDDF16" d="M116.512,129.479l6.068-1.129c0,0,1.305-0.376,1.855,0.231c0.553,0.608,1.516,2.255,1.516,2.255
			s-0.012,0.807-0.852,1.062s-7.07,1.094-7.07,1.094s-1.004-0.115-1.346-0.617c-0.34-0.504-0.951-1.331-1.023-1.834
			S116.512,129.479,116.512,129.479z"/>
		<path fill="#B2D99D" d="M126.764,127.173l6.293-1.298c0,0,1.354-0.425,1.92,0.239c0.566,0.667,1.549,2.476,1.549,2.476
			s-0.018,0.891-0.891,1.178c-0.871,0.288-7.332,1.268-7.332,1.268s-1.035-0.115-1.385-0.669c-0.35-0.553-0.975-1.461-1.043-2.015
			C125.805,127.798,126.764,127.173,126.764,127.173z"/>
		<path fill="#76BF69" d="M127.211,127.025l5.732-1.074c0,0,1.232-0.357,1.754,0.219c0.521,0.577,1.428,2.139,1.428,2.139
			s-0.01,0.766-0.803,1.008c-0.795,0.241-6.68,1.04-6.68,1.04s-0.947-0.106-1.27-0.583c-0.322-0.479-0.898-1.263-0.967-1.74
			C126.34,127.557,127.211,127.025,127.211,127.025z"/>
		<path fill="#ECE9EC" d="M100.931,126.55l6.661-1.363c0,0,1.434-0.447,2.033,0.254c0.602,0.702,1.643,2.61,1.643,2.61
			s-0.02,0.937-0.941,1.239c-0.924,0.304-7.762,1.332-7.762,1.332s-1.1-0.123-1.469-0.706c-0.37-0.582-1.032-1.54-1.106-2.123
			C99.915,127.209,100.931,126.55,100.931,126.55z"/>
		<path fill="#4C3F35" d="M101.404,126.396l6.068-1.128c0,0,1.305-0.376,1.857,0.231s1.516,2.255,1.516,2.255
			s-0.012,0.807-0.852,1.061c-0.842,0.255-7.072,1.094-7.072,1.094s-1.004-0.114-1.346-0.616c-0.342-0.504-0.951-1.332-1.023-1.834
			C100.481,126.954,101.404,126.396,101.404,126.396z"/>
		<path fill="#ECE9EC" d="M112.119,123.996l6.66-1.364c0,0,1.434-0.447,2.035,0.253c0.6,0.703,1.641,2.609,1.641,2.609
			s-0.02,0.938-0.941,1.241c-0.924,0.304-7.762,1.331-7.762,1.331s-1.1-0.123-1.471-0.705c-0.367-0.583-1.029-1.54-1.105-2.125
			C111.102,124.652,112.119,123.996,112.119,123.996z"/>
		<path fill="#4C3F35" d="M112.594,123.841l6.068-1.129c0,0,1.303-0.376,1.855,0.231s1.516,2.255,1.516,2.255
			s-0.012,0.807-0.852,1.062c-0.84,0.254-7.072,1.093-7.072,1.093s-1.004-0.113-1.344-0.617c-0.342-0.503-0.951-1.331-1.023-1.834
			C111.67,124.399,112.594,123.841,112.594,123.841z"/>
		<path fill="#ECE9EC" d="M122.846,121.535l6.293-1.299c0,0,1.352-0.425,1.918,0.24c0.568,0.666,1.549,2.475,1.549,2.475
			s-0.018,0.891-0.889,1.179c-0.873,0.289-7.332,1.267-7.332,1.267s-1.037-0.116-1.387-0.668c-0.348-0.553-0.973-1.461-1.045-2.015
			C121.885,122.159,122.846,121.535,122.846,121.535z"/>
		<path fill="#4C3F35" d="M123.293,121.388l5.73-1.073c0,0,1.232-0.358,1.754,0.219c0.521,0.575,1.43,2.138,1.43,2.138
			s-0.01,0.766-0.805,1.007c-0.793,0.242-6.68,1.042-6.68,1.042s-0.947-0.107-1.27-0.584c-0.322-0.479-0.898-1.263-0.965-1.74
			C122.42,121.918,123.293,121.388,123.293,121.388z"/>
		<path fill="#ECE9EC" d="M98.077,121.705l6.662-1.364c0,0,1.432-0.448,2.033,0.254c0.6,0.702,1.641,2.608,1.641,2.608
			s-0.018,0.938-0.941,1.24c-0.922,0.305-7.76,1.332-7.76,1.332s-1.1-0.123-1.47-0.706c-0.369-0.582-1.031-1.539-1.105-2.123
			C97.06,122.361,98.077,121.705,98.077,121.705z"/>
		<path fill="#4C3F35" d="M98.55,121.55l6.069-1.129c0,0,1.303-0.376,1.857,0.231c0.551,0.608,1.514,2.255,1.514,2.255
			s-0.01,0.807-0.852,1.061c-0.838,0.255-7.072,1.094-7.072,1.094s-1.004-0.113-1.345-0.617c-0.342-0.503-0.951-1.33-1.022-1.833
			C97.627,122.107,98.55,121.55,98.55,121.55z"/>
		<path fill="#ECE9EC" d="M109.264,119.148l6.662-1.363c0,0,1.434-0.448,2.033,0.254c0.602,0.701,1.641,2.608,1.641,2.608
			s-0.018,0.938-0.941,1.241c-0.922,0.303-7.76,1.331-7.76,1.331s-1.1-0.123-1.471-0.706c-0.369-0.581-1.031-1.539-1.105-2.123
			S109.264,119.148,109.264,119.148z"/>
		<path fill="#4C3F35" d="M109.738,118.994l6.068-1.129c0,0,1.305-0.375,1.857,0.232s1.514,2.254,1.514,2.254
			s-0.01,0.808-0.852,1.062c-0.84,0.255-7.07,1.093-7.07,1.093s-1.004-0.112-1.346-0.616s-0.949-1.331-1.021-1.834
			S109.738,118.994,109.738,118.994z"/>
		<path fill="#ECE9EC" d="M119.99,116.689l6.293-1.299c0,0,1.352-0.426,1.92,0.239c0.566,0.667,1.547,2.476,1.547,2.476
			s-0.018,0.891-0.889,1.177c-0.871,0.289-7.33,1.269-7.33,1.269s-1.037-0.116-1.387-0.67c-0.35-0.552-0.973-1.46-1.045-2.014
			C119.031,117.312,119.99,116.689,119.99,116.689z"/>
		<path fill="#4C3F35" d="M120.439,116.542l5.73-1.075c0,0,1.23-0.357,1.754,0.219c0.521,0.576,1.428,2.139,1.428,2.139
			s-0.01,0.766-0.803,1.007c-0.793,0.242-6.68,1.042-6.68,1.042s-0.947-0.106-1.27-0.585c-0.322-0.477-0.898-1.262-0.965-1.738
			C119.566,117.073,120.439,116.542,120.439,116.542z"/>
		<path fill="#ECE9EC" d="M94.917,117.161l6.662-1.365c0,0,1.432-0.446,2.033,0.254c0.6,0.703,1.641,2.61,1.641,2.61
			s-0.018,0.938-0.941,1.24c-0.922,0.305-7.76,1.332-7.76,1.332s-1.1-0.124-1.47-0.707c-0.369-0.581-1.031-1.539-1.106-2.123
			C93.9,117.818,94.917,117.161,94.917,117.161z"/>
		<path fill="#4C3F35" d="M95.39,117.006l6.069-1.128c0,0,1.303-0.377,1.855,0.231c0.555,0.607,1.516,2.255,1.516,2.255
			s-0.01,0.806-0.852,1.061c-0.84,0.255-7.072,1.093-7.072,1.093s-1.004-0.112-1.345-0.616s-0.95-1.332-1.022-1.834
			C94.467,117.564,95.39,117.006,95.39,117.006z"/>
		<path fill="#ECE9EC" d="M106.104,114.605l6.662-1.364c0,0,1.434-0.447,2.033,0.254c0.6,0.702,1.641,2.608,1.641,2.608
			s-0.018,0.938-0.939,1.241c-0.924,0.304-7.762,1.332-7.762,1.332s-1.1-0.123-1.471-0.706c-0.369-0.582-1.031-1.54-1.105-2.123
			C105.088,115.263,106.104,114.605,106.104,114.605z"/>
		<path fill="#4C3F35" d="M106.578,114.451l6.068-1.13c0,0,1.305-0.376,1.857,0.231c0.553,0.608,1.514,2.255,1.514,2.255
			s-0.01,0.807-0.85,1.062c-0.84,0.254-7.072,1.093-7.072,1.093s-1.004-0.112-1.346-0.616c-0.342-0.503-0.949-1.331-1.021-1.834
			C105.656,115.01,106.578,114.451,106.578,114.451z"/>
		<path fill="#ECE9EC" d="M116.832,112.146l6.291-1.299c0,0,1.352-0.426,1.92,0.24c0.566,0.666,1.549,2.474,1.549,2.474
			s-0.018,0.891-0.891,1.179c-0.871,0.289-7.33,1.268-7.33,1.268s-1.037-0.116-1.387-0.669c-0.35-0.552-0.973-1.46-1.043-2.014
			C115.869,112.769,116.832,112.146,116.832,112.146z"/>
		<path fill="#4C3F35" d="M117.277,111.997l5.732-1.073c0,0,1.23-0.357,1.754,0.219c0.521,0.575,1.428,2.139,1.428,2.139
			s-0.01,0.765-0.803,1.007s-6.68,1.042-6.68,1.042s-0.947-0.108-1.27-0.585c-0.322-0.479-0.898-1.263-0.965-1.74
			C116.406,112.529,117.277,111.997,117.277,111.997z"/>
		<path fill="#ECE9EC" d="M91.815,112.504l6.66-1.363c0,0,1.433-0.449,2.034,0.253c0.6,0.702,1.641,2.608,1.641,2.608
			s-0.018,0.938-0.941,1.241c-0.923,0.304-7.761,1.331-7.761,1.331s-1.099-0.123-1.469-0.705c-0.369-0.583-1.031-1.54-1.106-2.124
			C90.799,113.162,91.815,112.504,91.815,112.504z"/>
		<path fill="#4C3F35" d="M92.288,112.35l6.069-1.13c0,0,1.303-0.376,1.856,0.231c0.553,0.608,1.515,2.255,1.515,2.255
			s-0.012,0.808-0.851,1.062c-0.841,0.255-7.072,1.093-7.072,1.093s-1.004-0.112-1.345-0.617c-0.341-0.502-0.951-1.33-1.023-1.833
			S92.288,112.35,92.288,112.35z"/>
		<path fill="#ECE9EC" d="M103.004,109.948l6.66-1.364c0,0,1.432-0.448,2.033,0.254c0.6,0.702,1.641,2.608,1.641,2.608
			s-0.018,0.938-0.939,1.241c-0.924,0.305-7.764,1.332-7.764,1.332s-1.098-0.124-1.469-0.706c-0.369-0.582-1.031-1.54-1.105-2.124
			C101.986,110.606,103.004,109.948,103.004,109.948z"/>
		<path fill="#4C3F35" d="M103.477,109.793l6.068-1.129c0,0,1.303-0.375,1.857,0.232c0.551,0.607,1.514,2.254,1.514,2.254
			s-0.012,0.808-0.852,1.062c-0.84,0.255-7.072,1.094-7.072,1.094s-1.002-0.113-1.344-0.616c-0.342-0.505-0.951-1.331-1.023-1.835
			C102.553,110.352,103.477,109.793,103.477,109.793z"/>
		<path fill="#ECE9EC" d="M113.729,107.488l6.293-1.299c0,0,1.352-0.425,1.92,0.24c0.566,0.666,1.549,2.475,1.549,2.475
			s-0.018,0.892-0.891,1.179s-7.332,1.267-7.332,1.267s-1.035-0.116-1.385-0.669c-0.35-0.552-0.975-1.46-1.045-2.014
			C112.77,108.112,113.729,107.488,113.729,107.488z"/>
		<path fill="#4C3F35" d="M114.176,107.341l5.732-1.075c0,0,1.232-0.356,1.754,0.22c0.52,0.576,1.428,2.138,1.428,2.138
			s-0.01,0.766-0.803,1.008s-6.68,1.041-6.68,1.041s-0.947-0.106-1.271-0.585c-0.32-0.476-0.896-1.261-0.963-1.738
			C113.305,107.872,114.176,107.341,114.176,107.341z"/>
		<path fill="#201D1E" d="M99,110.038c0,0,21.269-4.68,22.992-4.105c1.725,0.574,14.418,20.978,14.418,20.978l1.516-1.598
			l-1.568-4.562c0,0-10.738-20.832-12.508-21.771s-5.539-0.242-5.539-0.242l-22.792,3.889c-2.112,1.097-8.706,8.167-8.706,8.167
			l15.557,25.021c0,0,0.66,0.338,0.773-0.441c0.477-3.255,1.018-12.933-0.115-17.789c-1.404-6.021-7.842-11.044-8.287-13.524
			L99,110.038z"/>
		<path fill="#8F8B8B" d="M138.438,138.78l-29.906,7.532c0,0-3.666,2.234-4.957-5.05c0,0-5.672-12.831-16.895-29.409
			C75.458,95.276,72.781,92.967,76.374,91.529c0,0-3.624,0.197-4.002,1.117c-0.377,0.919-3.193,7.595-3.193,7.595l12.662,14.084
			l18.836,27.433c0,0,1.187,2.435,1.13,4.314c0,0,1.969,2.221,4.291,3.049c2.32,0.829,5.393-0.045,5.393-0.045l27.873-8.179
			L138.438,138.78z"/>
		<polygon fill="#0F0E0E" points="107.709,144.833 138.348,137.521 138.438,138.78 107.959,146.241 		"/>
		<path fill="#D3D2D1" d="M37.774,90.664c0,0,13.707,3.865,15.277,2.805c1.569-1.062,3.291-10.546,19.32-0.822
			c0,0-1.744,3.913-1.723,6.609l0.554,2.764l2.188,1.171c0,0,8.489,2.497,7.873,10.323c0,0-0.221,4.642-1.127,4.709l13.4,17.836
			c0,0-5.991-2.363-6.234-3.292s-6.545-3.69-6.722-5.149c0,0-8.999-2.739-9.308-4.573l-16.207-8.31l-19.409,0.093L37.774,90.664z"/>
		<path fill="#A09E9E" d="M80.137,118.223c-3.69,3.67-7.34-1.635-7.34-1.635s-4.046-2.122-5.219-4.243
			c-1.172-2.122-6.765-3.359-9.971-5.016c-3.205-1.658-4.951-13.725-4.951-13.725s4.826,8.479,8.99,8.71
			c4.162,0.229,8.006,7.808,8.006,7.808l6.592,5.096L80.137,118.223z"/>
		<path fill="#A09E9E" d="M51.933,114.906c0,0,4.187-4.366,3.97-4.745c-0.218-0.379,1.126,5.579,1.126,5.579l-1.841-1.322
			L51.933,114.906z"/>
		<path fill="none" stroke="#7B7B7B" stroke-width="0.3565" stroke-miterlimit="10" d="M72.797,116.588c0,0,1.998-2.492,3.929-1
			c1.932,1.492,3.411,2.635,3.411,2.635l-4.253,0.979L72.797,116.588z"/>
	</g>
	
		<circle fill="none" stroke="#383838" stroke-width="14.1531" stroke-linecap="round" stroke-linejoin="round" stroke-miterlimit="10" cx="99.344" cy="120.164" r="61.684"/>
	
		<circle fill="none" stroke="#4C4C4D" stroke-width="12.7506" stroke-linecap="round" stroke-linejoin="round" stroke-miterlimit="10" cx="98.559" cy="120.164" r="61.685"/>
	
		<line fill="none" stroke="#4C4C4D" stroke-width="3.9846" stroke-linecap="round" stroke-linejoin="round" stroke-miterlimit="10" x1="98.557" y1="58.479" x2="98.557" y2="72.668"/>
	
		<line fill="none" stroke="#4C4C4D" stroke-width="3.9846" stroke-linecap="round" stroke-linejoin="round" stroke-miterlimit="10" x1="143.76" y1="74.962" x2="132.143" y2="86.579"/>
	
		<line fill="none" stroke="#4C4C4D" stroke-width="3.9846" stroke-linecap="round" stroke-linejoin="round" stroke-miterlimit="10" x1="162.482" y1="120.164" x2="146.053" y2="120.164"/>
	
		<line fill="none" stroke="#4C4C4D" stroke-width="3.9846" stroke-linecap="round" stroke-linejoin="round" stroke-miterlimit="10" x1="143.76" y1="165.365" x2="132.143" y2="153.748"/>
	
		<line fill="none" stroke="#4C4C4D" stroke-width="3.9846" stroke-linecap="round" stroke-linejoin="round" stroke-miterlimit="10" x1="98.559" y1="184.089" x2="98.557" y2="167.661"/>
	
		<line fill="none" stroke="#4C4C4D" stroke-width="3.9846" stroke-linecap="round" stroke-linejoin="round" stroke-miterlimit="10" x1="53.358" y1="165.366" x2="64.973" y2="153.748"/>
	
		<line fill="none" stroke="#4C4C4D" stroke-width="3.9846" stroke-linecap="round" stroke-linejoin="round" stroke-miterlimit="10" x1="34.634" y1="120.166" x2="51.063" y2="120.164"/>
	
		<line fill="none" stroke="#4C4C4D" stroke-width="3.9846" stroke-linecap="round" stroke-linejoin="round" stroke-miterlimit="10" x1="53.356" y1="74.964" x2="64.974" y2="86.579"/>
	<path fill="#4C4C4D" stroke="#333333" stroke-width="0.8325" stroke-miterlimit="10" d="M115.889,56.24
		c0,0-4.002,2.238-17.113,2.238c-13.11,0-17.549-2.238-17.549-2.238V39.655h34.662V56.24z"/>
	<path fill="#4C4C4D" stroke="#333333" stroke-width="0.8325" stroke-miterlimit="10" d="M127.883,28.289
		c0,9.819-6.48,17.779-14.475,17.779c0,0-3.277,2.156-14.088,2.156c-10.812,0-15.612-2.156-15.612-2.156
		c-7.996,0-14.476-7.96-14.476-17.779l0,0c0-9.82,6.479-17.78,14.476-17.78h29.701C121.402,10.509,127.883,18.469,127.883,28.289
		L127.883,28.289z"/>
</g>
</svg>
