<svg id="Calque_1" data-name="Calque 1" xmlns="http://www.w3.org/2000/svg" xmlns:xlink="http://www.w3.org/1999/xlink" viewBox="0 0 400 400"><defs><style>.cls-1,.cls-2{fill:#0e1312;}.cls-1,.cls-2,.cls-4{stroke-miterlimit:10;}.cls-1{stroke:url(#Nouvelle_nuance_de_dégradé_3);}.cls-2{stroke:#0e1312;}.cls-3,.cls-4{fill:#58646d;}.cls-4{stroke:#000;}.cls-5{fill:#32334a;}.cls-6{fill:#fff;}.cls-7{fill:#5d86a5;}.cls-8{fill:url(#Nouvelle_nuance_de_dégradé_2);}.cls-9{fill:url(#Nouvelle_nuance_de_dégradé_2-3);}</style><linearGradient id="Nouvelle_nuance_de_dégradé_3" x1="47.51" y1="211.73" x2="352.49" y2="211.73" gradientUnits="userSpaceOnUse"><stop offset="0.01" stop-color="#bdccd4"/><stop offset="0.25"/><stop offset="0.65"/><stop offset="0.65" stop-color="#050505"/><stop offset="0.75" stop-color="#454b4e"/><stop offset="0.84" stop-color="#798288"/><stop offset="0.91" stop-color="#9eaab1"/><stop offset="0.97" stop-color="#b5c3cb"/><stop offset="1" stop-color="#bdccd4"/></linearGradient><linearGradient id="Nouvelle_nuance_de_dégradé_2" x1="107.5" y1="39.16" x2="333.06" y2="39.16" gradientUnits="userSpaceOnUse"><stop offset="0" stop-color="#f7eead"/><stop offset="0.18" stop-color="#f1e7a4"/><stop offset="0.48" stop-color="#e3d58a"/><stop offset="0.86" stop-color="#cab761"/><stop offset="0.99" stop-color="#c1ac51"/></linearGradient><linearGradient id="Nouvelle_nuance_de_dégradé_2-3" x1="107.5" y1="39.16" x2="333.05" y2="39.16" gradientTransform="matrix(-1, 0, 0, 1, 581.03, 0)" xlink:href="#Nouvelle_nuance_de_dégradé_2"/></defs><title>Plan de travail 1@SVG</title><path class="cls-1" d="M351.88,157.24c-.07-1.18-.18-2.36-.3-3.53a101.11,101.11,0,0,0-2.43-13.94,97.23,97.23,0,0,0-10.83-26,117.45,117.45,0,0,0-17.2-22.37A131.52,131.52,0,0,0,299.25,73.5a132,132,0,0,1,21.83,17.88,115.38,115.38,0,0,1,17.13,22.4,95.09,95.09,0,0,1,13,40c.1,1.17.21,2.35.26,3.52a8,8,0,0,1-.18,3.4,1.8,1.8,0,0,1-1.11,1,4.36,4.36,0,0,1-1.66.21l-3.53-.1L231.87,161l-14.14-.1-3.54,0c-1.19,0-2.29-.06-3.63,0a5,5,0,0,0-2.1.6,3.38,3.38,0,0,0-1.51,1.92,12.87,12.87,0,0,0-.34,3.83l-.13,28.28-.25,56.55q-.12,28.29,0,56.56l0,56.56v1.5h27.56v-171a19.07,19.07,0,0,1,.08-2.06l.06-.4c0-.08,0-.23.08-.25s0,0,.08-.11a5.07,5.07,0,0,1,1.52-.23c.68,0,1.43,0,2.16,0l35.7-.1,35.7-.1,17.84,0,8.93,0h4.46c1.07,0,3.1.1,3.1.1s0,.84,0,1.23-.06.7-.1,1.33,0,1,0,1.48l0,5.4a18.6,18.6,0,0,1-.47,4.94,3.71,3.71,0,0,1-1,1.63,4.25,4.25,0,0,1-1.77.86c-.36.08-.76.12-1.13.19l-1.23.07h-83a13.22,13.22,0,0,0-1.51.06,5.94,5.94,0,0,0-1.75.41,3.62,3.62,0,0,0-1.72,1.4,6.23,6.23,0,0,0-.78,3.46c0,1.88.11,3.66.18,5.49l.46,10.89c.15,3.62.3,7.24.4,10.86l.12,5.42v4a10,10,0,0,0,.09,1.61,4.59,4.59,0,0,0,.64,1.86,3.68,3.68,0,0,0,1.74,1.43,8.62,8.62,0,0,0,3.26.42l5.45,0,10.89,0,10.89,0,5.45,0h2.72a6.85,6.85,0,0,1,2.13.2c.23.09.27.15.32.23a1.33,1.33,0,0,1,.15.61,6.73,6.73,0,0,1,0,1.08c-.06.47-.1,1-.13,1.43a27.67,27.67,0,0,0,0,2.88c0,.48.06,1,.11,1.44a8.68,8.68,0,0,1,.07,1.16,1.84,1.84,0,0,1-.13.72c-.06.12-.08.14-.25.23a2.39,2.39,0,0,1-.83.2,8.63,8.63,0,0,1-1.17,0h-5.45l-21.79,0H256.2a21.5,21.5,0,0,0-2.93.11,5.59,5.59,0,0,0-.94.21c-.19.08-.38.16-.57.26a2.93,2.93,0,0,0-1.46,2.63c-.08,1.12,0,2,0,2.88,0,1.77,0,3.6,0,5.41,0,14.5-.35,29-.68,43.52s-.51,29.07-.47,43.59v1.5h1.5l45.13,0h11.28c.91,0,2,0,2.69,0a3.2,3.2,0,0,1,.89.18c.18.1.22.12.3.26a2.41,2.41,0,0,1,.18.78c0,.38,0,.73,0,1.24l-.05,2.82c0,.45,0,.9-.07,1.27a1.85,1.85,0,0,1-.08.42c.11,0,.13,0,0,0s0,.06,0,0a1.8,1.8,0,0,1-.32,0,12.42,12.42,0,0,1-1.25,0c-1.85,0-3.8,0-5.66,0H292.44l-90.23,0L112,374H94.41l-.58-.06a11.76,11.76,0,0,1-1.21-.22c-.19,0-.27-.29-.12-.24l-.46-.18a31.28,31.28,0,0,1,.14-5.37l.08-.69a9.74,9.74,0,0,1,1.21-.14c.37,0,.85,0,1.32,0h11.28l45.12,0h1.5v-1.5c0-13.85.13-27.67.42-41.52s.62-27.7.69-41.57l0-10.4c0-.45,0-.9,0-1.38a6,6,0,0,0-.31-1.73,4.87,4.87,0,0,0-.28-.56,3,3,0,0,0-.47-.54,2.87,2.87,0,0,0-1.11-.63A6.75,6.75,0,0,0,150,267c-1.86-.06-3.51,0-5.27,0l-20.78,0-10.39,0c-.86,0-1.79,0-2.47,0a3.85,3.85,0,0,1-.89-.16.69.69,0,0,1-.34-.21,2.56,2.56,0,0,1-.15-1.49l.12-1.31c0-.45,0-.91.06-1.37a25.27,25.27,0,0,0-.09-2.75l-.11-1.25a3.77,3.77,0,0,1,0-.92.71.71,0,0,1,.16-.38.94.94,0,0,1,.46-.22,4.91,4.91,0,0,1,1-.12c.18,0,.38,0,.57,0h11l20.78,0h5.21c.44,0,.91,0,1.39,0l.78-.08.45-.1a1.9,1.9,0,0,0,.51-.17,2.72,2.72,0,0,0,.56-.29,3.09,3.09,0,0,0,.54-.48,5.71,5.71,0,0,0,.39-.61,5.09,5.09,0,0,0,.19-.55,6.72,6.72,0,0,0,.18-1.66l0-5.23c0-1.75-.07-3.49-.14-5.23-.25-6.94-.65-13.86-.85-20.75-.06-1.72-.08-3.44-.08-5.14,0-.86,0-1.64,0-2.73a6,6,0,0,0-.41-1.74,3.48,3.48,0,0,0-1.46-1.65,6.59,6.59,0,0,0-3.27-.66H61.87c-1.17,0-3.6.11-3.6.11s.11-2.1.14-3.13c0-1.58,0-3.13.11-4.67a25,25,0,0,1,.54-4.42,7.21,7.21,0,0,1,1.69-3.47,5.85,5.85,0,0,1,3.36-1.58,13.14,13.14,0,0,1,2.11-.18h49.66c12.61,0,25.22,0,37.85.09l9.46.07,2.37,0a7.22,7.22,0,0,1,1.91.13c.44.17.44.19.59.55a8.93,8.93,0,0,1,.07,1.88v94.68c0,25.23,0,50.45.06,75.7V367h1.48l6.09,0h19.76V161l-1.35-.14c-1.1-.11-2.31-.33-3.63-.39-.71,0-1.24,0-1.85,0H165.48l-28.56,0H79.8l-28.2.13a1.94,1.94,0,0,1-.47-.16.23.23,0,0,0-.11-.08s0-.08-.08-.11a2.39,2.39,0,0,1-.24-1.07,24.39,24.39,0,0,1,.14-3.35q.16-1.77.39-3.51c.13-1.17.28-2.33.49-3.49A91.73,91.73,0,0,1,55,135.17,94.05,94.05,0,0,1,67.51,110a104.88,104.88,0,0,1,8.85-11l2.38-2.63,2.49-2.52c.84-.84,1.66-1.69,2.51-2.51l2.62-2.39A143,143,0,0,1,109.12,72,161.93,161.93,0,0,1,134.75,59.8a200.77,200.77,0,0,1,27.32-8,209.1,209.1,0,0,1,28.16-4.33,183.22,183.22,0,0,1,28.5-.28c4.75.29,9.47.87,14.18,1.52s9.39,1.58,14,2.69a161.11,161.11,0,0,1,49.31,20.19A162.24,162.24,0,0,0,247,51.25c-4.63-1.14-9.32-2-14-2.77s-9.44-1.28-14.19-1.59a189.08,189.08,0,0,0-28.56,0,212.64,212.64,0,0,0-28.3,4,202.4,202.4,0,0,0-27.52,7.79,162.81,162.81,0,0,0-26,12,144.75,144.75,0,0,0-23.24,16.8L82.46,90c-.87.82-1.71,1.67-2.57,2.51L77.33,95l-2.44,2.64a104,104,0,0,0-9.15,11.12,96.3,96.3,0,0,0-13.09,25.64,94.08,94.08,0,0,0-3.47,14c-.22,1.18-.39,2.38-.54,3.57s-.31,2.39-.43,3.59a25.34,25.34,0,0,0-.18,3.78,4.73,4.73,0,0,0,.64,2.33,3,3,0,0,0,.47.6,6.65,6.65,0,0,0,.59.46,4.64,4.64,0,0,0,1.19.48,16.06,16.06,0,0,0,3.93.25c1.22,0,2.43-.12,3.56-.11,2.32,0,4.74,0,7.11,0l14.28.07,57.12,0h51.77c.58,0,1.23,0,1.72,0,.66,0,1.37.11,2.11.21V364.07H175.77l-4.59,0c-.11-24.72,0-49.47-.06-74.2V195.31a10.55,10.55,0,0,0-.18-2.83,3.68,3.68,0,0,0-1-1.69,4,4,0,0,0-1.64-.93,9.7,9.7,0,0,0-2.79-.25l-2.36,0-9.46-.07c-12.6-.13-25.22-.07-37.83-.09H66.2a17.89,17.89,0,0,0-2.6.22,8.91,8.91,0,0,0-5,2.44A10.21,10.21,0,0,0,56.14,197a28,28,0,0,0-.61,5c-.08,1.61-.1,3.21-.12,4.78s-.15,3.09-.22,4.63L55.11,213l1.68-.06c1.7-.05,3.35-.2,5.09-.18H145c1.64,0,3.79-.11,4.36.27.12.07.14.09.22.26a2.46,2.46,0,0,1,.17.78c0,.64,0,1.59,0,2.47,0,1.75,0,3.5.08,5.24.2,7,.61,13.87.86,20.77.06,1.72.11,3.44.13,5.15l0,5.16,0,.55c0,.12,0,.28,0,.34h-.05l-.18,0-.51.05c-.38,0-.78,0-1.21,0h-5.18l-20.77,0h-11c-.25,0-.48,0-.73,0a7.52,7.52,0,0,0-1.61.23,4,4,0,0,0-1.8,1,3.77,3.77,0,0,0-1,1.91,10.9,10.9,0,0,0,0,3c.07.81.09,1.62.08,2.44,0,.41,0,.81-.06,1.22l-.11,1.27a7.33,7.33,0,0,0,0,1.62,4,4,0,0,0,.72,1.9,3.72,3.72,0,0,0,1.75,1.26,6.73,6.73,0,0,0,1.65.32c1,.07,1.86,0,2.73,0l10.39,0,20.76,0c1.71,0,3.53,0,5.12,0a3.81,3.81,0,0,1,.9.12,6.38,6.38,0,0,1,.1.78c0,.38,0,.79,0,1.21l0,10.38c-.07,13.83-.39,27.67-.69,41.52-.28,13.35-.45,26.73-.42,40.08l-43.63,0H94.78c-.46,0-.92,0-1.5,0s-1,.1-1.57.19a6.63,6.63,0,0,0-.88.22,2.39,2.39,0,0,0-.69.32,1.67,1.67,0,0,0-.38.33,1.85,1.85,0,0,0-.38.86l0,.18-.16,1.43a33.08,33.08,0,0,0-.15,5.9l.07.75,0,.19v.09a2,2,0,0,0,.2.61,1.24,1.24,0,0,0,.24.34,2.47,2.47,0,0,0,.23.23,3.08,3.08,0,0,0,.34.24,6.76,6.76,0,0,0,1.73.65,14.24,14.24,0,0,0,1.56.29c.27,0,.54.06.82.07H112l90.24,0,90.23,0h11.28c1.91,0,3.72,0,5.63,0a14.24,14.24,0,0,0,1.57,0l.47-.07a2.31,2.31,0,0,0,.54-.13,3.1,3.1,0,0,0,.61-.26,3.71,3.71,0,0,0,.62-.49,4.22,4.22,0,0,0,.44-.63c.08-.19.16-.38.23-.58a6.78,6.78,0,0,0,.18-1c.06-.56.07-1.06.09-1.55l.05-2.81a7,7,0,0,0-.55-3.51,3.55,3.55,0,0,0-1.74-1.6A5.79,5.79,0,0,0,310,364c-1.15-.06-2,0-3,0H295.78l-43.61,0q0-21,.47-42c.33-14.51.64-29,.68-43.58,0-1.82,0-3.62,0-5.49,0-.89-.07-1.87,0-2.55a3,3,0,0,1,0-.32l.36-.07a21.77,21.77,0,0,1,2.51-.08h8.17l21.76,0h5.45a11.87,11.87,0,0,0,1.54-.07,5.21,5.21,0,0,0,1.8-.48,3.41,3.41,0,0,0,1.64-1.63,4.77,4.77,0,0,0,.43-1.92,10.55,10.55,0,0,0-.09-1.57c0-.42-.07-.85-.09-1.27a21.87,21.87,0,0,1,0-2.56c0-.43.06-.85.11-1.28a9.76,9.76,0,0,0,0-1.64,4.27,4.27,0,0,0-.6-2,3.52,3.52,0,0,0-1.78-1.43,8.55,8.55,0,0,0-3.24-.4h-2.72l-5.45,0-10.88,0-10.89,0-5.45,0a6.07,6.07,0,0,1-2.11-.2.64.64,0,0,1-.34-.25,2.16,2.16,0,0,1-.21-.7,7.75,7.75,0,0,1,0-1.11v-4.13l-.12-5.47c-.1-3.64-.25-7.27-.4-10.9l-.46-10.88c-.07-1.8-.14-3.64-.18-5.39a3.78,3.78,0,0,1,.29-1.8.67.67,0,0,1,.36-.27,3,3,0,0,1,.9-.19,11.31,11.31,0,0,1,1.2,0H337.9l1.49-.08c.52-.09,1-.15,1.55-.27a7.27,7.27,0,0,0,3.06-1.54,6.76,6.76,0,0,0,1.83-3,21,21,0,0,0,.61-5.85l0-5.49c0-.46,0-.88,0-1.24s.1-.89.11-1.38a16.14,16.14,0,0,0-.19-3l-.19-1.2-1.18,0c-1.53-.06-3.1-.19-4.58-.17h-4.46l-8.92,0-17.85,0-35.69.1-35.7.1c-.75,0-1.49,0-2.29,0a6.74,6.74,0,0,0-2.83.59,3.16,3.16,0,0,0-1.37,1.53,4.2,4.2,0,0,0-.26.81c-.06.24-.08.46-.12.7-.09.87-.09,1.63-.1,2.39V363.76H209.22V308.7q0-28.28-.07-56.56l-.3-56.56-.15-28.28a12,12,0,0,1,.2-3.18,1.29,1.29,0,0,1,.6-.82,3.1,3.1,0,0,1,1.27-.35c1-.09,2.27,0,3.43-.06l3.54,0,14.14-.08c37.7-.18,75.41-.47,113.11-.45l3.53.06a5,5,0,0,0,1.83-.25,2.3,2.3,0,0,0,1.36-1.32A8.43,8.43,0,0,0,351.88,157.24Z"/><path class="cls-2" d="M351.29,160.66a1.8,1.8,0,0,1-1.11,1,4.36,4.36,0,0,1-1.66.21l-3.53-.1L231.87,161l-14.14-.1-3.54,0c-1.19,0-2.29-.06-3.63,0a5,5,0,0,0-2.1.6,3.38,3.38,0,0,0-1.51,1.92,12.87,12.87,0,0,0-.34,3.83l-.13,28.28-.25,56.55q-.12,28.29,0,56.56l0,56.56v1.5h27.56v-171a19.07,19.07,0,0,1,.08-2.06l.06-.4c0-.08,0-.23.08-.25s0,0,.08-.11a5.07,5.07,0,0,1,1.52-.23c.68,0,1.43,0,2.16,0l35.7-.1,35.7-.1,17.84,0,8.93,0h4.46c1.07,0,2.08,0,3.1.1a10.2,10.2,0,0,1,0,1.23c0,.41-.06.7-.1,1.33s0,1,0,1.48l0,5.4a18.6,18.6,0,0,1-.47,4.94,3.71,3.71,0,0,1-1,1.63,4.25,4.25,0,0,1-1.77.86c-.36.08-.76.12-1.13.19l-1.23.07h-83a13.22,13.22,0,0,0-1.51.06,5.94,5.94,0,0,0-1.75.41,3.62,3.62,0,0,0-1.72,1.4,6.23,6.23,0,0,0-.78,3.46c0,1.88.11,3.66.18,5.49l.46,10.89c.15,3.62.3,7.24.4,10.86l.12,5.42v4a10,10,0,0,0,.09,1.61,4.59,4.59,0,0,0,.64,1.86,3.68,3.68,0,0,0,1.74,1.43,8.62,8.62,0,0,0,3.26.42l5.45,0,10.89,0,10.89,0,5.45,0h2.72a6.85,6.85,0,0,1,2.13.2c.23.09.27.15.32.23a1.33,1.33,0,0,1,.15.61,6.73,6.73,0,0,1,0,1.08c-.06.47-.1,1-.13,1.43a27.67,27.67,0,0,0,0,2.88c0,.48.06,1,.11,1.44a8.68,8.68,0,0,1,.07,1.16,1.84,1.84,0,0,1-.13.72c-.06.12-.08.14-.25.23a2.39,2.39,0,0,1-.83.2,8.63,8.63,0,0,1-1.17,0h-5.45l-21.79,0H256.2a21.5,21.5,0,0,0-2.93.11,5.59,5.59,0,0,0-.94.21c-.19.08-.38.16-.57.26a2.93,2.93,0,0,0-1.46,2.63c-.08,1.12,0,2,0,2.88,0,1.77,0,3.6,0,5.41,0,14.5-.35,29-.68,43.52s-.51,29.07-.47,43.59v1.5h1.5l45.13,0h11.28c.91,0,2,0,2.69,0a3.2,3.2,0,0,1,.89.18c.18.1.22.12.3.26a2.41,2.41,0,0,1,.18.78c0,.38,0,.73,0,1.24l-.05,2.82c0,.45,0,.9-.07,1.27a1.85,1.85,0,0,1-.08.42,1.8,1.8,0,0,1-.32,0,12.42,12.42,0,0,1-1.25,0c-1.85,0-3.8,0-5.66,0H292.44l-90.23,0L112,374H94.41l-.58-.06a11.76,11.76,0,0,1-1.21-.22,4.58,4.58,0,0,1-.56-.17l0-.25a31.28,31.28,0,0,1,.14-5.37l.08-.69a9.74,9.74,0,0,1,1.21-.14c.37,0,.85,0,1.32,0h11.28l45.12,0h1.5v-1.5c0-13.85.13-27.67.42-41.52s.62-27.7.69-41.57l0-10.4c0-.45,0-.9,0-1.38a6,6,0,0,0-.31-1.73,4.87,4.87,0,0,0-.28-.56,3,3,0,0,0-.47-.54,2.87,2.87,0,0,0-1.11-.63A6.75,6.75,0,0,0,150,267c-1.86-.06-3.51,0-5.27,0l-20.78,0-10.39,0c-.86,0-1.79,0-2.47,0a3.85,3.85,0,0,1-.89-.16.69.69,0,0,1-.34-.21,2.56,2.56,0,0,1-.15-1.49l.12-1.31c0-.45,0-.91.06-1.37a25.27,25.27,0,0,0-.09-2.75l-.11-1.25a3.77,3.77,0,0,1,0-.92.71.71,0,0,1,.16-.38.94.94,0,0,1,.46-.22,4.91,4.91,0,0,1,1-.12c.18,0,.38,0,.57,0h11l20.78,0h5.21c.44,0,.91,0,1.39,0l.78-.08.45-.1a1.9,1.9,0,0,0,.51-.17,2.72,2.72,0,0,0,.56-.29,3.09,3.09,0,0,0,.54-.48,5.71,5.71,0,0,0,.39-.61,5.09,5.09,0,0,0,.19-.55,6.72,6.72,0,0,0,.18-1.66l0-5.23c0-1.75-.07-3.49-.14-5.23-.25-6.94-.65-13.86-.85-20.75-.06-1.72-.08-3.44-.08-5.14,0-.86,0-1.64,0-2.73a6,6,0,0,0-.41-1.74,3.48,3.48,0,0,0-1.46-1.65,6.59,6.59,0,0,0-3.27-.66H61.87c-1.17,0-2.39.05-3.6.11.06-1.05.11-2.1.14-3.13,0-1.58,0-3.13.11-4.67a25,25,0,0,1,.54-4.42,7.21,7.21,0,0,1,1.69-3.47,5.85,5.85,0,0,1,3.36-1.58,13.14,13.14,0,0,1,2.11-.18h49.66c12.61,0,25.22,0,37.85.09l9.46.07,2.37,0a7.22,7.22,0,0,1,1.91.13c.44.17.44.19.59.55a8.93,8.93,0,0,1,.07,1.88v94.68c0,25.23,0,50.45.06,75.7V367h1.48l6.09,0h19.76V161l-1.35-.14c-1.1-.11-2.31-.33-3.63-.39-.71,0-1.24,0-1.85,0H165.48l-28.56,0H79.8l-28.2.13a1.94,1.94,0,0,1-.47-.16.23.23,0,0,0-.11-.08s0-.08-.08-.11a2.39,2.39,0,0,1-.24-1.07,24.39,24.39,0,0,1,.14-3.35q.16-1.77.39-3.51c.13-1.17.28-2.33.49-3.49A91.73,91.73,0,0,1,55,135.17,94.05,94.05,0,0,1,67.51,110a104.88,104.88,0,0,1,8.85-11l2.38-2.63,2.49-2.52c.84-.84,1.66-1.69,2.51-2.51l2.62-2.39A143,143,0,0,1,109.12,72,161.93,161.93,0,0,1,134.75,59.8a200.77,200.77,0,0,1,27.32-8,209.1,209.1,0,0,1,28.16-4.33,183.22,183.22,0,0,1,28.5-.28c4.75.29,9.47.87,14.18,1.52s9.39,1.58,14,2.69a161.11,161.11,0,0,1,49.31,20.19c1,.63,2,1.27,3,1.93a132,132,0,0,1,21.83,17.88,115.38,115.38,0,0,1,17.13,22.4,95.09,95.09,0,0,1,13,40c.1,1.17.21,2.35.26,3.52A8,8,0,0,1,351.29,160.66Z"/><path class="cls-3" d="M309.31,154.83c1.74.12,3.48.17,5.19.17v-.15c-1.44,0-2.88,0-4.33,0ZM202,54.57l1,0v0h-1Z"/><path d="M203,54.5h-1v.07l1,0v0ZM310.17,154.8l-.86,0c1.74.12,3.48.17,5.19.17v-.15c-1.44,0-2.88-.05-4.33-.05Z"/><path class="cls-3" d="M255.78,156l-18.15,0H62.75c-.65,0-1.31,0-2,0l-2.09-.1s0-.82.05-1l2,.09c.67,0,1.35,0,2,0H237.63l20.05,0c4,0,8,.08,11.94.17l16.67.36-16.88.4c-3.83.08-7.79.16-11.69.16Zm-200.09-.29s0-.89.06-1.08l1,1.13Zm288.63-1.4a2.58,2.58,0,0,0,.28-1.38,2.55,2.55,0,0,1-.28,1.39Zm.1-3c-.09-.78-.18-1.53-.27-2.28h0c.16,1.08.29,2.17.4,3.32Z"/><path d="M257.68,155.44c1.77,0,3.55,0,5.32,0-1.76,0-3.53,0-5.29,0h-1.94l-18.14,0,18.15,0h1.9m-20.27,0h0M204.71,51q-2.36,0-4.76.06a193.46,193.46,0,0,0-24.14,2.17,201.77,201.77,0,0,0-23.7,5c-4,1.06-7.94,2.35-11.6,3.58s-7.55,2.75-11.31,4.4a159.47,159.47,0,0,0-21.54,11.21c-15.17,9.43-27.28,20.35-36,32.47a95.91,95.91,0,0,0-6.55,10.31c-.76,1.28-1.42,2.63-2.07,3.93-.25.5-.5,1-.77,1.52l-.45,1c-.68,1.49-1.39,3-2,4.59a73.59,73.59,0,0,0-5.58,23.91l-.11,2,6.61.3c.67,0,1.32,0,2,0H237.63l18.14,0h1.84c4.1,0,8.24-.09,12.25-.17l22.21-.48,13.63-.37c1,0,2-.11,2.92-.19l1.63-.11c1.25-.1,2.48-.12,3.79-.14l5.23-.08c3.5-.06,6.38-.1,9.06-.1l9.07,0H342a3.54,3.54,0,0,0,2.46-.8,2.92,2.92,0,0,0,.66-2.54c-.12-1.26-.27-2.52-.46-3.8-.1-.73-.21-1.46-.33-2.18-.22-1.3-.53-2.59-.82-3.85-.16-.68-.32-1.36-.47-2.06a100.24,100.24,0,0,0-3.61-11.5,97.43,97.43,0,0,0-11.25-21.41,110.66,110.66,0,0,0-16-18.26c-3.06-2.9-6.27-5.49-9.29-7.87a119,119,0,0,0-10-6.88,150.7,150.7,0,0,0-44.74-18.55,181.32,181.32,0,0,0-23.9-4c-1.45-.18-2.92-.3-4.35-.41l-1.69-.13c-2-.17-4-.29-6.06-.37-2.39-.1-4.86-.15-7.37-.15ZM62.82,157c-.69,0-1.38,0-2.08,0l-4.6-.21-1.5-.07.08-1.51a73.37,73.37,0,0,1,5.54-23.75c.77-1.88,1.63-3.72,2.47-5.57s1.78-3.65,2.81-5.4a97.33,97.33,0,0,1,6.53-10.27C81.58,97,94.24,86.35,107.92,77.85a158.47,158.47,0,0,1,21.47-11.18c3.7-1.62,7.49-3,11.28-4.39s7.67-2.53,11.57-3.56a201.09,201.09,0,0,1,23.65-5A192,192,0,0,1,200,51.61q2.48-.07,5-.07,3.57,0,7.14.15,3,.12,6,.37c2,.17,4,.28,6,.53A179.84,179.84,0,0,1,248,56.64a150.46,150.46,0,0,1,44.6,18.49,115.48,115.48,0,0,1,10,6.85c3.17,2.5,6.31,5,9.25,7.83A109.71,109.71,0,0,1,327.72,108a97.51,97.51,0,0,1,11.19,21.29,102.14,102.14,0,0,1,3.6,11.46c.42,2,.94,3.89,1.28,5.86.14.82.25,1.64.36,2.47a84.37,84.37,0,0,0-5.59-19.65c-.72-1.86-1.65-3.63-2.48-5.45l-2.1-4-.76-1.29a91.44,91.44,0,0,0-6.64-9.9,116,116,0,0,0-16.44-17.15c-3-2.6-6.16-5-9.37-7.31s-6.45-4.58-9.81-6.68a146.65,146.65,0,0,0-43.7-18.14,176.94,176.94,0,0,0-23.45-4c-2-.25-3.95-.36-5.93-.53s-4-.28-5.94-.36q-3.54-.15-7.08-.15H203v0h-1v.07c0,.17,0,.33,0,.5l1,0h1.73c2.45,0,4.86.05,7.19.15,2,.07,4,.2,5.92.36l1.68.13c1.39.11,2.83.22,4.24.39a178.08,178.08,0,0,1,23.38,4A145.83,145.83,0,0,1,290.7,78.11c3.49,2.19,6.9,4.6,9.78,6.67,3,2.19,6.26,4.6,9.33,7.28a116.25,116.25,0,0,1,16.37,17.06,90.13,90.13,0,0,1,6.61,9.87l.75,1.26,2.09,3.94c.28.61.57,1.22.86,1.83.56,1.17,1.13,2.37,1.61,3.6a83.8,83.8,0,0,1,5.52,19.23c.11.87.21,1.73.31,2.58l.15,1.19a2,2,0,0,1-.37,1.7,2.64,2.64,0,0,1-1.77.49l-13.6-.16c-2.77,0-5.58-.09-8.29-.17-1.82,0-3.68-.1-5.55-.13-1.38,0-2.76,0-4.15,0h-.19l-1.66.06c-1,0-1.91.06-2.85.06h-1.1c1.6.19,3.18.33,4.76.42,1.74.12,3.48.17,5.19.17v-.15c4.62.08,9.22.27,13.83.3l9.07.13,4.54,0a3,3,0,0,0,2.11-.63,1.7,1.7,0,0,0,.27-.33,2.05,2.05,0,0,1-.26.34,3,3,0,0,1-2.12.66H337.4l-9.07,0c-3,0-6,0-9.07.1l-4.53.07c-1.52,0-3,0-4.52.15s-3,.23-4.53.3l-4.55.13-9.07.23-18.15.4c-5.43.11-10.86.26-16.29.26h-1.85l-18.14,0H62.82Zm-7.48-3.55q-.07.88-.12,1.75l-.05,1,2.78.13-2.61-2.89Zm1,.31,1.42,1.58c0-.51.06-1,.1-1.51l-1.52-.07Zm2,.6q0,.51-.06,1l-.05,1,2.6.12c.66,0,1.33,0,2,0H237.63l18.14,0h1.94c4.06,0,8.16-.09,12.13-.17l35.82-.84c.73,0,1.46-.08,2.19-.14-.74,0-1.47,0-2.2,0-1,0-2,0-2.93-.06l-1.6,0-9.07-.23-22.21-.48c-4-.08-8.09-.17-12.16-.17h-1.91l-18.14,0H62.75c-.67,0-1.34,0-2,0l-2.46-.11Z"/><path class="cls-4" d="M344.05,154.68a3,3,0,0,1-2.11.63l-4.54,0-9.07-.13c-4.61,0-9.21-.22-13.83-.3V155c-1.71,0-3.45,0-5.19-.17-1.58-.09-3.16-.23-4.76-.42-21.65-2.48-45.06-12.78-64.37-28.59-24.44-20-38-45.13-38.17-70.75,0-.17,0-.33,0-.5V54.5h1v0c3,0,6,0,8.94.14q3,.12,5.94.36c2,.17,4,.28,5.93.53a176.93,176.93,0,0,1,23.45,4A146.65,146.65,0,0,1,291,77.69c3.36,2.1,6.6,4.37,9.81,6.68s6.38,4.71,9.37,7.31a116,116,0,0,1,16.44,17.15,91.42,91.42,0,0,1,6.64,9.9L334,120l2.1,4c.83,1.82,1.76,3.59,2.48,5.45a84.37,84.37,0,0,1,5.59,19.65c-.11-.83-.22-1.65-.36-2.47-.34-2-.86-3.91-1.28-5.86a102.14,102.14,0,0,0-3.6-11.46A97.51,97.51,0,0,0,327.72,108a109.71,109.71,0,0,0-15.91-18.19c-2.94-2.78-6.08-5.33-9.25-7.83a115.49,115.49,0,0,0-10-6.85A150.46,150.46,0,0,0,248,56.64a179.84,179.84,0,0,0-23.84-4.05c-2-.25-4-.36-6-.53s-4-.29-6-.37q-6-.26-12.1-.08a192,192,0,0,0-24.07,2.15,201.09,201.09,0,0,0-23.65,5c-3.9,1-7.74,2.28-11.57,3.56s-7.58,2.77-11.28,4.39a158.47,158.47,0,0,0-21.47,11.18C94.24,86.35,81.58,97,72.07,110.18a97.33,97.33,0,0,0-6.53,10.27c-1,1.75-1.89,3.6-2.81,5.4s-1.7,3.69-2.47,5.57a73.37,73.37,0,0,0-5.54,23.75l-.08,1.51,1.5.07,4.6.21c1.53.06,3,0,4.54,0H237.63l18.14,0c6,0,12.1-.13,18.14-.25l18.15-.4,9.07-.23,4.55-.13c1.52-.07,3-.2,4.53-.3s3-.12,4.52-.15l4.53-.07c3,0,6-.09,9.07-.1l9.07,0h4.54a3,3,0,0,0,2.12-.66,2.05,2.05,0,0,0,.26-.34A1.7,1.7,0,0,1,344.05,154.68Z"/><path class="cls-5" d="M328.35,154.15c-3,0-6-.1-8.28-.17-1.66,0-3.36-.09-5.06-.12v-.36h-.5c-49.46,0-110.2-45.14-111-98h1.22c2.4,0,4.82,0,7.17.15,1.8.06,3.73.18,5.9.36l1.67.13.29,0c1.29.1,2.63.21,3.94.37a177.66,177.66,0,0,1,23.32,4,145.33,145.33,0,0,1,43.41,18c3.46,2.17,6.87,4.58,9.75,6.65s6.16,4.51,9.29,7.25a115.76,115.76,0,0,1,16.3,17,89.73,89.73,0,0,1,6.57,9.81l.76,1.27,2.08,3.92c.26.57.55,1.17.83,1.77.62,1.29,1.16,2.43,1.62,3.61a83.11,83.11,0,0,1,5.49,19.12c.11.84.21,1.68.3,2.51l.16,1.24a1.63,1.63,0,0,1-.23,1.28,2.33,2.33,0,0,1-1.41.34Z"/><path d="M204.73,56c2.39,0,4.8,0,7.15.15,1.78.06,3.71.18,5.87.36l1.69.13.25,0c1.3.1,2.64.21,4,.37A177.18,177.18,0,0,1,246.91,61,144.85,144.85,0,0,1,290.17,79c3.45,2.16,6.85,4.57,9.73,6.63s6.14,4.5,9.27,7.23a115.16,115.16,0,0,1,16.22,16.9,89.32,89.32,0,0,1,6.55,9.78l.73,1.22,2.08,3.91c.28.6.56,1.2.85,1.82.49,1,1.09,2.29,1.59,3.55a82.55,82.55,0,0,1,5.45,19c.1.77.19,1.53.28,2.28l0,.29.15,1.18a1.52,1.52,0,0,1-.06.86c-.09.08-.35.22-1.07.22l-13.6-.16c-3,0-6-.1-8.27-.17l-4.58-.11V153h-1C265.42,153,205.19,108.36,204,56h.71m0-1H203c.42,53.36,61.48,99,111.5,99v.35c1.87,0,3.73.08,5.55.13,2.71.08,5.52.15,8.29.17l13.6.16a2.64,2.64,0,0,0,1.77-.49,2,2,0,0,0,.37-1.7l-.15-1.19c-.1-.85-.2-1.71-.31-2.58a83.8,83.8,0,0,0-5.52-19.23c-.48-1.23-1-2.43-1.61-3.6-.29-.61-.58-1.22-.86-1.83l-2.09-3.94-.75-1.26a90.12,90.12,0,0,0-6.61-9.87,116.26,116.26,0,0,0-16.37-17.06c-3.07-2.68-6.3-5.09-9.33-7.28-2.88-2.07-6.29-4.48-9.78-6.67A145.83,145.83,0,0,0,247.14,60a178.08,178.08,0,0,0-23.38-4c-1.41-.17-2.85-.28-4.24-.39l-1.68-.13c-2-.16-4-.29-5.92-.36-2.33-.1-4.74-.15-7.19-.15Z"/><path class="cls-3" d="M314,154.5l-1.55,0,1.55,0Zm-64-21.92q-4.92-3.36-9.55-7.14c-22.74-18.62-36-41.69-37.78-65.44C205,88.86,224.64,115.11,250,132.57Z"/><path d="M203,54.5h-1v.07c0,.17,0,.33,0,.5.19,25.62,13.73,50.73,38.17,70.75,19.31,15.81,42.72,26.11,64.37,28.59,1.6.19,3.18.33,4.76.42,1.74.12,3.48.17,5.19.17v-1c-50,0-111.08-45.59-111.5-99V54.5Z"/><path class="cls-6" d="M95.26,80.07a2.37,2.37,0,0,1,3.19.39,1.72,1.72,0,0,1-.52,2.75L96.7,84a.11.11,0,0,1-.13,0L94,81a.08.08,0,0,1,0-.11Zm2,2.28c.41-.26.42-.73,0-1.18A1,1,0,0,0,96,80.85l-.27.17L97,82.52Z"/><path class="cls-6" d="M100.32,76.94a.1.1,0,0,1,.13,0l.57.7a.07.07,0,0,1,0,.12l-1.35.83L100,79l1.07-.65a.08.08,0,0,1,.12,0l.45.69a.09.09,0,0,1,0,.11l-1,.6.9,1.1a.08.08,0,0,1,0,.11l-.94.58a.11.11,0,0,1-.13,0l-2.49-3a.07.07,0,0,1,0-.11Z"/><path class="cls-6" d="M102.81,74.86a.48.48,0,0,1-.17.72.67.67,0,0,1-.84-.14.49.49,0,0,1,.16-.73A.67.67,0,0,1,102.81,74.86Zm-.7.41a.26.26,0,0,0,.33,0,.19.19,0,0,0,.08-.28.27.27,0,0,0-.34-.05A.19.19,0,0,0,102.1,75.27Z"/><path class="cls-6" d="M107.54,72.75a.09.09,0,0,1,.13,0l.46.76a.09.09,0,0,1,0,.12l-.81.46,1.78,2.34a.07.07,0,0,1,0,.11l-1,.55a.11.11,0,0,1-.13,0l-1.78-2.34-.91.51a.1.1,0,0,1-.13,0l-.54-.71a.08.08,0,0,1,0-.11Z"/><path class="cls-6" d="M112.67,73.36a.11.11,0,0,1,.13,0l.53.73a.08.08,0,0,1,0,.11l-2.57,1.4a.15.15,0,0,1-.14,0l-2.31-3.16a.07.07,0,0,1,0-.11L110.83,71a.11.11,0,0,1,.14,0l.53.72a.08.08,0,0,1,0,.12L110,72.6l.27.38,1.17-.64a.08.08,0,0,1,.12,0l.41.71a.09.09,0,0,1,0,.11l-1.07.58.3.41Z"/><path class="cls-6" d="M116.93,71.9s0,.07,0,.11a2.5,2.5,0,0,1-1,.89,2.36,2.36,0,0,1-3.14-.73,1.75,1.75,0,0,1,.7-2.75,3,3,0,0,1,1.37-.34c.06,0,.1,0,.11.06l.1.86a.08.08,0,0,1-.08.1,1.61,1.61,0,0,0-.74.2.78.78,0,0,0-.28,1.24,1.05,1.05,0,0,0,1.4.36,1.36,1.36,0,0,0,.55-.47.09.09,0,0,1,.13,0Z"/><path class="cls-6" d="M118.7,66.89a.11.11,0,0,1,.13,0L121,70.14a.08.08,0,0,1,0,.11l-1.05.53a.1.1,0,0,1-.12,0l-.74-1.09-.79.4.74,1.09a.07.07,0,0,1,0,.11l-1.05.53a.11.11,0,0,1-.13,0l-2.17-3.22a.08.08,0,0,1,0-.11l1.05-.53a.1.1,0,0,1,.13,0l.86,1.27.79-.4-.86-1.27a.08.08,0,0,1,0-.11Z"/><path class="cls-6" d="M122.9,64.83a.1.1,0,0,1,.13,0l2.11,3.26a.08.08,0,0,1,0,.11l-1,.48a.2.2,0,0,1-.16,0l-2-1.05,1,1.53a.08.08,0,0,1,0,.11l-1,.49a.1.1,0,0,1-.12,0l-2.11-3.26a.08.08,0,0,1,0-.11l1-.48a.19.19,0,0,1,.17,0l2,1.06-1-1.52a.08.08,0,0,1,0-.11Z"/><path class="cls-6" d="M128,66.95a2.38,2.38,0,0,1-3.15-.84,1.79,1.79,0,0,1,.93-2.74,2.38,2.38,0,0,1,3.16.85A1.79,1.79,0,0,1,128,66.95Zm-1.6-2.58a.74.74,0,0,0-.3,1.16,1,1,0,0,0,1.28.42.74.74,0,0,0,.3-1.16A1,1,0,0,0,126.44,64.37Z"/><path class="cls-6" d="M132.52,63.69a.1.1,0,0,1,.12,0l.37.8a.09.09,0,0,1-.05.11l-2.1.93a.11.11,0,0,1-.13,0l-2-3.32a.08.08,0,0,1,0-.11l1-.46a.11.11,0,0,1,.13,0l1.48,2.48Z"/><path class="cls-6" d="M135.84,63.48a2.36,2.36,0,0,1-3.12-.93,1.81,1.81,0,0,1,1-2.72,2.36,2.36,0,0,1,3.12.94A1.8,1.8,0,0,1,135.84,63.48Zm-1.5-2.62A.75.75,0,0,0,134,62a1,1,0,0,0,1.26.46.75.75,0,0,0,.34-1.15A1,1,0,0,0,134.35,60.86Z"/><path class="cls-6" d="M141,58.62a.11.11,0,0,1,.13,0l.89,1.62a.16.16,0,0,1,0,.15,2.43,2.43,0,0,1-1.24,1,2.37,2.37,0,0,1-3.13-1,1.83,1.83,0,0,1,1.12-2.71,3.07,3.07,0,0,1,1.4-.21.1.1,0,0,1,.1.07l.12.87s0,.07-.09.09a2.32,2.32,0,0,0-.95.17.81.81,0,0,0-.45,1.21,1.05,1.05,0,0,0,1.37.48c.22-.09.35-.18.38-.27l-.16-.3-.54.22a.1.1,0,0,1-.12,0l-.46-.67s0-.1,0-.13Zm-.36,1.45v0Z"/><path class="cls-6" d="M142.3,56.45a.1.1,0,0,1,.13,0l1.78,3.4a.08.08,0,0,1-.05.11l-1.05.41a.11.11,0,0,1-.12,0L141.2,57a.08.08,0,0,1,0-.11Z"/><path class="cls-6" d="M147.47,57.62a.1.1,0,0,1,.12,0l.4.79a.08.08,0,0,1-.05.11l-2.78,1.06a.14.14,0,0,1-.14,0l-1.75-3.42s0-.08,0-.1L146,55a.11.11,0,0,1,.13,0l.4.78a.08.08,0,0,1-.06.11l-1.56.6.21.41,1.27-.48a.08.08,0,0,1,.11,0l.29.76a.1.1,0,0,1-.07.11l-1.16.44.22.44Z"/><circle class="cls-7" cx="137.5" cy="104.5" r="21"/><circle class="cls-7" cx="256" cy="104" r="21"/><path d="M158.83,104.3a22.09,22.09,0,0,1-37.45,15.87,22.33,22.33,0,0,1-5-7.24,22.09,22.09,0,0,1,0-17.25,22.08,22.08,0,0,1,42.41,8.63Zm0,0a21.67,21.67,0,0,0-1.68-8.24,21,21,0,0,0-19.9-12.83,21.09,21.09,0,1,0,15.16,36.24,21.27,21.27,0,0,0,4.74-6.92A21.67,21.67,0,0,0,158.83,104.3Z"/><path d="M277.49,104.3A22.09,22.09,0,0,1,240,120.17a22.33,22.33,0,0,1-5-7.24,22.09,22.09,0,0,1,0-17.25,22.08,22.08,0,0,1,42.41,8.63Zm0,0a21.67,21.67,0,0,0-1.68-8.24,21,21,0,0,0-19.9-12.83,21.09,21.09,0,1,0,15.16,36.24,21.27,21.27,0,0,0,4.74-6.92A21.67,21.67,0,0,0,277.49,104.3Z"/><rect x="84.62" y="52.54" width="1" height="31.89" transform="translate(-21.5 44.65) rotate(-26.22)"/><rect x="302.97" y="67.98" width="31.89" height="1" transform="translate(116.58 324.33) rotate(-63.78)"/><path class="cls-8" d="M70.67,20.91A18.25,18.25,0,1,0,88.92,39.16,18.27,18.27,0,0,0,70.67,20.91Zm0,33.5A15.25,15.25,0,1,1,85.92,39.16,15.27,15.27,0,0,1,70.67,54.41Z"/><path class="cls-8" d="M85.92,39.16A15.25,15.25,0,1,1,70.67,23.91,15.27,15.27,0,0,1,85.92,39.16Z"/><path class="cls-9" d="M315.11,39.16a18.25,18.25,0,1,0,18.25-18.25A18.27,18.27,0,0,0,315.11,39.16Zm3,0a15.25,15.25,0,1,1,15.25,15.25A15.27,15.27,0,0,1,318.11,39.16Z"/><path class="cls-9" d="M318.11,39.16a15.25,15.25,0,1,0,15.25-15.25A15.27,15.27,0,0,0,318.11,39.16Z"/><path class="cls-5" d="M248.48,109.58a9.49,9.49,0,1,1,3.47,3.48A9.34,9.34,0,0,1,248.48,109.58Zm.15-4.76a7.56,7.56,0,0,0,4,7,7.53,7.53,0,0,0,8,0,7.56,7.56,0,0,0,4-7Z"/><path class="cls-5" d="M129.48,109.58a9.48,9.48,0,1,1,3.47,3.48A9.34,9.34,0,0,1,129.48,109.58Zm.15-4.76a7.56,7.56,0,0,0,4,7,7.53,7.53,0,0,0,8,0,7.56,7.56,0,0,0,4-7Z"/></svg>