<?xml version="1.0" encoding="utf-8"?>
<!-- Generator: Adobe Illustrator 16.0.0, SVG Export Plug-In . SVG Version: 6.00 Build 0)  -->
<!DOCTYPE svg PUBLIC "-//W3C//DTD SVG 1.1//EN" "http://www.w3.org/Graphics/SVG/1.1/DTD/svg11.dtd">
<svg version="1.1" id="Layer_1" xmlns="http://www.w3.org/2000/svg" xmlns:xlink="http://www.w3.org/1999/xlink" x="0px" y="0px"
	 width="400px" height="200px" viewBox="0 0 400 200" enable-background="new 0 0 400 200" xml:space="preserve">
<g>
	<g>
		<path fill="#767472" stroke="#767472" stroke-width="1.5943" stroke-miterlimit="10" d="M75.452,144.513
			c0,3.331-2.7,6.032-6.03,6.032H33.639c-3.332,0-6.031-2.701-6.031-6.032V73.752c0-3.33,2.699-6.03,6.031-6.03h35.783
			c3.33,0,6.03,2.7,6.03,6.03V144.513z"/>
		<path fill="none" stroke="#000000" stroke-width="0.5314" stroke-miterlimit="10" d="M72.453,67.639v75.467
			c0,0-0.2,2.814-1.005,2.814"/>
	</g>
	<path fill="#93928F" d="M72.482,143.148v8.602c0,3.33-2.701,6.031-6.031,6.031H27.323c-3.332,0-6.031-2.701-6.031-6.031v-8.443"/>
	
		<path fill="#4C4C4D" stroke="#4C4C4D" stroke-width="0.5314" stroke-linecap="round" stroke-linejoin="round" stroke-miterlimit="10" d="
		M71.95,145.518c0,3.332-2.699,6.031-6.03,6.031H27.323c-3.332,0-6.03-2.699-6.03-6.031V65.711c0-3.331,2.699-6.031,6.03-6.031
		h38.597c3.331,0,6.03,2.7,6.03,6.031V145.518z"/>
	<path fill="#93928F" stroke="#B7B6B6" stroke-width="0.5314" stroke-linejoin="round" stroke-miterlimit="10" d="M68.031,63.5
		v73.172c0,3.333-2.7,6.032-6.031,6.032H31.243c-3.332,0-6.031-2.699-6.031-6.032V63.5H68.031z"/>
	<path fill="none" stroke="#767472" stroke-width="0.2657" stroke-miterlimit="10" d="M65.345,59.574
		c3.33,0,2.686,3.417,2.686,3.417H25.212c0,0-0.588-3.471,2.743-3.471"/>
	<path fill="#FFFFFF" stroke="#000000" stroke-width="0.5314" stroke-miterlimit="10" d="M63.01,132.654
		c0,1.665-1.349,3.015-3.015,3.015H33.258c-1.665,0-3.015-1.35-3.015-3.015V75.36c0-1.665,1.351-3.016,3.015-3.016h26.738
		c1.666,0,3.015,1.351,3.015,3.016V132.654z"/>
	<path fill="none" stroke="#767472" stroke-width="0.4729" stroke-miterlimit="10" d="M30.604,75.784
		c-0.362-1.508,0.761-3.016,2.389-3.016h27.218c1.628,0,2.445,1.349,2.445,3.016"/>
	<line fill="none" stroke="#767472" stroke-width="1.0629" stroke-miterlimit="10" x1="30.589" y1="92.85" x2="62.653" y2="92.85"/>
	
		<line fill="none" stroke="#767472" stroke-width="1.0629" stroke-miterlimit="10" x1="62.653" y1="97.474" x2="30.589" y2="97.474"/>
	<rect x="32.046" y="94.012" fill="#767472" width="13.268" height="2.217"/>
	<rect x="47.675" y="94.012" fill="#767472" width="13.268" height="2.217"/>
	<text transform="matrix(1 0 0 1 47.9829 88.3271)" font-family="'OpenSans'" font-size="7.2369">€17</text>
	
		<line fill="none" stroke="#767472" stroke-width="0.4729" stroke-miterlimit="10" x1="32.046" y1="74.276" x2="36.771" y2="74.276"/>
	
		<line fill="none" stroke="#767472" stroke-width="0.4729" stroke-miterlimit="10" x1="55.39" y1="74.276" x2="60.216" y2="74.276"/>
	
		<line fill="none" stroke="#767472" stroke-width="0.4729" stroke-miterlimit="10" x1="56.446" y1="74.984" x2="59.687" y2="74.984"/>
	
		<line fill="none" stroke="#767472" stroke-width="0.4729" stroke-miterlimit="10" x1="57.351" y1="73.552" x2="59.687" y2="73.552"/>
	
		<line fill="none" stroke="#767472" stroke-width="0.4729" stroke-miterlimit="10" x1="43.329" y1="74.276" x2="50.867" y2="74.276"/>
	
		<line fill="none" stroke="#767472" stroke-width="0.4729" stroke-miterlimit="10" x1="45.666" y1="74.984" x2="48.833" y2="74.984"/>
	
		<line fill="none" stroke="#767472" stroke-width="0.4729" stroke-miterlimit="10" x1="50.038" y1="74.984" x2="50.867" y2="74.984"/>
	<g>
		
			<line fill="#FFFFFF" stroke="#767472" stroke-width="1.0629" stroke-miterlimit="10" x1="30.589" y1="101.05" x2="62.657" y2="101.05"/>
		<path fill="none" stroke="#767472" stroke-width="0.5314" stroke-miterlimit="10" d="M40.696,107.685
			c0,0.665-0.528,1.206-1.181,1.206h-6.049c-0.652,0-1.181-0.541-1.181-1.206v-3.618c0-0.666,0.529-1.207,1.181-1.207h6.049
			c0.653,0,1.181,0.541,1.181,1.207V107.685z"/>
		<path fill="none" stroke="#767472" stroke-width="0.5314" stroke-miterlimit="10" d="M50.829,107.685
			c0,0.665-0.53,1.206-1.182,1.206h-6.049c-0.652,0-1.182-0.541-1.182-1.206v-3.618c0-0.666,0.53-1.207,1.182-1.207h6.049
			c0.652,0,1.182,0.541,1.182,1.207V107.685z"/>
		<path fill="none" stroke="#767472" stroke-width="0.5314" stroke-miterlimit="10" d="M60.96,107.685
			c0,0.665-0.529,1.206-1.18,1.206H53.73c-0.652,0-1.181-0.541-1.181-1.206v-3.618c0-0.666,0.529-1.207,1.181-1.207h6.049
			c0.651,0,1.18,0.541,1.18,1.207V107.685z"/>
		<path fill="none" stroke="#767472" stroke-width="0.5314" stroke-miterlimit="10" d="M40.696,115.524
			c0,0.667-0.528,1.208-1.181,1.208h-6.049c-0.652,0-1.181-0.541-1.181-1.208v-3.619c0-0.665,0.529-1.206,1.181-1.206h6.049
			c0.653,0,1.181,0.541,1.181,1.206V115.524z"/>
		<path fill="none" stroke="#767472" stroke-width="0.5314" stroke-miterlimit="10" d="M50.829,115.524
			c0,0.667-0.53,1.208-1.182,1.208h-6.049c-0.652,0-1.182-0.541-1.182-1.208v-3.619c0-0.665,0.53-1.206,1.182-1.206h6.049
			c0.652,0,1.182,0.541,1.182,1.206V115.524z"/>
		<path fill="none" stroke="#767472" stroke-width="0.5314" stroke-miterlimit="10" d="M60.96,115.524
			c0,0.667-0.529,1.208-1.18,1.208H53.73c-0.652,0-1.181-0.541-1.181-1.208v-3.619c0-0.665,0.529-1.206,1.181-1.206h6.049
			c0.651,0,1.18,0.541,1.18,1.206V115.524z"/>
		<path fill="none" stroke="#767472" stroke-width="0.5314" stroke-miterlimit="10" d="M40.696,123.363
			c0,0.668-0.528,1.207-1.181,1.207h-6.049c-0.652,0-1.181-0.539-1.181-1.207v-3.618c0-0.665,0.529-1.205,1.181-1.205h6.049
			c0.653,0,1.181,0.54,1.181,1.205V123.363z"/>
		<path fill="none" stroke="#767472" stroke-width="0.5314" stroke-miterlimit="10" d="M50.829,123.363
			c0,0.668-0.53,1.207-1.182,1.207h-6.049c-0.652,0-1.182-0.539-1.182-1.207v-3.618c0-0.665,0.53-1.205,1.182-1.205h6.049
			c0.652,0,1.182,0.54,1.182,1.205V123.363z"/>
		<path fill="none" stroke="#767472" stroke-width="0.5314" stroke-miterlimit="10" d="M60.96,123.363
			c0,0.668-0.529,1.207-1.18,1.207H53.73c-0.652,0-1.181-0.539-1.181-1.207v-3.618c0-0.665,0.529-1.205,1.181-1.205h6.049
			c0.651,0,1.18,0.54,1.18,1.205V123.363z"/>
		<path fill="#ED1D38" d="M40.696,131.208c0,0.666-0.528,1.204-1.181,1.204h-6.049c-0.652,0-1.181-0.538-1.181-1.204v-3.623
			c0-0.665,0.529-1.206,1.181-1.206h6.049c0.653,0,1.181,0.541,1.181,1.206V131.208z"/>
		<path fill="none" stroke="#767472" stroke-width="0.5314" stroke-miterlimit="10" d="M50.829,131.208
			c0,0.666-0.53,1.204-1.182,1.204h-6.049c-0.652,0-1.182-0.538-1.182-1.204v-3.623c0-0.665,0.53-1.206,1.182-1.206h6.049
			c0.652,0,1.182,0.541,1.182,1.206V131.208z"/>
		<path fill="#EADE15" d="M60.96,131.208c0,0.666-0.529,1.204-1.18,1.204H53.73c-0.652,0-1.181-0.538-1.181-1.204v-3.623
			c0-0.665,0.529-1.206,1.181-1.206h6.049c0.651,0,1.18,0.541,1.18,1.206V131.208z"/>
	</g>
	<g>
		<path fill="none" stroke="#767472" stroke-width="0.4729" stroke-miterlimit="10" d="M35.589,148.021
			c0,0.666-0.54,1.205-1.206,1.205h-4.674c-0.666,0-1.206-0.539-1.206-1.205v-1.811c0-0.664,0.54-1.205,1.206-1.205h4.674
			c0.666,0,1.206,0.541,1.206,1.205V148.021z"/>
		<path fill="#FFFFFF" d="M66.601,148.021c0,0.666-0.541,1.205-1.206,1.205h-4.674c-0.666,0-1.207-0.539-1.207-1.205v-1.811
			c0-0.664,0.541-1.205,1.207-1.205h4.674c0.665,0,1.206,0.541,1.206,1.205V148.021z"/>
		<path fill="#FFFFFF" d="M35.589,148.021c0,0.666-0.54,1.205-1.206,1.205h-4.674c-0.666,0-1.206-0.539-1.206-1.205v-1.811
			c0-0.664,0.54-1.205,1.206-1.205h4.674c0.666,0,1.206,0.541,1.206,1.205V148.021z"/>
		<g>
			<path fill="#FFFFFF" d="M45.926,148.021c0,0.666-0.54,1.205-1.206,1.205h-4.674c-0.667,0-1.206-0.539-1.206-1.205v-1.811
				c0-0.664,0.54-1.205,1.206-1.205h4.674c0.666,0,1.206,0.541,1.206,1.205V148.021z"/>
		</g>
		<g>
			<path fill="#FFFFFF" d="M55.99,148.021c0,0.666-0.539,1.205-1.206,1.205h-4.674c-0.667,0-1.207-0.539-1.207-1.205v-1.811
				c0-0.664,0.54-1.205,1.207-1.205h4.674c0.667,0,1.206,0.541,1.206,1.205V148.021z"/>
		</g>
	</g>
	
		<line fill="#4C4C4D" stroke="#4C4C4D" stroke-width="2.1258" stroke-miterlimit="10" x1="32.235" y1="154.213" x2="64.513" y2="154.213"/>
	
		<line fill="#FFFFFF" stroke="#767472" stroke-width="0.538" stroke-miterlimit="10" x1="30.604" y1="75.784" x2="62.653" y2="75.784"/>
</g>
<g>
	
		<polyline fill="#4C4C4D" stroke="#171617" stroke-width="0.5314" stroke-linecap="round" stroke-linejoin="round" stroke-miterlimit="10" points="
		224.818,56.208 227.867,56.125 235,67.575 234.57,72.301 	"/>
	<path fill="#4C4C4D" stroke="#4C4C4D" stroke-width="0.5314" stroke-miterlimit="10" d="M149.305,153.839l6.11,4.206
		c0,0,0.665,0.176,1.728,0c1.062-0.177,61.824-14.766,61.824-14.766v-1.296l-12.968-5.887l-28.266-29.025l-26.791,21.391
		l-4.96,21.434L149.305,153.839z"/>
	<linearGradient id="SVGID_1_" gradientUnits="userSpaceOnUse" x1="149.9688" y1="143.2793" x2="218.2891" y2="143.2793">
		<stop  offset="0.1835" style="stop-color:#020202"/>
		<stop  offset="1" style="stop-color:#FFFFFF"/>
	</linearGradient>
	<path fill="url(#SVGID_1_)" d="M149.969,153.188l4.771,3.249c0,0,0.841,0.178,2.612,0c1.771-0.177,60.938-14.466,60.938-14.466
		l-12.666-5.887l-35.162-3.236l-15.722-2.806L149.969,153.188z"/>
	<polygon fill="#CECBCD" points="187.171,107.071 206.301,114.511 177.733,119.102 168.391,115.53 166.443,111.322 	"/>
	<path fill="#F4F4F6" stroke="#444544" stroke-width="0.5314" stroke-miterlimit="10" d="M177.527,147.078"/>
	<polygon fill="#9A9A9D" points="177.527,147.078 177.733,119.102 166.443,114.511 162.367,137.868 	"/>
	<polygon fill="#E3E4E5" points="177.527,147.078 177.733,119.102 206.301,114.511 205.947,139.889 	"/>
	<path fill="none" stroke="#FFFFFF" stroke-width="0.5314" stroke-miterlimit="10" d="M183.125,123.899
		c-0.105,0.018-0.223-0.128-0.259-0.328l0,0c-0.037-0.199,0.021-0.377,0.128-0.395l18.875-3.415c0.107-0.018,0.223,0.128,0.26,0.327
		l0,0c0.035,0.199-0.021,0.377-0.127,0.396"/>
	
		<line fill="none" stroke="#4C4C4D" stroke-width="0.2657" stroke-miterlimit="10" x1="202.466" y1="120.132" x2="206.301" y2="119.431"/>
	<path fill="none" stroke="#0F0D0D" stroke-width="0.1329" stroke-miterlimit="10" d="M205.947,140.242l-26.73,6.458
		c0,0-1.272,0.238-1.701,0.238c-0.432,0-1.639-0.669-1.639-0.669l-11.427-6.647"/>
	<path fill="#0F0D0D" d="M202.129,120.186c0.035,0.198-0.021,0.376-0.127,0.394l-18.877,3.416c-0.105,0.019-0.223-0.128-0.259-0.328
		l0,0c-0.037-0.199,0.021-0.375,0.128-0.395l18.875-3.414C201.977,119.839,202.092,119.985,202.129,120.186L202.129,120.186z"/>
	<path fill="#F5F6F8" d="M184.234,123.642c0,0,1.871,3.652,1.871,4.716c0,0,5.43-1.151,6.125-1.151s11.234-2.125,11.234-2.125
		l-2.299-4.502L184.234,123.642z"/>
	
		<line fill="none" stroke="#FFFFFF" stroke-width="0.5314" stroke-miterlimit="10" x1="177.733" y1="119.102" x2="177.733" y2="146.619"/>
	<path fill="none" stroke="#4C4C4D" stroke-width="0.2657" stroke-miterlimit="10" d="M165.312,119.086l12.381,5.489
		c0,0,3.659-0.708,4.855-0.908"/>
	
		<ellipse fill="none" stroke="#9A9A9D" stroke-width="0.228" stroke-miterlimit="10" cx="179.938" cy="136.097" rx="1.418" ry="1.658"/>
	<ellipse fill="#FFFFFF" cx="179.987" cy="136.097" rx="1.418" ry="1.658"/>
	
		<ellipse fill="none" stroke="#899596" stroke-width="0.1329" stroke-miterlimit="10" cx="179.858" cy="141.341" rx="1.468" ry="1.693"/>
	
		<ellipse fill="none" stroke="#9A9A9D" stroke-width="0.2657" stroke-miterlimit="10" cx="180.123" cy="141.288" rx="0.604" ry="0.698"/>
	
		<ellipse fill="none" stroke="#C4C6C6" stroke-width="0.2189" stroke-miterlimit="10" cx="180.185" cy="141.288" rx="0.605" ry="0.698"/>
	
		<ellipse fill="none" stroke="#C4C6C6" stroke-width="0.2657" stroke-miterlimit="10" cx="180.018" cy="141.288" rx="1.469" ry="1.693"/>
	<polygon opacity="0.2" fill="#4C4C4D" stroke="#4C4C4D" stroke-width="0.5314" stroke-miterlimit="10" points="169.516,115.761 
		190.997,108.56 188.032,106.738 166.974,113.087 166.974,115.241 	"/>
	<path fill="#4C4C4D" stroke="#4C4C4D" stroke-width="0.5314" stroke-miterlimit="10" d="M137.479,92.457
		c0,0,16.208,6.51,19.794,7.308c3.588,0.797,4.043,0,4.043,0l52.749-0.266l0.738,3.295c0,0-15.264,1.682-28.983,5.209
		c-11.232,2.886-21.428,6.125-21.37,17.337v25.1l-5.221,1.032v-48.385c-1.017-0.398-25.737-10.098-25.737-10.098L137.479,92.457z"/>
	<g>
		
			<polygon fill="#4C4C4D" stroke="#FFFFFF" stroke-width="0.5314" stroke-linecap="round" stroke-linejoin="round" stroke-miterlimit="10" points="
			182.258,76.67 186.16,76.332 184.202,72.675 180.332,73.007 		"/>
		
			<polygon fill="#4C4C4D" stroke="#FFFFFF" stroke-width="0.5314" stroke-linecap="round" stroke-linejoin="round" stroke-miterlimit="10" points="
			184.202,72.675 182.518,69.535 178.646,69.809 180.332,73.007 		"/>
		
			<polygon fill="#4C4C4D" stroke="#FFFFFF" stroke-width="0.5314" stroke-linecap="round" stroke-linejoin="round" stroke-miterlimit="10" points="
			176.172,73.364 180.332,73.007 178.646,69.809 174.4,70.11 		"/>
		
			<polygon fill="#4C4C4D" stroke="#FFFFFF" stroke-width="0.5314" stroke-linecap="round" stroke-linejoin="round" stroke-miterlimit="10" points="
			170.647,70.36 174.4,70.11 172.414,66.649 168.998,66.95 		"/>
		
			<polygon fill="#4C4C4D" stroke="#FFFFFF" stroke-width="0.5314" stroke-linecap="round" stroke-linejoin="round" stroke-miterlimit="10" points="
			176.172,73.364 178.16,77.025 182.258,76.67 180.332,73.007 		"/>
		
			<polygon fill="#4C4C4D" stroke="#FFFFFF" stroke-width="0.5314" stroke-linecap="round" stroke-linejoin="round" stroke-miterlimit="10" points="
			178.518,69.809 176.756,66.136 172.414,66.402 174.4,70.11 		"/>
		
			<polygon fill="#4C4C4D" stroke="#FFFFFF" stroke-width="0.5314" stroke-linecap="round" stroke-linejoin="round" stroke-miterlimit="10" points="
			180.526,58.766 187.586,58.432 184.007,52.072 177.057,52.377 		"/>
		
			<polygon fill="#4C4C4D" stroke="#FFFFFF" stroke-width="0.5314" stroke-linecap="round" stroke-linejoin="round" stroke-miterlimit="10" points="
			172.277,73.73 174.113,77.528 178.16,77.025 176.172,73.364 		"/>
		
			<polygon fill="#4C4C4D" stroke="#FFFFFF" stroke-width="0.5314" stroke-linecap="round" stroke-linejoin="round" stroke-miterlimit="10" points="
			184.007,52.072 180.523,45.717 173.6,45.853 177.057,52.377 		"/>
		
			<polygon fill="#4C4C4D" stroke="#FFFFFF" stroke-width="0.5314" stroke-linecap="round" stroke-linejoin="round" stroke-miterlimit="10" points="
			174.4,70.11 170.647,70.36 172.277,73.73 176.172,73.364 		"/>
		
			<polygon fill="#4C4C4D" stroke="#FFFFFF" stroke-width="0.5314" stroke-linecap="round" stroke-linejoin="round" stroke-miterlimit="10" points="
			165.047,52.906 177.057,52.377 173.6,45.853 165.607,46.169 168.842,52.508 165.607,46.169 149.65,46.504 153.188,53.871 
			165.047,52.906 		"/>
		
			<polygon fill="#4C4C4D" stroke="#FFFFFF" stroke-width="0.5314" stroke-linecap="round" stroke-linejoin="round" stroke-miterlimit="10" points="
			178.969,69.996 182.842,69.722 181.008,66.3 182.842,69.722 186.482,69.464 182.842,69.722 184.523,72.863 188.23,72.545 
			184.602,65.861 177.053,66.358 		"/>
		
			<polyline fill="#49C4D9" stroke="#FFFFFF" stroke-width="0.5314" stroke-linecap="round" stroke-linejoin="round" stroke-miterlimit="10" points="
			180.526,58.766 177.057,52.377 165.047,52.906 171.563,66.456 184.279,65.673 180.526,58.766 		"/>
		
			<polygon fill="#4C4C4D" stroke="#FFFFFF" stroke-width="0.5314" stroke-linecap="round" stroke-linejoin="round" stroke-miterlimit="10" points="
			180.526,58.766 184.279,65.673 191.395,65.205 187.586,58.432 		"/>
		
			<polygon fill="#4C4C4D" stroke="#FFFFFF" stroke-width="0.5314" stroke-linecap="round" stroke-linejoin="round" stroke-miterlimit="10" points="
			186.16,76.332 186.16,76.332 186.16,76.332 187.91,79.596 192.263,79.122 187.91,72.356 184.202,72.675 		"/>
		
			<polygon fill="#ED2578" stroke="#FFFFFF" stroke-width="0.5314" stroke-linecap="round" stroke-linejoin="round" stroke-miterlimit="10" points="
			171.916,73.668 163.211,74.733 166.956,82.513 175.633,81.426 		"/>
		
			<polygon fill="#4C4C4D" stroke="#FFFFFF" stroke-width="0.5314" stroke-linecap="round" stroke-linejoin="round" stroke-miterlimit="10" points="
			171.617,66.456 165.047,52.906 153.188,53.871 159.688,67.575 		"/>
		
			<polygon fill="#4C4C4D" stroke="#FFFFFF" stroke-width="0.5314" stroke-linecap="round" stroke-linejoin="round" stroke-miterlimit="10" points="
			168.573,66.8 159.795,67.575 163.185,74.733 172.023,73.668 		"/>
		
			<polygon fill="#4C4C4D" stroke="#FFFFFF" stroke-width="0.5314" stroke-linecap="round" stroke-linejoin="round" stroke-miterlimit="10" points="
			182.258,76.67 184.202,79.942 187.91,79.52 186.16,76.332 		"/>
		
			<polygon fill="#4C4C4D" stroke="#FFFFFF" stroke-width="0.5314" stroke-linecap="round" stroke-linejoin="round" stroke-miterlimit="10" points="
			178.16,77.025 178.16,77.025 178.16,77.025 174.348,77.411 176.072,81.025 184.202,80.118 182.258,76.67 		"/>
	</g>
	<g>
		
			<polygon fill="#4C4C4D" stroke="#FFFFFF" stroke-width="0.5314" stroke-linecap="round" stroke-linejoin="round" stroke-miterlimit="10" points="
			217.77,82.747 221.671,82.408 219.711,78.752 215.842,79.084 		"/>
		
			<polygon fill="#4C4C4D" stroke="#FFFFFF" stroke-width="0.5314" stroke-linecap="round" stroke-linejoin="round" stroke-miterlimit="10" points="
			219.711,78.752 218.029,75.612 214.156,75.886 215.842,79.084 		"/>
		
			<polygon fill="#4C4C4D" stroke="#FFFFFF" stroke-width="0.5314" stroke-linecap="round" stroke-linejoin="round" stroke-miterlimit="10" points="
			211.682,79.441 215.842,79.084 214.156,75.886 209.912,76.187 		"/>
		
			<polygon fill="#4C4C4D" stroke="#FFFFFF" stroke-width="0.5314" stroke-linecap="round" stroke-linejoin="round" stroke-miterlimit="10" points="
			206.365,76.438 209.912,76.187 207.926,72.533 204.395,72.765 		"/>
		
			<polygon fill="#4C4C4D" stroke="#FFFFFF" stroke-width="0.5314" stroke-linecap="round" stroke-linejoin="round" stroke-miterlimit="10" points="
			211.682,79.441 213.672,83.103 217.77,82.747 215.842,79.084 		"/>
		
			<polygon fill="#4C4C4D" stroke="#FFFFFF" stroke-width="0.5314" stroke-linecap="round" stroke-linejoin="round" stroke-miterlimit="10" points="
			214.156,75.886 212.242,72.249 207.926,72.533 209.912,76.187 		"/>
		
			<polygon fill="#4C4C4D" stroke="#FFFFFF" stroke-width="0.5314" stroke-linecap="round" stroke-linejoin="round" stroke-miterlimit="10" points="
			216.037,64.843 224,64.51 220.104,58.15 212.568,58.455 		"/>
		
			<polygon fill="#4C4C4D" stroke="#FFFFFF" stroke-width="0.5314" stroke-linecap="round" stroke-linejoin="round" stroke-miterlimit="10" points="
			208.141,79.746 210.105,83.411 213.672,83.103 211.682,79.441 		"/>
		
			<polygon fill="#4C4C4D" stroke="#FFFFFF" stroke-width="0.5314" stroke-linecap="round" stroke-linejoin="round" stroke-miterlimit="10" points="
			220.104,58.15 216.033,51.582 209.111,51.664 212.568,58.455 		"/>
		
			<polygon fill="#4C4C4D" stroke="#FFFFFF" stroke-width="0.5314" stroke-linecap="round" stroke-linejoin="round" stroke-miterlimit="10" points="
			209.912,76.187 206.365,76.438 208.141,79.746 211.682,79.441 		"/>
		
			<polyline fill="#4C4C4D" stroke="#FFFFFF" stroke-width="0.5314" stroke-linecap="round" stroke-linejoin="round" stroke-miterlimit="10" points="
			188.348,59.499 200.558,58.983 197.283,52.153 200.558,58.983 212.568,58.455 209.111,51.718 201.119,52.088 204.352,58.585 
			201.119,52.088 184.18,52.377 		"/>
		
			<polygon fill="#4C4C4D" stroke="#FFFFFF" stroke-width="0.5314" stroke-linecap="round" stroke-linejoin="round" stroke-miterlimit="10" points="
			214.156,75.886 218.029,75.612 216.195,72.189 218.029,75.612 221.671,75.354 218.029,75.612 219.711,78.752 223.419,78.434 
			219.79,71.75 212.242,72.249 		"/>
		
			<polygon fill="#4C4C4D" stroke="#FFFFFF" stroke-width="0.5314" stroke-linecap="round" stroke-linejoin="round" stroke-miterlimit="10" points="
			215.889,64.85 216.037,64.843 212.568,58.455 200.558,58.983 207.926,72.533 212.242,72.249 212.21,72.189 212.242,72.249 
			219.79,71.75 216.037,64.843 		"/>
		
			<polygon fill="#4C4C4D" stroke="#FFFFFF" stroke-width="0.5314" stroke-linecap="round" stroke-linejoin="round" stroke-miterlimit="10" points="
			216.069,64.843 219.79,71.75 228.075,71.281 224,64.51 		"/>
		
			<polygon fill="#4C4C4D" stroke="#FFFFFF" stroke-width="0.5314" stroke-linecap="round" stroke-linejoin="round" stroke-miterlimit="10" points="
			221.671,82.408 221.671,82.408 221.671,82.408 223.605,86.019 227.316,85.605 223.419,78.434 219.711,78.752 		"/>
		
			<polygon fill="#36479D" stroke="#FFFFFF" stroke-width="0.5314" stroke-linecap="round" stroke-linejoin="round" stroke-miterlimit="10" points="
			210.105,83.411 210.105,83.411 208.141,79.746 199.527,80.484 203.495,88.264 212.189,87.293 210.105,83.411 		"/>
		
			<polyline fill="#45B649" stroke="#FFFFFF" stroke-width="0.5314" stroke-linecap="round" stroke-linejoin="round" stroke-miterlimit="10" points="
			204.395,72.765 207.926,72.533 200.558,58.983 188.242,59.499 195.877,73.327 204.395,72.765 		"/>
		
			<polygon fill="#4C4C4D" stroke="#FFFFFF" stroke-width="0.5314" stroke-linecap="round" stroke-linejoin="round" stroke-miterlimit="10" points="
			206.365,76.438 206.365,76.438 206.365,76.438 204.395,72.765 195.877,73.327 199.527,80.484 208.141,79.746 		"/>
		
			<polygon fill="#4C4C4D" stroke="#FFFFFF" stroke-width="0.5314" stroke-linecap="round" stroke-linejoin="round" stroke-miterlimit="10" points="
			217.77,82.747 219.721,86.453 223.605,86.019 221.671,82.408 		"/>
		
			<polygon fill="#4C4C4D" stroke="#FFFFFF" stroke-width="0.5314" stroke-linecap="round" stroke-linejoin="round" stroke-miterlimit="10" points="
			213.672,83.103 213.672,83.103 213.672,83.103 210.105,83.411 212.189,87.293 219.721,86.453 217.77,82.747 		"/>
	</g>
	<path fill="#13100F" d="M214.803,39.976l-76.526,1.728l28.188,60.218l79.583-10.244L214.803,39.976z M147.443,45.288l64.863-1.591
		l26.531,43.205l-68.518,8.223L147.443,45.288z"/>
	<g>
		<path fill="#4C4C4D" d="M138.689,41.96l75.968-1.715l32.12,51.328l-80.154,10.167L138.689,41.96z M145.911,43.358
			c-0.09,0.001-0.172,0.048-0.22,0.124s-0.055,0.17-0.018,0.252l23.582,51.668c0.044,0.095,0.139,0.155,0.242,0.155
			c0.011,0,70.98-8.51,70.98-8.51c0.091-0.011,0.169-0.067,0.208-0.148c0.04-0.082,0.034-0.178-0.014-0.255l-27.58-44.435
			c-0.049-0.078-0.134-0.125-0.226-0.125C212.865,42.083,145.911,43.358,145.911,43.358z"/>
		<path fill="#4C4C4D" d="M214.513,40.514l31.818,50.847l-79.55,10.091l-27.679-59.235L214.513,40.514 M169.498,95.823
			c0.021,0,0.042-0.001,0.063-0.003l70.949-8.508c0.18-0.022,0.337-0.134,0.415-0.298c0.079-0.164,0.068-0.356-0.027-0.51
			l-27.58-44.435c-0.097-0.156-0.268-0.251-0.451-0.251c-0.003,0-0.007,0-0.01,0l-66.951,1.274c-0.18,0.003-0.345,0.097-0.44,0.248
			c-0.095,0.152-0.107,0.341-0.033,0.504l23.582,51.668C169.102,95.703,169.292,95.823,169.498,95.823 M214.803,39.976
			l-76.526,1.728l28.188,60.324l80.759-10.244L214.803,39.976L214.803,39.976z M169.498,95.292l-23.582-51.668l66.951-1.274
			l27.58,44.435L169.498,95.292L169.498,95.292z"/>
	</g>
	<path fill="#93928F" d="M138.276,41.704l-2.258,3.587l27.766,59.787c0,0,0.186,1.062,2.312,1.196
		c2.125,0.133,19.776-3.296,23.442-2.764c3.661,0.531,3.211,1.302,3.211,1.302l20.061-2.784c0,0,4.518-1.068,6.244-0.804
		c1.728,0.267-0.558-4.036,25.747-5.937l2.79-3.503l-81.148,9.44L138.276,41.704z"/>
	<polygon fill="#93928F" stroke="#B7B6B6" stroke-width="0.5314" stroke-linejoin="round" stroke-miterlimit="10" points="
		149.305,104.945 123.661,93.652 132.696,92.457 159.229,103.086 	"/>
	<polygon fill="#93928F" stroke="#B7B6B6" stroke-width="0.5314" stroke-linejoin="round" stroke-miterlimit="10" points="
		149.305,153.839 123.661,135.238 123.661,93.652 149.305,104.945 	"/>
	<polygon fill="#93928F" stroke="#B7B6B6" stroke-width="0.5314" stroke-linejoin="round" stroke-miterlimit="10" points="
		159.229,151.471 149.305,153.839 149.305,104.945 159.229,103.086 	"/>
	
		<polygon fill="#4C4C4D" stroke="#FFFFFF" stroke-width="0.5314" stroke-linecap="round" stroke-linejoin="round" stroke-miterlimit="10" points="
		182.321,45.853 185.178,51.582 214.914,50.606 211.768,44.893 	"/>
	
		<polygon fill="#4C4C4D" stroke="#FFFFFF" stroke-width="0.5314" stroke-linecap="round" stroke-linejoin="round" stroke-miterlimit="10" points="
		167.853,84.431 199.686,80.793 203.43,88.264 171.896,92.855 	"/>
	<polygon stroke="#FFFFFF" stroke-width="0.1329" stroke-miterlimit="10" points="224.977,56.208 227.369,56.125 234.544,67.707 
		232.417,67.979 	"/>
	<polygon fill="#171617" points="234.217,71.002 234.544,67.707 232.417,67.979 	"/>
</g>
<g>
	
		<path fill="#4C4C4D" stroke="#4C4C4D" stroke-width="0.5314" stroke-linecap="round" stroke-linejoin="round" stroke-miterlimit="10" d="
		M386.689,137.033c0,0.587-0.475,1.062-1.062,1.062H278.574c-0.587,0-1.062-0.476-1.062-1.062v-72.63
		c0-0.586,0.476-1.062,1.062-1.062h107.053c0.588,0,1.062,0.476,1.062,1.062V137.033z"/>
	<g>
		<rect x="282.145" y="67.414" fill="#FFFFFF" width="99.91" height="56.864"/>
		<path fill="#333333" d="M381.523,67.945v55.801h-98.848V67.945H381.523 M382.586,66.882H281.613v57.926h100.973V66.882
			L382.586,66.882z"/>
	</g>
	<linearGradient id="SVGID_2_" gradientUnits="userSpaceOnUse" x1="348.7676" y1="39.0693" x2="402.7627" y2="128.6523">
		<stop  offset="0" style="stop-color:#FFFFFF"/>
		<stop  offset="1" style="stop-color:#FFFFFF;stop-opacity:0"/>
	</linearGradient>
	<path opacity="0.8" fill="url(#SVGID_2_)" d="M343.926,63.341h41.701c0.588,0,1.062,0.476,1.062,1.062v72.63
		c0,0.587-0.475,1.062-1.062,1.062L343.926,63.341z"/>
	<g>
		
			<linearGradient id="SVGID_3_" gradientUnits="userSpaceOnUse" x1="142.3945" y1="140.0527" x2="172.9235" y2="159.8785" gradientTransform="matrix(-1 0 0 1 490.373 0)">
			<stop  offset="0.0675" style="stop-color:#020202"/>
			<stop  offset="1" style="stop-color:#F1F2F2"/>
		</linearGradient>
		<path fill="url(#SVGID_3_)" d="M315.394,155.82c-0.997-0.2-0.93-1.83-0.93-1.83c7.307-6.047,9.632-14.844,9.632-14.844
			l15.877,0.264c0,0,2.457,9.169,9.764,15.213c0,0,0.066,0.997-0.929,1.197H315.394z"/>
		
			<linearGradient id="SVGID_4_" gradientUnits="userSpaceOnUse" x1="158.2554" y1="133.8584" x2="158.2554" y2="155.3618" gradientTransform="matrix(-1 0 0 1 490.373 0)">
			<stop  offset="0.1835" style="stop-color:#020202"/>
			<stop  offset="1" style="stop-color:#FFFFFF"/>
		</linearGradient>
		<path fill="url(#SVGID_4_)" d="M315.394,155.088c-0.997-0.198-0.894-1.195-0.894-1.195c7.308-6.045,5.5-16.273,5.5-16.273h24.201
			c0,0-1.771,10.229,5.535,16.273c0,0,0.066,0.997-0.929,1.195C347.811,155.288,316.391,155.288,315.394,155.088z"/>
	</g>
	<g>
		<g>
			<path fill="#757576" d="M334.137,114.191c0,0,1.884,3.331,4.064,2.969c2.172-0.365,1.379,2.707,4.432,0.598
				c1.588-1.096-6.123-4.465-6.123-4.465L334.137,114.191z"/>
			<path fill="#757576" d="M337.018,104.388l11.74,1.157c0,0-1.002,1.132-2.027,1.451c-1.025,0.318-6.758,0.978-7.541,0.023
				C338.404,106.066,337.018,104.388,337.018,104.388z"/>
			<polygon fill="#565655" points="336.703,100.304 350.404,101.646 350.101,92.755 341.177,92.349 335.716,99.19 			"/>
			<path fill="#757576" d="M336.109,100.789c0,0,4.81,0.821,6.486-3.869c0,0,3.633,1.473,5.363-1.092
				c1.732-2.566,0.107-0.985,0.107-0.985s-4.236-0.386-5.023-2.109C342.257,91.01,336.109,100.789,336.109,100.789z"/>
			<path fill="#D3D2D1" d="M330.152,99.417c0,0,5.148-9.751,5.732-12.88c0.584-3.13,2.729-2.399,2.729-2.399l17.708,0.661
				c0,0,3.288-0.216,5.785,5.903c2.494,6.117,9.359,14.914,8.93,16.603c-0.432,1.688-8.39,17.267-8.39,17.267
				s-6.932-0.278-14.341-4.06c-7.412-3.779-12.24-5.116-13.587-5.645c-1.344-0.531-3.45-3.905-4.465-6.208
				c0,0-4.554-4.827-1.709-7.204c0,0,3.109-2.738,7.499,1.234l3.912,4.746c0,0,6.595,0.057,7.576-0.809l1.225-1.082
				c0,0-1.15-10.442-0.691-10.703c0.46-0.262-4.033,0.576-5.077-0.936c-1.045-1.512-1.478,0.325-1.478,0.325
				s-6.125,5.501-7.178,5.443C332.305,99.563,330.842,100.854,330.152,99.417z"/>
			<path fill="#A09E9E" d="M333.506,111.023c1.364,1.707,20.871,5.002,23.432,2.305c2.562-2.699,2.284-4.494-0.6-5.291
				c-2.884-0.795-7.58-2.492-7.58-2.492l14.369,1.717c0,0-1.098-6.982-3.619-13.087c-2.521-6.104-11.857-9.699-11.857-9.699
				s2.985,0.021,6.344,0.095c2.076,0.282,4.242-0.091,6.068,1.978c0.982,1.216,1.738,2.932,3.433,6.056
				c3.229,5.953,7.722,13.096,7.521,14.108c-0.2,1.013-8.369,17.859-8.369,17.859s-6.509-0.603-9.849-2.138
				c-2.617-1.03-15.02-6.59-18.079-7.566c-1.739-0.98-4.519-5.447-6.054-8.333C326.964,104.222,332.145,109.316,333.506,111.023z"/>
			<polygon fill="#7F7F7F" points="360.867,125.416 366.145,115.521 380.648,123.218 375.852,133.123 			"/>
			<polygon fill="#4C4C4D" points="371.211,105.939 366.145,115.521 380.648,123.218 385.777,112.725 			"/>
		</g>
		<g>
			<path fill="#93928F" d="M318.453,97.608l46.256,6.019c0,0,1.228,0.387,1.416,2.061c-0.564,1.588-1.848,1.688-1.848,1.688
				l-46.415-4.622"/>
			<g>
				<g>
					<polygon fill="#C7CACC" points="317.803,102.688 312.328,99.453 318.395,97.542 					"/>
				</g>
				<polyline fill="#1E2021" points="313.484,100.134 312.328,99.453 313.609,99.049 				"/>
			</g>
			<polygon fill="#4C4C4D" points="318.681,97.637 338.857,100.261 318.459,98.351 			"/>
			<polygon fill="#4C4C4D" points="364.949,103.565 344.783,101.034 364.986,104.311 365.652,104.361 			"/>
			<polygon fill="#4C4C4D" points="364.619,107.387 344.391,105.395 364.818,106.668 365.478,106.766 			"/>
			<polygon fill="#4C4C4D" points="317.98,102.832 338.231,104.789 317.925,102.084 			"/>
			<polygon fill="#4C4C4D" points="317.961,100.667 338.213,102.627 317.905,99.921 			"/>
			<polygon fill="#4C4C4D" points="365.73,105.223 345.5,103.263 365.786,105.969 			"/>
			<path fill="none" stroke="#FFFFFF" stroke-width="0.654" stroke-linecap="round" stroke-miterlimit="10" d="M317.862,102.753
				c0,0,0.055-0.744,0.296-2.571c0.24-1.828,0.295-2.573,0.295-2.573"/>
		</g>
		<g>
			<path fill="#D3D2D1" d="M339.344,107.139l-3.518-5.092c-4.39-3.974-7.5-1.236-7.5-1.236c-2.844,2.379,0.9,5.58,0.9,5.58
				l4.236,0.412L339.344,107.139z"/>
			<path fill="#A09E9E" d="M348.017,97.333c-0.058-1.902-0.104-2.502,0.05-2.491c0,0-4.604,1.082-6.061-1.467
				c-1.725,2.549-3.982,6.6-7.356,6.741c-4.727,0.196-4.497-0.699-4.497-0.699s9.545-6.519,10.48-9.246
				c0.936-2.729,4.923,0.51,5.015,0.758c0.091,0.247,2.806,0.323,4.212,0.534c1.409,0.212,0.845,9.29,0.845,9.29l-0.04,1.046
				l-2.398-0.312L348.017,97.333z"/>
			<path fill="#E7AB98" d="M348.633,105.668"/>
			<g>
				<path fill="#BCBBBB" d="M328.432,105.783c-1.547-2.343-0.924-3.93-0.693-4.363c0.207-0.392,0.445-0.568,0.549-0.568
					c0.931,0.361,1.836,2.439,1.559,3.534c-0.008-0.06-0.082-0.073-0.154-0.073C329.018,104.312,328.555,105.444,328.432,105.783z"
					/>
				<path fill="#787878" d="M328.287,100.9l0.004,0c0.867,0.341,1.729,2.278,1.529,3.377c-0.043-0.009-0.086-0.014-0.129-0.014
					c-0.651,0-1.107,0.992-1.271,1.414c-1.467-2.277-0.863-3.812-0.639-4.235C327.984,101.06,328.211,100.9,328.287,100.9
					 M328.287,100.804c-0.428,0-1.927,2.006,0.158,5.087c0,0,0.498-1.53,1.246-1.53c0.065,0,0.133,0.012,0.201,0.037
					c0.273-1.08-0.596-3.205-1.566-3.587C328.314,100.806,328.301,100.804,328.287,100.804L328.287,100.804z"/>
			</g>
			<path fill="#956E86" d="M375.635,132.479"/>
		</g>
	</g>
</g>
<g opacity="0.97">
	<path d="M93.837,126.375h-7.141v-5.145h7.141v-7.044H99v7.044h7.141v5.145H99v6.929h-5.163V126.375z"/>
</g>
<g opacity="0.97">
	<path d="M245.01,126.375h-7.141v-5.145h7.141v-7.044h5.163v7.044h7.141v5.145h-7.141v6.929h-5.163V126.375z"/>
</g>
</svg>
