<?xml version="1.0" encoding="utf-8"?>
<!-- Generator: Adobe Illustrator 16.0.0, SVG Export Plug-In . SVG Version: 6.00 Build 0)  -->
<!DOCTYPE svg PUBLIC "-//W3C//DTD SVG 1.1//EN" "http://www.w3.org/Graphics/SVG/1.1/DTD/svg11.dtd">
<svg version="1.1" id="Layer_1" xmlns="http://www.w3.org/2000/svg" xmlns:xlink="http://www.w3.org/1999/xlink" x="0px" y="0px"
	 width="200px" height="200px" viewBox="0 0 200 200" enable-background="new 0 0 200 200" xml:space="preserve">
<g>
	<g>
		<g>
			<path fill="#767472" stroke="#767472" stroke-width="1.5" stroke-miterlimit="10" d="M190.355,140.036
				c0,3.134-2.541,5.674-5.674,5.674h-33.666c-3.135,0-5.676-2.54-5.676-5.674V73.461c0-3.133,2.541-5.673,5.676-5.673h33.666
				c3.133,0,5.674,2.54,5.674,5.673V140.036z"/>
			<path fill="none" stroke="#000000" stroke-width="0.5" stroke-miterlimit="10" d="M187.533,67.71v71.002
				c0,0-0.189,2.648-0.945,2.648"/>
		</g>
		<path fill="#93928F" d="M187.561,138.751v8.094c0,3.134-2.541,5.675-5.674,5.675h-36.814c-3.133,0-5.674-2.541-5.674-5.675v-7.943
			"/>
		
			<path fill="#4C4C4D" stroke="#4C4C4D" stroke-width="0.5" stroke-linecap="round" stroke-linejoin="round" stroke-miterlimit="10" d="
			M187.059,140.981c0,3.134-2.539,5.674-5.672,5.674h-36.314c-3.135,0-5.674-2.54-5.674-5.674V65.896
			c0-3.134,2.539-5.675,5.674-5.675h36.314c3.133,0,5.672,2.541,5.672,5.675V140.981z"/>
		<path fill="#93928F" stroke="#B7B6B6" stroke-width="0.5" stroke-linejoin="round" stroke-miterlimit="10" d="M183.373,63.816
			v68.844c0,3.134-2.541,5.674-5.676,5.674H148.76c-3.133,0-5.674-2.54-5.674-5.674V63.816H183.373z"/>
		<path fill="none" stroke="#767472" stroke-width="0.25" stroke-miterlimit="10" d="M180.846,60.122
			c3.133,0,2.527,3.215,2.527,3.215h-40.287c0,0-0.553-3.265,2.58-3.265"/>
		<path fill="#FFFFFF" stroke="#000000" stroke-width="0.5" stroke-miterlimit="10" d="M178.648,128.879
			c0,1.565-1.27,2.837-2.836,2.837h-25.156c-1.566,0-2.837-1.271-2.837-2.837V74.975c0-1.566,1.271-2.837,2.837-2.837h25.156
			c1.566,0,2.836,1.271,2.836,2.837V128.879z"/>
		<path fill="none" stroke="#767472" stroke-width="0.4449" stroke-miterlimit="10" d="M148.16,75.373
			c-0.341-1.419,0.717-2.837,2.248-2.837h25.607c1.533,0,2.301,1.27,2.301,2.837"/>
		<line fill="none" stroke="#767472" stroke-miterlimit="10" x1="148.145" y1="91.43" x2="178.312" y2="91.43"/>
		<line fill="none" stroke="#767472" stroke-miterlimit="10" x1="178.312" y1="95.779" x2="148.145" y2="95.779"/>
		<rect x="149.518" y="92.522" fill="#767472" width="12.482" height="2.086"/>
		<rect x="164.221" y="92.522" fill="#767472" width="12.482" height="2.086"/>
		<text transform="matrix(1 0 0 1 164.5098 87.1738)" font-family="'OpenSans'" font-size="6.8088">€17</text>
		
			<line fill="none" stroke="#767472" stroke-width="0.4449" stroke-miterlimit="10" x1="149.518" y1="73.954" x2="153.961" y2="73.954"/>
		
			<line fill="none" stroke="#767472" stroke-width="0.4449" stroke-miterlimit="10" x1="171.48" y1="73.954" x2="176.02" y2="73.954"/>
		
			<line fill="none" stroke="#767472" stroke-width="0.4449" stroke-miterlimit="10" x1="172.473" y1="74.62" x2="175.521" y2="74.62"/>
		
			<line fill="none" stroke="#767472" stroke-width="0.4449" stroke-miterlimit="10" x1="173.324" y1="73.272" x2="175.521" y2="73.272"/>
		
			<line fill="none" stroke="#767472" stroke-width="0.4449" stroke-miterlimit="10" x1="160.131" y1="73.954" x2="167.225" y2="73.954"/>
		
			<line fill="none" stroke="#767472" stroke-width="0.4449" stroke-miterlimit="10" x1="162.33" y1="74.62" x2="165.311" y2="74.62"/>
		
			<line fill="none" stroke="#767472" stroke-width="0.4449" stroke-miterlimit="10" x1="166.443" y1="74.62" x2="167.225" y2="74.62"/>
		<g>
			<line fill="#FFFFFF" stroke="#767472" stroke-miterlimit="10" x1="148.145" y1="99.145" x2="178.316" y2="99.145"/>
			<path fill="none" stroke="#767472" stroke-width="0.5" stroke-miterlimit="10" d="M157.654,105.386
				c0,0.627-0.498,1.135-1.111,1.135h-5.691c-0.613,0-1.111-0.508-1.111-1.135v-3.404c0-0.626,0.498-1.135,1.111-1.135h5.691
				c0.613,0,1.111,0.509,1.111,1.135V105.386z"/>
			<path fill="none" stroke="#767472" stroke-width="0.5" stroke-miterlimit="10" d="M167.188,105.386
				c0,0.627-0.498,1.135-1.111,1.135h-5.691c-0.613,0-1.111-0.508-1.111-1.135v-3.404c0-0.626,0.498-1.135,1.111-1.135h5.691
				c0.613,0,1.111,0.509,1.111,1.135V105.386z"/>
			<path fill="none" stroke="#767472" stroke-width="0.5" stroke-miterlimit="10" d="M176.719,105.386
				c0,0.627-0.496,1.135-1.109,1.135h-5.691c-0.613,0-1.111-0.508-1.111-1.135v-3.404c0-0.626,0.498-1.135,1.111-1.135h5.691
				c0.613,0,1.109,0.509,1.109,1.135V105.386z"/>
			<path fill="none" stroke="#767472" stroke-width="0.5" stroke-miterlimit="10" d="M157.654,112.762
				c0,0.627-0.498,1.136-1.111,1.136h-5.691c-0.613,0-1.111-0.509-1.111-1.136v-3.404c0-0.626,0.498-1.135,1.111-1.135h5.691
				c0.613,0,1.111,0.509,1.111,1.135V112.762z"/>
			<path fill="none" stroke="#767472" stroke-width="0.5" stroke-miterlimit="10" d="M167.188,112.762
				c0,0.627-0.498,1.136-1.111,1.136h-5.691c-0.613,0-1.111-0.509-1.111-1.136v-3.404c0-0.626,0.498-1.135,1.111-1.135h5.691
				c0.613,0,1.111,0.509,1.111,1.135V112.762z"/>
			<path fill="none" stroke="#767472" stroke-width="0.5" stroke-miterlimit="10" d="M176.719,112.762
				c0,0.627-0.496,1.136-1.109,1.136h-5.691c-0.613,0-1.111-0.509-1.111-1.136v-3.404c0-0.626,0.498-1.135,1.111-1.135h5.691
				c0.613,0,1.109,0.509,1.109,1.135V112.762z"/>
			<path fill="none" stroke="#767472" stroke-width="0.5" stroke-miterlimit="10" d="M157.654,120.139
				c0,0.627-0.498,1.135-1.111,1.135h-5.691c-0.613,0-1.111-0.508-1.111-1.135v-3.405c0-0.626,0.498-1.135,1.111-1.135h5.691
				c0.613,0,1.111,0.509,1.111,1.135V120.139z"/>
			<path fill="none" stroke="#767472" stroke-width="0.5" stroke-miterlimit="10" d="M167.188,120.139
				c0,0.627-0.498,1.135-1.111,1.135h-5.691c-0.613,0-1.111-0.508-1.111-1.135v-3.405c0-0.626,0.498-1.135,1.111-1.135h5.691
				c0.613,0,1.111,0.509,1.111,1.135V120.139z"/>
			<path fill="none" stroke="#767472" stroke-width="0.5" stroke-miterlimit="10" d="M176.719,120.139
				c0,0.627-0.496,1.135-1.109,1.135h-5.691c-0.613,0-1.111-0.508-1.111-1.135v-3.405c0-0.626,0.498-1.135,1.111-1.135h5.691
				c0.613,0,1.109,0.509,1.109,1.135V120.139z"/>
			<path fill="#ED1D38" d="M157.654,127.518c0,0.626-0.498,1.135-1.111,1.135h-5.691c-0.613,0-1.111-0.509-1.111-1.135v-3.407
				c0-0.626,0.498-1.135,1.111-1.135h5.691c0.613,0,1.111,0.509,1.111,1.135V127.518z"/>
			<path fill="none" stroke="#767472" stroke-width="0.5" stroke-miterlimit="10" d="M167.188,127.518
				c0,0.626-0.498,1.135-1.111,1.135h-5.691c-0.613,0-1.111-0.509-1.111-1.135v-3.407c0-0.626,0.498-1.135,1.111-1.135h5.691
				c0.613,0,1.111,0.509,1.111,1.135V127.518z"/>
			<path fill="#EADE15" d="M176.719,127.518c0,0.626-0.496,1.135-1.109,1.135h-5.691c-0.613,0-1.111-0.509-1.111-1.135v-3.407
				c0-0.626,0.498-1.135,1.111-1.135h5.691c0.613,0,1.109,0.509,1.109,1.135V127.518z"/>
		</g>
		<g>
			<path fill="none" stroke="#767472" stroke-width="0.4449" stroke-miterlimit="10" d="M152.85,143.337
				c0,0.626-0.508,1.135-1.135,1.135h-4.396c-0.627,0-1.135-0.509-1.135-1.135v-1.702c0-0.627,0.508-1.136,1.135-1.136h4.396
				c0.627,0,1.135,0.509,1.135,1.136V143.337z"/>
			<path fill="#FFFFFF" d="M182.027,143.337c0,0.626-0.51,1.135-1.135,1.135h-4.398c-0.627,0-1.135-0.509-1.135-1.135v-1.702
				c0-0.627,0.508-1.136,1.135-1.136h4.398c0.625,0,1.135,0.509,1.135,1.136V143.337z"/>
			<path fill="#FFFFFF" d="M152.85,143.337c0,0.626-0.508,1.135-1.135,1.135h-4.396c-0.627,0-1.135-0.509-1.135-1.135v-1.702
				c0-0.627,0.508-1.136,1.135-1.136h4.396c0.627,0,1.135,0.509,1.135,1.136V143.337z"/>
			<g>
				<path fill="#FFFFFF" d="M162.576,143.337c0,0.626-0.509,1.135-1.135,1.135h-4.398c-0.627,0-1.135-0.509-1.135-1.135v-1.702
					c0-0.627,0.508-1.136,1.135-1.136h4.398c0.626,0,1.135,0.509,1.135,1.136V143.337z"/>
			</g>
			<g>
				<path fill="#FFFFFF" d="M172.045,143.337c0,0.626-0.508,1.135-1.135,1.135h-4.398c-0.627,0-1.135-0.509-1.135-1.135v-1.702
					c0-0.627,0.508-1.136,1.135-1.136h4.398c0.627,0,1.135,0.509,1.135,1.136V143.337z"/>
			</g>
		</g>
		
			<line fill="#4C4C4D" stroke="#4C4C4D" stroke-width="2" stroke-miterlimit="10" x1="149.694" y1="149.162" x2="180.062" y2="149.162"/>
		
			<line fill="#FFFFFF" stroke="#767472" stroke-width="0.5062" stroke-miterlimit="10" x1="148.16" y1="75.373" x2="178.312" y2="75.373"/>
	</g>
	<g>
		
			<polyline fill="#4C4C4D" stroke="#171617" stroke-width="0.5" stroke-linecap="round" stroke-linejoin="round" stroke-miterlimit="10" points="
			104.438,59.284 107.308,59.207 114.018,69.979 113.613,74.426 		"/>
		<path fill="#4C4C4D" stroke="#4C4C4D" stroke-width="0.5" stroke-miterlimit="10" d="M33.392,151.139l5.75,3.958
			c0,0,0.625,0.167,1.625,0c1-0.166,58.167-13.892,58.167-13.892v-1.219l-12.201-5.538l-26.593-27.31l-25.206,20.125l-4.667,20.167
			L33.392,151.139z"/>
		<linearGradient id="SVGID_1_" gradientUnits="userSpaceOnUse" x1="34.0166" y1="141.2051" x2="98.2969" y2="141.2051">
			<stop  offset="0.1835" style="stop-color:#020202"/>
			<stop  offset="1" style="stop-color:#FFFFFF"/>
		</linearGradient>
		<path fill="url(#SVGID_1_)" d="M34.017,150.528l4.488,3.057c0,0,0.792,0.167,2.458,0c1.667-0.167,57.334-13.61,57.334-13.61
			l-11.917-5.538l-33.083-3.046l-14.792-2.639L34.017,150.528z"/>
		<polygon fill="#CECBCD" points="69.019,107.139 87.017,114.139 60.14,118.458 51.349,115.096 49.517,111.139 		"/>
		<path fill="#F4F4F6" stroke="#444544" stroke-width="0.5" stroke-miterlimit="10" d="M59.945,144.779"/>
		<polygon fill="#9A9A9D" points="59.945,144.779 60.14,118.458 49.517,114.139 45.683,136.113 		"/>
		<polygon fill="#E3E4E5" points="59.945,144.779 60.14,118.458 87.017,114.139 86.683,138.014 		"/>
		<path fill="none" stroke="#FFFFFF" stroke-width="0.5" stroke-miterlimit="10" d="M65.212,122.971
			c-0.101,0.018-0.21-0.12-0.243-0.308l0,0c-0.034-0.188,0.02-0.354,0.12-0.372l17.759-3.212c0.101-0.018,0.21,0.119,0.243,0.308
			l0,0c0.034,0.187-0.02,0.354-0.119,0.371"/>
		
			<line fill="none" stroke="#4C4C4D" stroke-width="0.25" stroke-miterlimit="10" x1="83.408" y1="119.427" x2="87.017" y2="118.768"/>
		<path fill="none" stroke="#0F0D0D" stroke-width="0.125" stroke-miterlimit="10" d="M86.683,138.348l-25.147,6.075
			c0,0-1.198,0.225-1.603,0.225s-1.54-0.628-1.54-0.628l-10.749-6.256"/>
		<path fill="#0F0D0D" d="M83.091,119.477c0.034,0.187-0.02,0.354-0.119,0.372l-17.76,3.212c-0.101,0.018-0.21-0.119-0.243-0.307
			l0,0c-0.034-0.188,0.02-0.354,0.12-0.373l17.759-3.212C82.948,119.151,83.058,119.289,83.091,119.477L83.091,119.477z"/>
		<path fill="#F5F6F8" d="M66.255,122.729c0,0,1.761,3.438,1.761,4.438c0,0,5.109-1.084,5.763-1.084c0.654,0,10.57-2,10.57-2
			l-2.164-4.234L66.255,122.729z"/>
		<line fill="none" stroke="#FFFFFF" stroke-width="0.5" stroke-miterlimit="10" x1="60.14" y1="118.458" x2="60.14" y2="144.348"/>
		<path fill="none" stroke="#4C4C4D" stroke-width="0.25" stroke-miterlimit="10" d="M48.453,118.443l11.648,5.163
			c0,0,3.443-0.665,4.568-0.853"/>
		
			<ellipse fill="none" stroke="#9A9A9D" stroke-width="0.2145" stroke-miterlimit="10" cx="62.213" cy="134.448" rx="1.334" ry="1.56"/>
		<ellipse fill="#FFFFFF" cx="62.26" cy="134.448" rx="1.334" ry="1.56"/>
		
			<ellipse fill="none" stroke="#899596" stroke-width="0.125" stroke-miterlimit="10" cx="62.139" cy="139.381" rx="1.381" ry="1.592"/>
		
			<ellipse fill="none" stroke="#9A9A9D" stroke-width="0.25" stroke-miterlimit="10" cx="62.388" cy="139.331" rx="0.569" ry="0.655"/>
		
			<ellipse fill="none" stroke="#C4C6C6" stroke-width="0.2059" stroke-miterlimit="10" cx="62.445" cy="139.331" rx="0.569" ry="0.655"/>
		
			<ellipse fill="none" stroke="#C4C6C6" stroke-width="0.25" stroke-miterlimit="10" cx="62.289" cy="139.331" rx="1.381" ry="1.593"/>
		<polygon opacity="0.2" fill="#4C4C4D" stroke="#4C4C4D" stroke-width="0.5" stroke-miterlimit="10" points="52.408,115.314 
			72.618,108.539 69.829,106.826 50.017,112.799 50.017,114.826 		"/>
		<path fill="#4C4C4D" stroke="#4C4C4D" stroke-width="0.5" stroke-miterlimit="10" d="M22.267,93.389c0,0,15.25,6.125,18.625,6.875
			s3.803,0,3.803,0l49.628-0.25l0.694,3.1c0,0-14.361,1.582-27.269,4.9c-10.567,2.717-20.16,5.764-20.104,16.312v23.615l-4.913,0.97
			v-45.522c-0.956-0.375-24.214-9.5-24.214-9.5L22.267,93.389z"/>
		<g>
			
				<polygon fill="#4C4C4D" stroke="#FFFFFF" stroke-width="0.5" stroke-linecap="round" stroke-linejoin="round" stroke-miterlimit="10" points="
				64.396,78.536 68.067,78.217 66.225,74.777 62.583,75.09 			"/>
			
				<polygon fill="#4C4C4D" stroke="#FFFFFF" stroke-width="0.5" stroke-linecap="round" stroke-linejoin="round" stroke-miterlimit="10" points="
				66.225,74.777 64.642,71.822 60.998,72.081 62.583,75.09 			"/>
			
				<polygon fill="#4C4C4D" stroke="#FFFFFF" stroke-width="0.5" stroke-linecap="round" stroke-linejoin="round" stroke-miterlimit="10" points="
				58.669,75.426 62.583,75.09 60.998,72.081 57.004,72.363 			"/>
			
				<polygon fill="#4C4C4D" stroke="#FFFFFF" stroke-width="0.5" stroke-linecap="round" stroke-linejoin="round" stroke-miterlimit="10" points="
				53.472,72.6 57.004,72.363 55.135,69.108 51.921,69.391 			"/>
			
				<polygon fill="#4C4C4D" stroke="#FFFFFF" stroke-width="0.5" stroke-linecap="round" stroke-linejoin="round" stroke-miterlimit="10" points="
				58.669,75.426 60.542,78.87 64.396,78.536 62.583,75.09 			"/>
			
				<polygon fill="#4C4C4D" stroke="#FFFFFF" stroke-width="0.5" stroke-linecap="round" stroke-linejoin="round" stroke-miterlimit="10" points="
				60.876,72.081 59.22,68.625 55.135,68.876 57.004,72.363 			"/>
			
				<polygon fill="#4C4C4D" stroke="#FFFFFF" stroke-width="0.5" stroke-linecap="round" stroke-linejoin="round" stroke-miterlimit="10" points="
				62.768,61.691 69.409,61.377 66.042,55.394 59.503,55.681 			"/>
			
				<polygon fill="#4C4C4D" stroke="#FFFFFF" stroke-width="0.5" stroke-linecap="round" stroke-linejoin="round" stroke-miterlimit="10" points="
				55.005,75.77 56.733,79.343 60.542,78.87 58.669,75.426 			"/>
			
				<polygon fill="#4C4C4D" stroke="#FFFFFF" stroke-width="0.5" stroke-linecap="round" stroke-linejoin="round" stroke-miterlimit="10" points="
				66.042,55.394 62.764,49.414 56.25,49.542 59.503,55.681 			"/>
			
				<polygon fill="#4C4C4D" stroke="#FFFFFF" stroke-width="0.5" stroke-linecap="round" stroke-linejoin="round" stroke-miterlimit="10" points="
				57.004,72.363 53.472,72.6 55.005,75.77 58.669,75.426 			"/>
			
				<polygon fill="#4C4C4D" stroke="#FFFFFF" stroke-width="0.5" stroke-linecap="round" stroke-linejoin="round" stroke-miterlimit="10" points="
				48.204,56.177 59.503,55.681 56.25,49.542 48.731,49.84 51.773,55.803 48.731,49.84 33.719,50.155 37.045,57.086 48.204,56.177 
							"/>
			
				<polygon fill="#4C4C4D" stroke="#FFFFFF" stroke-width="0.5" stroke-linecap="round" stroke-linejoin="round" stroke-miterlimit="10" points="
				61.301,72.257 64.945,71.999 63.22,68.779 64.945,71.999 68.371,71.756 64.945,71.999 66.528,74.954 70.017,74.654 
				66.601,68.366 59.499,68.834 			"/>
			
				<polyline fill="#49C4D9" stroke="#FFFFFF" stroke-width="0.5" stroke-linecap="round" stroke-linejoin="round" stroke-miterlimit="10" points="
				62.768,61.691 59.503,55.681 48.204,56.177 54.334,68.926 66.298,68.19 62.768,61.691 			"/>
			
				<polygon fill="#4C4C4D" stroke="#FFFFFF" stroke-width="0.5" stroke-linecap="round" stroke-linejoin="round" stroke-miterlimit="10" points="
				62.768,61.691 66.298,68.19 72.993,67.749 69.409,61.377 			"/>
			
				<polygon fill="#4C4C4D" stroke="#FFFFFF" stroke-width="0.5" stroke-linecap="round" stroke-linejoin="round" stroke-miterlimit="10" points="
				68.067,78.217 68.067,78.217 68.067,78.217 69.713,81.289 73.809,80.843 69.713,74.478 66.225,74.777 			"/>
			
				<polygon fill="#ED2578" stroke="#FFFFFF" stroke-width="0.5" stroke-linecap="round" stroke-linejoin="round" stroke-miterlimit="10" points="
				54.666,75.712 46.477,76.714 50,84.033 58.162,83.011 			"/>
			
				<polygon fill="#4C4C4D" stroke="#FFFFFF" stroke-width="0.5" stroke-linecap="round" stroke-linejoin="round" stroke-miterlimit="10" points="
				54.385,68.926 48.204,56.177 37.045,57.086 43.162,69.979 			"/>
			
				<polygon fill="#4C4C4D" stroke="#FFFFFF" stroke-width="0.5" stroke-linecap="round" stroke-linejoin="round" stroke-miterlimit="10" points="
				51.521,69.249 43.262,69.979 46.452,76.714 54.767,75.712 			"/>
			
				<polygon fill="#4C4C4D" stroke="#FFFFFF" stroke-width="0.5" stroke-linecap="round" stroke-linejoin="round" stroke-miterlimit="10" points="
				64.396,78.536 66.225,81.614 69.713,81.218 68.067,78.217 			"/>
			
				<polygon fill="#4C4C4D" stroke="#FFFFFF" stroke-width="0.5" stroke-linecap="round" stroke-linejoin="round" stroke-miterlimit="10" points="
				60.542,78.87 60.542,78.87 60.542,78.87 56.954,79.233 58.575,82.634 66.225,81.78 64.396,78.536 			"/>
		</g>
		<g>
			
				<polygon fill="#4C4C4D" stroke="#FFFFFF" stroke-width="0.5" stroke-linecap="round" stroke-linejoin="round" stroke-miterlimit="10" points="
				97.807,84.253 101.478,83.935 99.635,80.495 95.992,80.808 			"/>
			
				<polygon fill="#4C4C4D" stroke="#FFFFFF" stroke-width="0.5" stroke-linecap="round" stroke-linejoin="round" stroke-miterlimit="10" points="
				99.635,80.495 98.052,77.54 94.407,77.798 95.992,80.808 			"/>
			
				<polygon fill="#4C4C4D" stroke="#FFFFFF" stroke-width="0.5" stroke-linecap="round" stroke-linejoin="round" stroke-miterlimit="10" points="
				92.079,81.144 95.992,80.808 94.407,77.798 90.414,78.081 			"/>
			
				<polygon fill="#4C4C4D" stroke="#FFFFFF" stroke-width="0.5" stroke-linecap="round" stroke-linejoin="round" stroke-miterlimit="10" points="
				87.076,78.317 90.414,78.081 88.545,74.644 85.223,74.862 			"/>
			
				<polygon fill="#4C4C4D" stroke="#FFFFFF" stroke-width="0.5" stroke-linecap="round" stroke-linejoin="round" stroke-miterlimit="10" points="
				92.079,81.144 93.951,84.588 97.807,84.253 95.992,80.808 			"/>
			
				<polygon fill="#4C4C4D" stroke="#FFFFFF" stroke-width="0.5" stroke-linecap="round" stroke-linejoin="round" stroke-miterlimit="10" points="
				94.407,77.798 92.605,74.376 88.545,74.644 90.414,78.081 			"/>
			
				<polygon fill="#4C4C4D" stroke="#FFFFFF" stroke-width="0.5" stroke-linecap="round" stroke-linejoin="round" stroke-miterlimit="10" points="
				96.178,67.409 103.669,67.095 100.004,61.111 92.913,61.398 			"/>
			
				<polygon fill="#4C4C4D" stroke="#FFFFFF" stroke-width="0.5" stroke-linecap="round" stroke-linejoin="round" stroke-miterlimit="10" points="
				88.746,81.43 90.597,84.878 93.951,84.588 92.079,81.144 			"/>
			
				<polygon fill="#4C4C4D" stroke="#FFFFFF" stroke-width="0.5" stroke-linecap="round" stroke-linejoin="round" stroke-miterlimit="10" points="
				100.004,61.111 96.173,54.932 89.66,55.01 92.913,61.398 			"/>
			
				<polygon fill="#4C4C4D" stroke="#FFFFFF" stroke-width="0.5" stroke-linecap="round" stroke-linejoin="round" stroke-miterlimit="10" points="
				90.414,78.081 87.076,78.317 88.746,81.43 92.079,81.144 			"/>
			
				<polyline fill="#4C4C4D" stroke="#FFFFFF" stroke-width="0.5" stroke-linecap="round" stroke-linejoin="round" stroke-miterlimit="10" points="
				70.126,62.38 81.613,61.895 78.532,55.47 81.613,61.895 92.913,61.398 89.66,55.06 82.141,55.408 85.183,61.521 82.141,55.408 
				66.204,55.681 			"/>
			
				<polygon fill="#4C4C4D" stroke="#FFFFFF" stroke-width="0.5" stroke-linecap="round" stroke-linejoin="round" stroke-miterlimit="10" points="
				94.407,77.798 98.052,77.54 96.326,74.32 98.052,77.54 101.478,77.298 98.052,77.54 99.635,80.495 103.123,80.196 99.707,73.908 
				92.605,74.376 			"/>
			
				<polygon fill="#4C4C4D" stroke="#FFFFFF" stroke-width="0.5" stroke-linecap="round" stroke-linejoin="round" stroke-miterlimit="10" points="
				96.037,67.416 96.178,67.409 92.913,61.398 81.613,61.895 88.545,74.644 92.605,74.376 92.576,74.32 92.605,74.376 
				99.707,73.908 96.178,67.409 			"/>
			
				<polygon fill="#4C4C4D" stroke="#FFFFFF" stroke-width="0.5" stroke-linecap="round" stroke-linejoin="round" stroke-miterlimit="10" points="
				96.207,67.409 99.707,73.908 107.503,73.466 103.669,67.095 			"/>
			
				<polygon fill="#4C4C4D" stroke="#FFFFFF" stroke-width="0.5" stroke-linecap="round" stroke-linejoin="round" stroke-miterlimit="10" points="
				101.478,83.935 101.478,83.935 101.478,83.935 103.297,87.332 106.788,86.943 103.123,80.196 99.635,80.495 			"/>
			
				<polygon fill="#36479D" stroke="#FFFFFF" stroke-width="0.5" stroke-linecap="round" stroke-linejoin="round" stroke-miterlimit="10" points="
				90.597,84.878 90.597,84.878 88.746,81.43 80.644,82.125 84.376,89.444 92.557,88.531 90.597,84.878 			"/>
			
				<polyline fill="#45B649" stroke="#FFFFFF" stroke-width="0.5" stroke-linecap="round" stroke-linejoin="round" stroke-miterlimit="10" points="
				85.223,74.862 88.545,74.644 81.613,61.895 70.026,62.38 77.209,75.391 85.223,74.862 			"/>
			
				<polygon fill="#4C4C4D" stroke="#FFFFFF" stroke-width="0.5" stroke-linecap="round" stroke-linejoin="round" stroke-miterlimit="10" points="
				87.076,78.317 87.076,78.317 87.076,78.317 85.223,74.862 77.209,75.391 80.644,82.125 88.746,81.43 			"/>
			
				<polygon fill="#4C4C4D" stroke="#FFFFFF" stroke-width="0.5" stroke-linecap="round" stroke-linejoin="round" stroke-miterlimit="10" points="
				97.807,84.253 99.643,87.74 103.297,87.332 101.478,83.935 			"/>
			
				<polygon fill="#4C4C4D" stroke="#FFFFFF" stroke-width="0.5" stroke-linecap="round" stroke-linejoin="round" stroke-miterlimit="10" points="
				93.951,84.588 93.951,84.588 93.951,84.588 90.597,84.878 92.557,88.531 99.643,87.74 97.807,84.253 			"/>
		</g>
		<path fill="#13100F" d="M95.015,44.013l-71.998,1.626l26.521,56.655l74.875-9.638L95.015,44.013z M31.642,49.01l61.025-1.497
			l24.963,40.648l-64.465,7.736L31.642,49.01z"/>
		<g>
			<path fill="#4C4C4D" d="M23.405,45.88l71.473-1.614l30.22,48.292l-75.411,9.566L23.405,45.88z M30.199,47.194
				c-0.084,0.001-0.162,0.045-0.207,0.117s-0.051,0.161-0.016,0.237L52.164,96.16c0.041,0.09,0.131,0.146,0.228,0.146
				c0.01,0,66.779-8.006,66.779-8.006c0.085-0.01,0.159-0.063,0.196-0.14c0.037-0.077,0.032-0.167-0.013-0.24L93.406,46.113
				c-0.046-0.074-0.127-0.118-0.213-0.118C93.191,45.995,30.199,47.194,30.199,47.194z"/>
			<path fill="#4C4C4D" d="M94.741,44.519l29.937,47.84l-74.842,9.494L23.794,46.121L94.741,44.519 M52.392,96.556
				c0.02,0,0.039-0.001,0.06-0.003l66.75-8.004c0.17-0.021,0.317-0.126,0.391-0.28c0.074-0.154,0.064-0.335-0.025-0.48
				L93.618,45.981c-0.091-0.147-0.252-0.236-0.425-0.236c-0.003,0-0.006,0-0.01,0l-62.989,1.199
				c-0.168,0.003-0.324,0.091-0.414,0.234c-0.089,0.142-0.102,0.32-0.032,0.474l22.188,48.611
				C52.019,96.443,52.197,96.556,52.392,96.556 M95.015,44.013l-71.998,1.626l26.521,56.756l75.979-9.638L95.015,44.013
				L95.015,44.013z M52.392,96.056L30.204,47.444l62.989-1.199l25.948,41.807L52.392,96.056L52.392,96.056z"/>
		</g>
		<path fill="#93928F" d="M23.017,45.639l-2.125,3.375l26.125,56.25c0,0,0.174,1,2.174,1.125s18.608-3.1,22.055-2.6
			c3.447,0.5,3.021,1.225,3.021,1.225l18.875-2.619c0,0,4.25-1.006,5.875-0.756s-0.526-3.798,24.224-5.586l2.625-3.296
			l-76.349,8.882L23.017,45.639z"/>
		<polygon fill="#93928F" stroke="#B7B6B6" stroke-width="0.5" stroke-linejoin="round" stroke-miterlimit="10" points="
			33.392,105.139 9.267,94.514 17.767,93.389 42.73,103.389 		"/>
		<polygon fill="#93928F" stroke="#B7B6B6" stroke-width="0.5" stroke-linejoin="round" stroke-miterlimit="10" points="
			33.392,151.139 9.267,133.639 9.267,94.514 33.392,105.139 		"/>
		<polygon fill="#93928F" stroke="#B7B6B6" stroke-width="0.5" stroke-linejoin="round" stroke-miterlimit="10" points="
			42.73,148.911 33.392,151.139 33.392,105.139 42.73,103.389 		"/>
		
			<polygon fill="#4C4C4D" stroke="#FFFFFF" stroke-width="0.5" stroke-linecap="round" stroke-linejoin="round" stroke-miterlimit="10" points="
			64.456,49.542 67.143,54.932 95.119,54.014 92.159,48.639 		"/>
		
			<polygon fill="#4C4C4D" stroke="#FFFFFF" stroke-width="0.5" stroke-linecap="round" stroke-linejoin="round" stroke-miterlimit="10" points="
			50.843,85.838 80.792,82.416 84.313,89.444 54.646,93.763 		"/>
		<polygon stroke="#FFFFFF" stroke-width="0.125" stroke-miterlimit="10" points="104.588,59.284 106.838,59.207 113.588,70.104 
			111.588,70.36 		"/>
		<polygon fill="#171617" points="113.281,73.204 113.588,70.104 111.588,70.36 		"/>
	</g>
	<g opacity="0.97">
		<path d="M111.436,121.388h-7.141v-5.145h7.141v-7.044h5.163v7.044h7.141v5.145h-7.141v6.929h-5.163V121.388z"/>
	</g>
</g>
</svg>
