<?xml version="1.0" encoding="utf-8"?>
<!-- Generator: Adobe Illustrator 16.0.0, SVG Export Plug-In . SVG Version: 6.00 Build 0)  -->
<!DOCTYPE svg PUBLIC "-//W3C//DTD SVG 1.1//EN" "http://www.w3.org/Graphics/SVG/1.1/DTD/svg11.dtd">
<svg version="1.1" id="Layer_1" xmlns="http://www.w3.org/2000/svg" xmlns:xlink="http://www.w3.org/1999/xlink" x="0px" y="0px"
	 width="200px" height="200px" viewBox="0 0 200 200" enable-background="new 0 0 200 200" xml:space="preserve">
<g>
	<g>
		<path fill="#767472" stroke="#767472" stroke-width="1.5" stroke-miterlimit="10" d="M57.428,130.027
			c0,3.134-2.541,5.674-5.674,5.674H18.088c-3.135,0-5.676-2.54-5.676-5.674V63.453c0-3.133,2.541-5.673,5.676-5.673h33.666
			c3.133,0,5.674,2.54,5.674,5.673V130.027z"/>
		<path fill="none" stroke="#000000" stroke-width="0.5" stroke-miterlimit="10" d="M54.606,57.701v71.002
			c0,0-0.189,2.648-0.945,2.648"/>
	</g>
	<path fill="#93928F" d="M54.633,128.742v8.094c0,3.134-2.541,5.675-5.674,5.675H12.145c-3.133,0-5.674-2.541-5.674-5.675v-7.943"/>
	
		<path fill="#4C4C4D" stroke="#4C4C4D" stroke-width="0.5" stroke-linecap="round" stroke-linejoin="round" stroke-miterlimit="10" d="
		M54.131,130.973c0,3.134-2.539,5.674-5.672,5.674H12.145c-3.135,0-5.674-2.54-5.674-5.674V55.888c0-3.134,2.539-5.675,5.674-5.675
		h36.314c3.133,0,5.672,2.541,5.672,5.675V130.973z"/>
	<path fill="#93928F" stroke="#B7B6B6" stroke-width="0.5" stroke-linejoin="round" stroke-miterlimit="10" d="M50.446,53.808
		v68.844c0,3.134-2.541,5.674-5.676,5.674H15.833c-3.133,0-5.674-2.54-5.674-5.674V53.808H50.446z"/>
	<path fill="none" stroke="#767472" stroke-width="0.25" stroke-miterlimit="10" d="M47.918,50.113c3.133,0,2.527,3.215,2.527,3.215
		H10.159c0,0-0.553-3.265,2.58-3.265"/>
	<path fill="#FFFFFF" stroke="#000000" stroke-width="0.5" stroke-miterlimit="10" d="M45.721,118.87
		c0,1.565-1.27,2.837-2.836,2.837H17.729c-1.566,0-2.837-1.271-2.837-2.837V64.966c0-1.566,1.271-2.837,2.837-2.837h25.156
		c1.566,0,2.836,1.271,2.836,2.837V118.87z"/>
	<path fill="none" stroke="#767472" stroke-width="0.4449" stroke-miterlimit="10" d="M15.233,65.364
		c-0.341-1.419,0.717-2.837,2.248-2.837h25.607c1.533,0,2.301,1.27,2.301,2.837"/>
	<line fill="none" stroke="#767472" stroke-miterlimit="10" x1="15.217" y1="81.421" x2="45.385" y2="81.421"/>
	<line fill="none" stroke="#767472" stroke-miterlimit="10" x1="45.385" y1="85.771" x2="15.217" y2="85.771"/>
	<rect x="16.59" y="82.514" fill="#767472" width="12.482" height="2.086"/>
	<rect x="31.293" y="82.514" fill="#767472" width="12.482" height="2.086"/>
	<text transform="matrix(1 0 0 1 31.5835 77.165)" font-family="'OpenSans'" font-size="6.8088">€17</text>
	
		<line fill="none" stroke="#767472" stroke-width="0.4449" stroke-miterlimit="10" x1="16.59" y1="63.945" x2="21.034" y2="63.945"/>
	
		<line fill="none" stroke="#767472" stroke-width="0.4449" stroke-miterlimit="10" x1="38.553" y1="63.945" x2="43.092" y2="63.945"/>
	
		<line fill="none" stroke="#767472" stroke-width="0.4449" stroke-miterlimit="10" x1="39.545" y1="64.611" x2="42.594" y2="64.611"/>
	
		<line fill="none" stroke="#767472" stroke-width="0.4449" stroke-miterlimit="10" x1="40.397" y1="63.264" x2="42.594" y2="63.264"/>
	
		<line fill="none" stroke="#767472" stroke-width="0.4449" stroke-miterlimit="10" x1="27.204" y1="63.945" x2="34.297" y2="63.945"/>
	
		<line fill="none" stroke="#767472" stroke-width="0.4449" stroke-miterlimit="10" x1="29.403" y1="64.611" x2="32.383" y2="64.611"/>
	
		<line fill="none" stroke="#767472" stroke-width="0.4449" stroke-miterlimit="10" x1="33.516" y1="64.611" x2="34.297" y2="64.611"/>
	<g>
		<line fill="#FFFFFF" stroke="#767472" stroke-miterlimit="10" x1="15.217" y1="89.136" x2="45.389" y2="89.136"/>
		<path fill="none" stroke="#767472" stroke-width="0.5" stroke-miterlimit="10" d="M24.727,95.377c0,0.627-0.498,1.135-1.111,1.135
			h-5.691c-0.613,0-1.111-0.508-1.111-1.135v-3.404c0-0.626,0.498-1.135,1.111-1.135h5.691c0.613,0,1.111,0.509,1.111,1.135V95.377z
			"/>
		<path fill="none" stroke="#767472" stroke-width="0.5" stroke-miterlimit="10" d="M34.26,95.377c0,0.627-0.498,1.135-1.111,1.135
			h-5.691c-0.613,0-1.111-0.508-1.111-1.135v-3.404c0-0.626,0.498-1.135,1.111-1.135h5.691c0.613,0,1.111,0.509,1.111,1.135V95.377z
			"/>
		<path fill="none" stroke="#767472" stroke-width="0.5" stroke-miterlimit="10" d="M43.792,95.377c0,0.627-0.496,1.135-1.109,1.135
			h-5.691c-0.613,0-1.111-0.508-1.111-1.135v-3.404c0-0.626,0.498-1.135,1.111-1.135h5.691c0.613,0,1.109,0.509,1.109,1.135V95.377z
			"/>
		<path fill="none" stroke="#767472" stroke-width="0.5" stroke-miterlimit="10" d="M24.727,102.753
			c0,0.627-0.498,1.136-1.111,1.136h-5.691c-0.613,0-1.111-0.509-1.111-1.136v-3.404c0-0.626,0.498-1.135,1.111-1.135h5.691
			c0.613,0,1.111,0.509,1.111,1.135V102.753z"/>
		<path fill="none" stroke="#767472" stroke-width="0.5" stroke-miterlimit="10" d="M34.26,102.753c0,0.627-0.498,1.136-1.111,1.136
			h-5.691c-0.613,0-1.111-0.509-1.111-1.136v-3.404c0-0.626,0.498-1.135,1.111-1.135h5.691c0.613,0,1.111,0.509,1.111,1.135V102.753
			z"/>
		<path fill="none" stroke="#767472" stroke-width="0.5" stroke-miterlimit="10" d="M43.792,102.753
			c0,0.627-0.496,1.136-1.109,1.136h-5.691c-0.613,0-1.111-0.509-1.111-1.136v-3.404c0-0.626,0.498-1.135,1.111-1.135h5.691
			c0.613,0,1.109,0.509,1.109,1.135V102.753z"/>
		<path fill="none" stroke="#767472" stroke-width="0.5" stroke-miterlimit="10" d="M24.727,110.13c0,0.627-0.498,1.135-1.111,1.135
			h-5.691c-0.613,0-1.111-0.508-1.111-1.135v-3.405c0-0.626,0.498-1.135,1.111-1.135h5.691c0.613,0,1.111,0.509,1.111,1.135V110.13z
			"/>
		<path fill="none" stroke="#767472" stroke-width="0.5" stroke-miterlimit="10" d="M34.26,110.13c0,0.627-0.498,1.135-1.111,1.135
			h-5.691c-0.613,0-1.111-0.508-1.111-1.135v-3.405c0-0.626,0.498-1.135,1.111-1.135h5.691c0.613,0,1.111,0.509,1.111,1.135V110.13z
			"/>
		<path fill="none" stroke="#767472" stroke-width="0.5" stroke-miterlimit="10" d="M43.792,110.13c0,0.627-0.496,1.135-1.109,1.135
			h-5.691c-0.613,0-1.111-0.508-1.111-1.135v-3.405c0-0.626,0.498-1.135,1.111-1.135h5.691c0.613,0,1.109,0.509,1.109,1.135V110.13z
			"/>
		<path fill="#ED1D38" d="M24.727,117.509c0,0.626-0.498,1.135-1.111,1.135h-5.691c-0.613,0-1.111-0.509-1.111-1.135v-3.407
			c0-0.626,0.498-1.135,1.111-1.135h5.691c0.613,0,1.111,0.509,1.111,1.135V117.509z"/>
		<path fill="none" stroke="#767472" stroke-width="0.5" stroke-miterlimit="10" d="M34.26,117.509c0,0.626-0.498,1.135-1.111,1.135
			h-5.691c-0.613,0-1.111-0.509-1.111-1.135v-3.407c0-0.626,0.498-1.135,1.111-1.135h5.691c0.613,0,1.111,0.509,1.111,1.135V117.509
			z"/>
		<path fill="#EADE15" d="M43.792,117.509c0,0.626-0.496,1.135-1.109,1.135h-5.691c-0.613,0-1.111-0.509-1.111-1.135v-3.407
			c0-0.626,0.498-1.135,1.111-1.135h5.691c0.613,0,1.109,0.509,1.109,1.135V117.509z"/>
	</g>
	<g>
		<path fill="none" stroke="#767472" stroke-width="0.4449" stroke-miterlimit="10" d="M19.922,133.328
			c0,0.626-0.508,1.135-1.135,1.135h-4.396c-0.627,0-1.135-0.509-1.135-1.135v-1.702c0-0.627,0.508-1.136,1.135-1.136h4.396
			c0.627,0,1.135,0.509,1.135,1.136V133.328z"/>
		<path fill="#FFFFFF" d="M49.1,133.328c0,0.626-0.51,1.135-1.135,1.135h-4.398c-0.627,0-1.135-0.509-1.135-1.135v-1.702
			c0-0.627,0.508-1.136,1.135-1.136h4.398c0.625,0,1.135,0.509,1.135,1.136V133.328z"/>
		<path fill="#FFFFFF" d="M19.922,133.328c0,0.626-0.508,1.135-1.135,1.135h-4.396c-0.627,0-1.135-0.509-1.135-1.135v-1.702
			c0-0.627,0.508-1.136,1.135-1.136h4.396c0.627,0,1.135,0.509,1.135,1.136V133.328z"/>
		<g>
			<path fill="#FFFFFF" d="M29.649,133.328c0,0.626-0.509,1.135-1.135,1.135h-4.398c-0.627,0-1.135-0.509-1.135-1.135v-1.702
				c0-0.627,0.508-1.136,1.135-1.136h4.398c0.626,0,1.135,0.509,1.135,1.136V133.328z"/>
		</g>
		<g>
			<path fill="#FFFFFF" d="M39.118,133.328c0,0.626-0.508,1.135-1.135,1.135h-4.398c-0.627,0-1.135-0.509-1.135-1.135v-1.702
				c0-0.627,0.508-1.136,1.135-1.136h4.398c0.627,0,1.135,0.509,1.135,1.136V133.328z"/>
		</g>
	</g>
	
		<line fill="#4C4C4D" stroke="#4C4C4D" stroke-width="2" stroke-miterlimit="10" x1="16.767" y1="139.153" x2="47.135" y2="139.153"/>
	
		<line fill="#FFFFFF" stroke="#767472" stroke-width="0.5062" stroke-miterlimit="10" x1="15.233" y1="65.364" x2="45.385" y2="65.364"/>
</g>
<g opacity="0.97">
	<path d="M72.74,110.044H65.6v-5.145h7.141v-7.044h5.163v7.044h7.141v5.145h-7.141v6.929H72.74V110.044z"/>
</g>
<path fill="#4C4C4D" stroke="#4C4C4D" stroke-width="0.5" stroke-linecap="round" stroke-linejoin="round" stroke-miterlimit="10" d="
	M194.438,128.539c0,0.552-0.447,1-1,1H92.717c-0.553,0-1-0.448-1-1V60.205c0-0.552,0.447-1,1-1h100.721c0.553,0,1,0.448,1,1V128.539
	z"/>
<g>
	<rect x="96.076" y="63.038" fill="#FFFFFF" width="94.002" height="53.5"/>
	<path fill="#333333" d="M189.578,63.538v52.5H96.576v-52.5H189.578 M190.578,62.538H95.576v54.5h95.002V62.538L190.578,62.538z"/>
</g>
<linearGradient id="SVGID_1_" gradientUnits="userSpaceOnUse" x1="158.7578" y1="36.3672" x2="209.5597" y2="120.6523">
	<stop  offset="0" style="stop-color:#FFFFFF"/>
	<stop  offset="1" style="stop-color:#FFFFFF;stop-opacity:0"/>
</linearGradient>
<path opacity="0.8" fill="url(#SVGID_1_)" d="M154.203,59.205h39.234c0.553,0,1,0.448,1,1v68.334c0,0.552-0.447,1-1,1
	L154.203,59.205z"/>
<g>
	
		<linearGradient id="SVGID_2_" gradientUnits="userSpaceOnUse" x1="132.3555" y1="131.3799" x2="161.0782" y2="150.0327" gradientTransform="matrix(-1 0 0 1 290.373 0)">
		<stop  offset="0.0675" style="stop-color:#020202"/>
		<stop  offset="1" style="stop-color:#F1F2F2"/>
	</linearGradient>
	<path fill="url(#SVGID_2_)" d="M127.359,146.214c-0.938-0.188-0.875-1.723-0.875-1.723c6.875-5.688,9.062-13.965,9.062-13.965
		l14.938,0.25c0,0,2.312,8.625,9.188,14.312c0,0,0.062,0.938-0.875,1.125H127.359z"/>
	
		<linearGradient id="SVGID_3_" gradientUnits="userSpaceOnUse" x1="147.2783" y1="125.5508" x2="147.2783" y2="145.7837" gradientTransform="matrix(-1 0 0 1 290.373 0)">
		<stop  offset="0.1835" style="stop-color:#020202"/>
		<stop  offset="1" style="stop-color:#FFFFFF"/>
	</linearGradient>
	<path fill="url(#SVGID_3_)" d="M127.359,145.526c-0.938-0.188-0.84-1.125-0.84-1.125c6.875-5.688,5.174-15.312,5.174-15.312h22.77
		c0,0-1.666,9.625,5.209,15.312c0,0,0.062,0.938-0.875,1.125S128.297,145.714,127.359,145.526z"/>
</g>
<g>
	<g>
		<path fill="#757576" d="M144.994,107.048c0,0,1.772,3.135,3.823,2.793c2.044-0.344,1.298,2.546,4.169,0.563
			c1.496-1.032-5.76-4.201-5.76-4.201L144.994,107.048z"/>
		<path fill="#757576" d="M147.704,97.823l11.046,1.09c0,0-0.942,1.065-1.907,1.366c-0.966,0.299-6.358,0.918-7.095,0.021
			C149.009,99.402,147.704,97.823,147.704,97.823z"/>
		<polygon fill="#565655" points="147.409,93.981 160.3,95.245 160.014,86.879 151.617,86.497 146.479,92.935 		"/>
		<path fill="#757576" d="M146.85,94.439c0,0,4.525,0.771,6.103-3.642c0,0,3.419,1.385,5.046-1.027
			c1.629-2.414,0.102-0.928,0.102-0.928s-3.985-0.363-4.726-1.983C152.635,85.238,146.85,94.439,146.85,94.439z"/>
		<path fill="#D3D2D1" d="M141.245,93.147c0,0,4.845-9.173,5.394-12.118c0.55-2.945,2.568-2.257,2.568-2.257l16.66,0.622
			c0,0,3.095-0.203,5.441,5.553s8.807,14.033,8.402,15.622c-0.406,1.589-7.893,16.243-7.893,16.243s-6.522-0.26-13.493-3.817
			c-6.973-3.557-11.516-4.814-12.782-5.312c-1.264-0.499-3.246-3.673-4.201-5.84c0,0-4.284-4.541-1.607-6.778
			c0,0,2.925-2.575,7.056,1.163l3.68,4.465c0,0,6.204,0.054,7.128-0.761l1.152-1.019c0,0-1.083-9.825-0.65-10.07
			c0.434-0.246-3.795,0.543-4.777-0.879c-0.982-1.423-1.389,0.305-1.389,0.305s-5.764,5.177-6.754,5.122
			C143.27,93.285,141.894,94.501,141.245,93.147z"/>
		<path fill="#A09E9E" d="M144.4,104.066c1.284,1.605,19.636,4.707,22.047,2.168c2.409-2.538,2.148-4.227-0.564-4.976
			c-2.714-0.749-7.133-2.346-7.133-2.346l13.52,1.614c0,0-1.033-6.567-3.404-12.312c-2.373-5.744-11.157-9.126-11.157-9.126
			s2.808,0.02,5.969,0.09c1.953,0.265,3.991-0.086,5.71,1.86c0.925,1.145,1.637,2.759,3.229,5.697
			c3.039,5.601,7.265,12.321,7.077,13.274c-0.188,0.952-7.874,16.801-7.874,16.801s-6.124-0.567-9.266-2.009
			c-2.463-0.97-14.131-6.201-17.01-7.121c-1.637-0.921-4.252-5.123-5.696-7.839C138.246,97.668,143.12,102.461,144.4,104.066z"/>
		<polygon fill="#7F7F7F" points="170.145,117.608 175.108,108.299 188.754,115.541 184.242,124.859 		"/>
		<polygon fill="#4C4C4D" points="179.874,99.286 175.108,108.299 188.754,115.541 193.581,105.669 		"/>
	</g>
	<g>
		<path fill="#93928F" d="M130.238,91.446l43.52,5.662c0,0,1.154,0.365,1.332,1.939c-0.529,1.493-1.737,1.587-1.737,1.587
			l-43.67-4.348"/>
		<g>
			<g>
				<polygon fill="#C7CACC" points="129.627,96.226 124.477,93.181 130.184,91.384 				"/>
			</g>
			<polyline fill="#1E2021" points="125.563,93.822 124.477,93.181 125.68,92.802 			"/>
		</g>
		<polygon fill="#4C4C4D" points="130.453,91.474 149.436,93.942 130.244,92.145 		"/>
		<polygon fill="#4C4C4D" points="173.984,97.051 155.01,94.669 174.018,97.753 174.646,97.8 		"/>
		<polygon fill="#4C4C4D" points="173.672,100.646 154.642,98.772 173.859,99.97 174.481,100.062 		"/>
		<polygon fill="#4C4C4D" points="129.793,96.36 148.846,98.203 129.741,95.658 		"/>
		<polygon fill="#4C4C4D" points="129.775,94.323 148.828,96.167 129.723,93.622 		"/>
		<polygon fill="#4C4C4D" points="174.719,98.61 155.686,96.767 174.771,99.312 		"/>
		<path fill="none" stroke="#FFFFFF" stroke-width="0.6153" stroke-linecap="round" stroke-miterlimit="10" d="M129.683,96.287
			c0,0,0.052-0.701,0.278-2.42c0.227-1.72,0.277-2.421,0.277-2.421"/>
	</g>
	<g>
		<path fill="#D3D2D1" d="M149.893,100.414l-3.31-4.792c-4.13-3.738-7.056-1.164-7.056-1.164c-2.676,2.238,0.847,5.251,0.847,5.251
			l3.986,0.387L149.893,100.414z"/>
		<path fill="#A09E9E" d="M158.053,91.188c-0.055-1.79-0.099-2.354,0.047-2.345c0,0-4.332,1.019-5.703-1.379
			c-1.621,2.397-3.746,6.209-6.92,6.341c-4.447,0.186-4.231-0.657-4.231-0.657s8.981-6.133,9.861-8.699s4.631,0.481,4.718,0.714
			c0.086,0.232,2.639,0.304,3.963,0.503s0.794,8.739,0.794,8.739l-0.038,0.983l-2.256-0.293L158.053,91.188z"/>
		<path fill="#E7AB98" d="M158.633,99.028"/>
		<g>
			<path fill="#BCBBBB" d="M139.628,99.138c-1.457-2.205-0.87-3.698-0.653-4.106c0.195-0.368,0.419-0.534,0.516-0.534
				c0.875,0.34,1.727,2.295,1.467,3.324c-0.008-0.056-0.077-0.068-0.146-0.068C140.179,97.753,139.743,98.819,139.628,99.138z"/>
			<path fill="#787878" d="M139.49,94.542h0.004c0.815,0.32,1.626,2.145,1.438,3.178c-0.04-0.008-0.08-0.012-0.121-0.012
				c-0.612,0-1.041,0.934-1.194,1.33c-1.381-2.143-0.814-3.588-0.603-3.986C139.206,94.692,139.419,94.542,139.49,94.542
				 M139.49,94.452c-0.402,0-1.812,1.886,0.15,4.786c0,0,0.467-1.44,1.171-1.44c0.062,0,0.125,0.012,0.189,0.035
				c0.257-1.017-0.56-3.016-1.474-3.375C139.517,94.454,139.504,94.452,139.49,94.452L139.49,94.452z"/>
		</g>
		<path fill="#956E86" d="M184.036,124.255"/>
	</g>
</g>
</svg>
