<?xml version="1.0" encoding="utf-8"?>
<!-- Generator: Adobe Illustrator 16.0.0, SVG Export Plug-In . SVG Version: 6.00 Build 0)  -->
<!DOCTYPE svg PUBLIC "-//W3C//DTD SVG 1.1//EN" "http://www.w3.org/Graphics/SVG/1.1/DTD/svg11.dtd">
<svg version="1.1" id="Layer_1" xmlns="http://www.w3.org/2000/svg" xmlns:xlink="http://www.w3.org/1999/xlink" x="0px" y="0px"
	 width="400px" height="400px" viewBox="0 0 400 400" enable-background="new 0 0 400 400" xml:space="preserve">
<radialGradient id="SVGID_1_" cx="199.75" cy="199.7021" r="185.5591" gradientUnits="userSpaceOnUse">
	<stop  offset="0" style="stop-color:#FFFFFF"/>
	<stop  offset="1" style="stop-color:#008080"/>
</radialGradient>
<circle fill="url(#SVGID_1_)" cx="199.75" cy="199.702" r="185.559"/>
<g>
	<polygon fill="#FEF5F5" points="152.735,126.613 152.735,220.988 105.839,220.988 103.938,117.657 114.15,115.112 114.15,104.378 
		131.785,99.5 145.587,109.743 145.587,118.67 	"/>
	<line fill="#FEF5F5" x1="131.785" y1="99.5" x2="133.828" y2="220.979"/>
</g>
<g>
	<polygon fill="#FEF5F5" points="87.007,212.699 87.007,312.134 78.572,315.721 72.164,312.134 72.439,208.374 84.707,208.374 	"/>
	<path fill="#FEF5F5" d="M154.976,212.699H87.007v99.435l4.324,1.411l22.513-6.014l5.859,2.058v7.912l24.812,5.123l12.513-5.123
		L154.976,212.699z M113.845,307.531l-1.545-94.822L113.845,307.531z M144.504,322.613V212.699V322.613z"/>
</g>
<g>
	<path fill="#FEF5F5" d="M307.03,156.938l-1.709,143.915l-14.505,3.416h-14.235l-7.68-5.665l-0.652-55.371l-0.032-2.116v-0.443
		l-0.34-29.732v-1.16h-15.876l-17.065-0.034v95.752h-42.092l-1.16-155.011l2.288-2.564l-1.127-34.986l3.106-3.416V86.479
		l2.561-5.426v-14.78l4.268-2.559V53.198l7.988-19.628l10.174,19.524c0.03,0.036,0.066,0.068,0.066,0.104l1.707,13.075l4.542,5.394
		v14.813l2.391,3.109l0.441,0.58v22.77l1.774,1.227l1.093,0.753l-1.433,35.57l2.864,3.105h0.034l0.515,0.579v46.732h32.804
		l-0.547-46.254l1.709-1.024h0.032l-0.032-34.237l1.432-2.288V95.186l3.414-2.834V78.117l3.96-3.96v-9.97l8.842-19.627l8.229,20.893
		v10.685l0.547,0.478l3.445,2.936v11.096l2.118,3.79l0.441,0.749v21.916l1.911,3.105c0,0.037,0.032,0.037,0.032,0.037l0.342,0.544
		v30.176l3.21,5.633c0.038,0,0.038,0.034,0.038,0.034L307.03,156.938z"/>
	<line fill="#FEF5F5" x1="252.001" y1="209.783" x2="268.397" y2="241.028"/>
	<line fill="#FEF5F5" x1="252.001" y1="209.783" x2="234.936" y2="241.028"/>
</g>
</svg>
