<svg xmlns="http://www.w3.org/2000/svg" width="200" height="46" viewBox="0 0 200 46">
  <defs>
    <linearGradient id="a" x1="50%" x2="50%" y1="0%" y2="100%">
      <stop stop-color="#FFFFFF" offset="0%"/>
      <stop stop-color="#F1F3F3" offset="100%"/>
    </linearGradient>
  </defs>
  <path fill="url(#a)" fill-rule="evenodd" d="M135.004206,16.1046319 L133.303484,16.1046319 L133.303484,30.0380995 L146.184739,30.0380995 L146.184739,28.3129708 L135.004206,28.3129708 L135.004206,16.1046319 Z M109.552399,16.1046319 L107.85032,16.1046319 L107.85032,30.0380995 L120.734967,30.0380995 L120.734967,28.3129708 L109.552399,28.3129708 L109.552399,16.1046319 Z M66.257598,16.1046319 L60.221969,16.1046319 L60.221969,17.8297606 L66.257598,17.8297606 L66.257598,30.0380995 L67.9623901,30.0380995 L67.9623901,17.8297606 L73.9959839,17.8297606 L73.9959839,16.1046319 L66.257598,16.1046319 Z M200,30.0380995 L195.378813,23.907511 L195.874037,23.907511 C198.007571,23.907511 199.736107,22.1576788 199.736107,20.0016111 C199.736107,17.8421123 198.007571,16.0991422 195.874037,16.0991422 L195.874037,16.1046319 L185.031342,16.1046319 L185.031342,30.0380995 L186.737491,30.0380995 L186.737491,23.9315283 L188.588136,23.9315283 L188.588136,23.907511 L193.235103,23.907511 L197.806089,30.0380995 L200,30.0380995 Z M188.588136,22.2077721 L186.737491,23.3448199 L186.737491,17.8297606 L195.874037,17.8297606 C197.06868,17.8297606 198.036063,18.8096666 198.036063,20.0139629 C198.036063,21.2237488 197.06868,22.1837548 195.874037,22.1837548 L188.588136,22.1837548 L188.588136,22.2077721 Z M88.8771301,19.3023644 L88.8771301,30.0380995 L90.5832791,30.0380995 L90.5832791,16.4607742 L90.194562,16.4607742 L88.8771301,19.3023644 Z M88.8771301,15.1144328 L89.263812,15.1144328 L90.5832791,12.9178787 L90.5832791,12.1143283 L88.8771301,12.1143283 L88.8771301,15.1144328 Z M158.169163,16.1046319 L158.169163,30.0380995 L171.052453,30.0380995 L171.052453,28.3129708 L159.87599,28.3129708 L159.87599,23.9315283 L167.587919,23.9315283 L167.587919,22.2077721 L161.724601,22.2077721 L159.87599,23.3448199 L159.87599,17.8297606 L171.052453,17.8297606 L171.052453,16.1046319 L158.169163,16.1046319 Z M44.5762781,22.0732752 L44.5762781,22.0712165 L40.0134321,22.2036548 C39.7990611,17.9820989 38.1024096,14.158544 35.4417671,11.248333 L38.8153967,8.02521071 L38.8133616,8.02040725 C39.1620536,7.66357873 39.1620536,7.08647721 38.8072561,6.72896248 C38.455172,6.37213396 37.8873603,6.37213396 37.5318843,6.72484523 L37.5291707,6.72004177 L34.3380278,10.1421645 C31.4460545,7.49477139 27.6653913,5.82453942 23.5034734,5.64338032 L23.637116,0.922264489 C23.637116,0.922264489 23.637116,0.922264489 23.637116,0.919519654 L23.637116,0.907167897 L23.6350809,0.907167897 C23.6276186,0.406235549 23.2246554,0 22.7273961,0 C22.2294584,0 21.8285303,0.406235549 21.8217464,0.907167897 L21.8190329,0.907167897 L21.8190329,0.919519654 L21.8190329,0.922264489 L21.9526756,5.64338032 C17.791436,5.82934288 14.0114512,7.50437831 11.1221915,10.1545163 L7.93172691,6.73445215 L7.92901335,6.7385694 C7.57353739,6.38654434 7.00369044,6.38654434 6.6529632,6.74405907 C6.29680886,7.1008876 6.29952241,7.67798911 6.64550092,8.03550384 L6.64550092,8.03756247 L10.0218441,11.2620571 C7.36595029,14.1756993 5.67404754,17.9985679 5.46171171,22.2228687 L0.899544122,22.0869993 L0.899544122,22.092489 C0.402963204,22.0993511 0,22.5076453 0,23.0092638 C0,23.5143134 0.402963204,23.9219214 0.899544122,23.9267248 L0.899544122,23.9294697 L5.45696299,23.7984038 C5.61706285,28.0522115 7.27301096,31.9162527 9.91601541,34.8648915 L6.65839032,37.9747893 L6.66178226,37.9795928 C6.31173342,38.3391661 6.31512537,38.9135228 6.66720938,39.2703513 C7.01997178,39.627866 7.58778357,39.627866 7.94258114,39.2751548 L7.9446163,39.2799582 L11.0170411,35.9854703 C13.9212254,38.6966808 17.7459839,40.410144 21.9648866,40.5981651 L21.8373494,45.0921459 L21.8407413,45.0921459 C21.8454901,45.5937645 22.2498101,46 22.7484261,46 C23.2463638,46 23.649327,45.5917058 23.6554325,45.0921459 L23.6588245,45.0921459 L23.5299305,40.5981651 C27.7454412,40.4053405 31.5688429,38.6891325 34.4716705,35.9758634 L37.5413817,39.2634892 L37.5440953,39.2607444 C37.900928,39.6127694 38.4700966,39.6127694 38.822859,39.2559409 C39.1762998,38.8984262 39.1762998,38.3247557 38.8289645,37.9644962 L38.8296429,37.9624375 L35.5720178,34.8511673 C38.2123087,31.8990975 39.8641865,28.0343701 40.0208944,23.7771313 L44.5762781,23.9130007 L44.5762781,23.907511 C45.0735374,23.9027075 45.4751438,23.4944134 45.4751438,22.9907362 C45.4751438,22.483628 45.0721806,22.0780786 44.5762781,22.0732752 Z M23.6683219,9.88415007 C26.5915011,10.0941299 29.247395,11.264802 31.3300499,13.0942344 L26.9408716,17.5360633 C26.0114783,16.8011337 24.8921361,16.3098083 23.6683219,16.1403148 L23.6683219,9.88415007 L23.6683219,9.88415007 Z M22.7375719,21.6965466 C23.4512374,21.6965466 24.0265115,22.2805102 24.0265115,23.0003431 C24.0265115,23.7215484 23.4512374,24.3034534 22.7375719,24.3034534 C22.02662,24.3034534 21.4493108,23.7215484 21.4493108,23.0003431 C21.4493108,22.2805102 22.02662,21.6965466 22.7375719,21.6965466 L22.7375719,21.6965466 Z M21.8061435,9.88415007 L21.8061435,16.1403148 C20.5816509,16.3098083 19.4629871,16.8011337 18.5329154,17.5360633 L14.1437371,13.0942344 C16.2270704,11.264802 18.8843211,10.0941299 21.8061435,9.88415007 L21.8061435,9.88415007 Z M12.8256268,14.4261654 L17.2351568,18.8844633 C16.5431998,19.8280003 16.0825735,20.9533826 15.9394334,22.1768927 L9.65280039,22.1768927 C9.85970911,19.2179608 11.0170411,16.5341986 12.8256268,14.4261654 L12.8256268,14.4261654 Z M9.65280039,24.0639666 L15.975388,24.0639666 C16.1470205,25.1790557 16.5777977,26.2076826 17.2086997,27.0791676 C17.2256594,27.1031849 17.2385488,27.1272022 17.2555085,27.1512195 C17.2819657,27.1855299 17.301639,27.2239576 17.3274178,27.2582681 L12.8256268,31.811949 C11.0170411,29.7052883 9.85970911,27.0187812 9.65280039,24.0639666 L9.65280039,24.0639666 Z M35.2769185,27.0503468 C34.0293607,26.9995674 32.848285,27.6171552 32.5735374,28.2086671 C32.2892923,28.8145894 32.5626832,30.0820169 33.3672528,31.0104572 C32.6834364,31.9718356 31.8625855,32.8501827 30.9175893,33.6084434 C29.9413872,32.8714552 28.6694074,32.6909823 28.1212689,32.9977176 C27.5459948,33.3209219 27.04263,34.4915939 27.14371,35.7103006 C26.0006241,36.1137913 24.8283675,36.342985 23.6622164,36.4109197 C23.2938511,35.2368166 22.3651362,34.3344522 21.7383046,34.2624002 C21.0755183,34.1821138 19.9697438,34.8532259 19.3537664,35.931946 C18.2208564,35.6018796 17.1313633,35.1194749 16.1212417,34.4895353 C16.5431998,33.2941598 16.3071204,31.9594839 15.8274992,31.5196241 C15.8159666,31.5079585 15.7915446,31.4983516 15.7772984,31.4866861 L18.6679149,28.5661818 C19.806252,29.4177668 21.2105177,29.9296785 22.7375719,29.9296785 C26.5209487,29.9296785 29.5886248,26.8259566 29.5886248,23.0003431 C29.5886248,21.4556873 29.0825464,20.0359215 28.239987,18.8830909 L30.8992728,16.1917804 C31.5735917,16.4058775 32.5925323,16.3626464 33.4730815,15.9090624 C33.7831054,16.3605878 34.073456,16.8354442 34.3332791,17.3370627 C34.6270216,17.9045573 34.8712417,18.4857761 35.0767937,19.0704259 C33.9574514,19.7538898 33.2987355,21.020631 33.4228807,21.6862534 C33.5470259,22.3676587 34.5585043,23.2707093 35.7999566,23.5184307 C35.788424,24.7179235 35.6086508,25.9084956 35.2769185,27.0503468 L35.2769185,27.0503468 Z"/>
</svg>
